<svg width="40" height="40" viewBox="0 0 40 40" fill="none" xmlns="http://www.w3.org/2000/svg">
<path d="M38.2741 17.1351H1.72603C1.58267 17.1351 1.44518 17.0781 1.34381 16.9768C1.24244 16.8754 1.18549 16.7379 1.18549 16.5945V12.6518C1.18548 12.5588 1.20952 12.4673 1.25526 12.3862C1.301 12.3051 1.36689 12.2372 1.44657 12.1891L19.7168 1.15886C19.8011 1.10804 19.8976 1.08118 19.996 1.08118C20.0944 1.08118 20.191 1.10804 20.2752 1.15886L38.5531 12.1891C38.6327 12.2372 38.6986 12.3051 38.7444 12.3862C38.7901 12.4673 38.8141 12.5588 38.8141 12.6518V16.5945C38.8141 16.7378 38.7573 16.8752 38.656 16.9766C38.5547 17.0779 38.4174 17.1349 38.2741 17.1351ZM2.26711 16.054H37.7336V12.9567L19.9968 2.25291L2.26711 12.9556V16.054Z" fill="#D8AE75"/>
<path d="M20 13.1421C19.3606 13.1421 18.7355 12.9525 18.2039 12.5972C17.6722 12.242 17.2578 11.7371 17.0131 11.1463C16.7684 10.5556 16.7044 9.90554 16.8291 9.2784C16.9539 8.65126 17.2618 8.0752 17.7139 7.62306C18.1661 7.17093 18.7421 6.86301 19.3693 6.73827C19.9964 6.61352 20.6465 6.67755 21.2372 6.92224C21.828 7.16694 22.3329 7.58132 22.6881 8.11298C23.0434 8.64464 23.233 9.2697 23.233 9.90912C23.232 10.7663 22.891 11.588 22.285 12.1941C21.6789 12.8002 20.8571 13.1411 20 13.1421ZM20 7.75669C19.5744 7.75669 19.1584 7.8829 18.8045 8.11935C18.4506 8.3558 18.1748 8.69188 18.0119 9.08509C17.849 9.47829 17.8064 9.91097 17.8895 10.3284C17.9725 10.7458 18.1774 11.1293 18.4784 11.4302C18.7793 11.7311 19.1628 11.9361 19.5802 12.0191C19.9976 12.1022 20.4303 12.0595 20.8235 11.8967C21.2167 11.7338 21.5528 11.458 21.7892 11.1041C22.0257 10.7502 22.1519 10.3342 22.1519 9.90858C22.1512 9.33808 21.9242 8.79116 21.5208 8.38775C21.1174 7.98435 20.5705 7.7574 20 7.75669Z" fill="#D8AE75"/>
<path d="M35.1201 20.5496H29.3682C29.0586 20.5492 28.7618 20.426 28.5429 20.207C28.324 19.988 28.2009 19.6912 28.2007 19.3815V16.5945C28.2007 16.4511 28.2576 16.3136 28.359 16.2123C28.4603 16.1109 28.5978 16.054 28.7412 16.054H35.7471C35.8905 16.054 36.028 16.1109 36.1293 16.2123C36.2307 16.3136 36.2877 16.4511 36.2877 16.5945V19.3832C36.287 19.6925 36.1637 19.9889 35.9448 20.2076C35.726 20.4262 35.4294 20.5492 35.1201 20.5496ZM29.2823 17.1334V19.3815C29.2823 19.4045 29.2914 19.4266 29.3076 19.4429C29.3238 19.4592 29.3458 19.4684 29.3688 19.4686H35.1201C35.1431 19.4684 35.1651 19.4592 35.1813 19.4429C35.1975 19.4266 35.2066 19.4045 35.2066 19.3815V17.135L29.2823 17.1334Z" fill="#D8AE75"/>
<path d="M34.6292 31.468H29.8584C29.715 31.468 29.5775 31.4111 29.4762 31.3097C29.3748 31.2083 29.3178 31.0708 29.3178 30.9275V20.0086C29.3178 19.8652 29.3748 19.7277 29.4762 19.6263C29.5775 19.525 29.715 19.468 29.8584 19.468H34.6292C34.7726 19.468 34.91 19.525 35.0114 19.6263C35.1128 19.7277 35.1697 19.8652 35.1697 20.0086V30.9275C35.1697 31.0708 35.1128 31.2083 35.0114 31.3097C34.91 31.4111 34.7726 31.468 34.6292 31.468ZM30.3989 30.3869H34.0887V20.5491H30.3989V30.3869Z" fill="#D8AE75"/>
<path d="M35.7471 34.8844H28.7412C28.5978 34.8844 28.4603 34.8274 28.359 34.7261C28.2576 34.6247 28.2007 34.4872 28.2007 34.3438V31.5552C28.2009 31.2456 28.324 30.9487 28.5429 30.7297C28.7618 30.5107 29.0586 30.3875 29.3682 30.3871H35.1201C35.4297 30.3875 35.7265 30.5107 35.9454 30.7297C36.1643 30.9487 36.2874 31.2456 36.2877 31.5552V34.3438C36.2877 34.4872 36.2307 34.6247 36.1293 34.7261C36.028 34.8274 35.8905 34.8844 35.7471 34.8844ZM29.2817 33.8033H35.2066V31.5552C35.2066 31.5322 35.1975 31.5102 35.1813 31.4938C35.1651 31.4775 35.1431 31.4683 35.1201 31.4682H29.3682C29.3452 31.4683 29.3232 31.4775 29.307 31.4938C29.2908 31.5102 29.2817 31.5322 29.2817 31.5552V33.8033Z" fill="#D8AE75"/>
<path d="M22.8756 20.5496H17.1242C16.8146 20.5492 16.5178 20.426 16.2989 20.207C16.08 19.988 15.957 19.6912 15.9567 19.3815V16.5945C15.9567 16.4511 16.0136 16.3136 16.115 16.2123C16.2164 16.1109 16.3539 16.054 16.4972 16.054H23.5026C23.646 16.054 23.7835 16.1109 23.8848 16.2123C23.9862 16.3136 24.0432 16.4511 24.0432 16.5945V19.3832C24.0425 19.6925 23.9192 19.9889 23.7003 20.2076C23.4815 20.4262 23.1849 20.5492 22.8756 20.5496ZM17.0378 17.135V19.3832C17.0378 19.4061 17.0468 19.4282 17.0631 19.4445C17.0793 19.4608 17.1013 19.47 17.1242 19.4702H22.8756C22.8986 19.47 22.9206 19.4608 22.9368 19.4445C22.953 19.4282 22.9621 19.4061 22.9621 19.3832V17.135H17.0378Z" fill="#D8AE75"/>
<path d="M22.3783 31.468H17.6215C17.4782 31.468 17.3407 31.4111 17.2393 31.3097C17.1379 31.2083 17.081 31.0708 17.081 30.9275V20.0086C17.081 19.8652 17.1379 19.7277 17.2393 19.6263C17.3407 19.525 17.4782 19.468 17.6215 19.468H22.3783C22.5216 19.468 22.6591 19.525 22.7605 19.6263C22.8619 19.7277 22.9188 19.8652 22.9188 20.0086V30.9275C22.9188 31.0708 22.8619 31.2083 22.7605 31.3097C22.6591 31.4111 22.5216 31.468 22.3783 31.468ZM18.1621 30.3869H21.8377V20.5491H18.1621V30.3869Z" fill="#D8AE75"/>
<path d="M23.5026 34.8844H16.4972C16.3539 34.8844 16.2164 34.8274 16.115 34.7261C16.0136 34.6247 15.9567 34.4872 15.9567 34.3438V31.5552C15.957 31.2456 16.08 30.9487 16.2989 30.7297C16.5178 30.5107 16.8146 30.3875 17.1242 30.3871H22.8756C23.1852 30.3875 23.482 30.5107 23.7009 30.7297C23.9198 30.9487 24.0429 31.2456 24.0432 31.5552V34.3438C24.0432 34.4872 23.9862 34.6247 23.8848 34.7261C23.7835 34.8274 23.646 34.8844 23.5026 34.8844ZM17.0372 33.8033H22.9621V31.5552C22.9621 31.5322 22.953 31.5102 22.9368 31.4938C22.9206 31.4775 22.8986 31.4683 22.8756 31.4682H17.1242C17.1013 31.4683 17.0793 31.4775 17.0631 31.4938C17.0468 31.5102 17.0378 31.5322 17.0378 31.5552L17.0372 33.8033Z" fill="#D8AE75"/>
<path d="M11.1725 20.5496H5.4206C5.11098 20.5492 4.81417 20.426 4.59528 20.207C4.3764 19.988 4.25331 19.6912 4.25303 19.3815V16.5945C4.25303 16.4511 4.30998 16.3136 4.41135 16.2123C4.51272 16.1109 4.65021 16.054 4.79357 16.054H11.7995C11.9429 16.054 12.0804 16.1109 12.1817 16.2123C12.2831 16.3136 12.3401 16.4511 12.3401 16.5945V19.3832C12.3393 19.6925 12.2161 19.9889 11.9972 20.2076C11.7784 20.4262 11.4818 20.5492 11.1725 20.5496ZM5.33411 17.135V19.3832C5.33411 19.4061 5.3432 19.4282 5.35941 19.4445C5.37561 19.4608 5.39761 19.47 5.4206 19.4702H11.1725C11.1955 19.47 11.2175 19.4608 11.2337 19.4445C11.2499 19.4282 11.259 19.4061 11.259 19.3832V17.135H5.33411Z" fill="#D8AE75"/>
<path d="M10.7027 31.468H5.89187C5.74851 31.468 5.61102 31.4111 5.50965 31.3097C5.40828 31.2083 5.35133 31.0708 5.35133 30.9275V20.0086C5.35133 19.8652 5.40828 19.7277 5.50965 19.6263C5.61102 19.525 5.74851 19.468 5.89187 19.468H10.7027C10.846 19.468 10.9835 19.525 11.0849 19.6263C11.1863 19.7277 11.2432 19.8652 11.2432 20.0086V30.9275C11.2432 31.0708 11.1863 31.2083 11.0849 31.3097C10.9835 31.4111 10.846 31.468 10.7027 31.468ZM6.43241 30.3869H10.1621V20.5491H6.43241V30.3869Z" fill="#D8AE75"/>
<path d="M11.7995 34.8844H4.79357C4.65021 34.8844 4.51272 34.8274 4.41135 34.7261C4.30998 34.6247 4.25303 34.4872 4.25303 34.3438V31.5552C4.25331 31.2456 4.3764 30.9487 4.59528 30.7297C4.81417 30.5107 5.11098 30.3875 5.4206 30.3871H11.1725C11.4821 30.3875 11.7789 30.5107 11.9978 30.7297C12.2167 30.9487 12.3398 31.2456 12.3401 31.5552V34.3438C12.3401 34.4872 12.2831 34.6247 12.1817 34.7261C12.0804 34.8274 11.9429 34.8844 11.7995 34.8844ZM5.33411 33.8033H11.259V31.5552C11.259 31.5322 11.2499 31.5102 11.2337 31.4938C11.2175 31.4775 11.1955 31.4683 11.1725 31.4682H5.4206C5.39761 31.4683 5.37561 31.4775 5.35941 31.4938C5.3432 31.5102 5.33411 31.5322 5.33411 31.5552V33.8033Z" fill="#D8AE75"/>
<path d="M38.3783 38.9188H1.62156C1.4782 38.9188 1.34072 38.8618 1.23934 38.7605C1.13797 38.6591 1.08102 38.5216 1.08102 38.3782V34.3436C1.08102 34.2003 1.13797 34.0628 1.23934 33.9614C1.34072 33.86 1.4782 33.8031 1.62156 33.8031H38.3783C38.5217 33.8031 38.6592 33.86 38.7605 33.9614C38.8619 34.0628 38.9189 34.2003 38.9189 34.3436V38.3782C38.9189 38.5216 38.8619 38.6591 38.7605 38.7605C38.6592 38.8618 38.5217 38.9188 38.3783 38.9188ZM2.16211 37.8377H37.8378V34.8842H2.16211V37.8377Z" fill="#D8AE75"/>
</svg>
