<svg width="40" height="40" viewBox="0 0 40 40" fill="none" xmlns="http://www.w3.org/2000/svg">
<path d="M22.494 38.9324H1.62156C1.4782 38.9324 1.34072 38.8755 1.23934 38.7741C1.13797 38.6727 1.08102 38.5352 1.08102 38.3919V35.9367C1.08174 35.3052 1.33295 34.6997 1.77953 34.2531C2.22612 33.8065 2.83162 33.5553 3.46319 33.5546H20.6524C21.2839 33.5553 21.8894 33.8065 22.336 34.2531C22.7826 34.6997 23.0338 35.3052 23.0345 35.9367V38.3919C23.0345 38.5352 22.9776 38.6727 22.8762 38.7741C22.7748 38.8755 22.6374 38.9324 22.494 38.9324ZM2.16211 37.8513H21.9535V35.9367C21.953 35.5918 21.8158 35.2611 21.5719 35.0172C21.328 34.7733 20.9973 34.6361 20.6524 34.6356H3.46319C3.11825 34.6361 2.78756 34.7733 2.54366 35.0172C2.29975 35.2611 2.16253 35.5918 2.16211 35.9367V37.8513Z" fill="#D8AE75"/>
<path d="M19.0989 34.6358H5.01729C4.87393 34.6358 4.73644 34.5788 4.63507 34.4775C4.5337 34.3761 4.47675 34.2386 4.47675 34.0952V32.6628C4.47746 32.0312 4.72867 31.4257 5.17525 30.9791C5.62184 30.5326 6.22734 30.2814 6.85891 30.2806H17.2567C17.8883 30.2814 18.4938 30.5326 18.9404 30.9791C19.387 31.4257 19.6382 32.0312 19.6389 32.6628V34.0952C19.6389 34.2385 19.582 34.3759 19.4808 34.4773C19.3795 34.5786 19.2422 34.6356 19.0989 34.6358ZM5.55783 33.5547H18.5584V32.6628C18.5579 32.3179 18.4207 31.9872 18.1768 31.7433C17.9329 31.4994 17.6022 31.3622 17.2573 31.3617H6.85891C6.51397 31.3622 6.18329 31.4994 5.93938 31.7433C5.69547 31.9872 5.55826 32.3179 5.55783 32.6628V33.5547Z" fill="#D8AE75"/>
<path d="M18.6887 23.1827C18.5453 23.1827 18.4078 23.1257 18.3065 23.0243L11.3351 16.0541C11.2338 15.9527 11.1769 15.8152 11.1769 15.6719C11.1769 15.5286 11.2338 15.3911 11.3351 15.2897L21.2049 5.41892C21.3082 5.32126 21.4449 5.26685 21.587 5.26685C21.7292 5.26685 21.8659 5.32126 21.9692 5.41892L28.9422 12.3919C29.0435 12.4933 29.1004 12.6307 29.1004 12.7741C29.1004 12.9174 29.0435 13.0549 28.9422 13.1562L19.0708 23.0243C18.9695 23.1257 18.832 23.1827 18.6887 23.1827ZM12.4816 15.6692L18.6887 21.8779L27.7935 12.7724L21.587 6.56541L12.4816 15.6692Z" fill="#D8AE75"/>
<path d="M30.3244 14.7913C30.1618 14.7917 30.0007 14.7598 29.8504 14.6977C29.7001 14.6355 29.5636 14.5443 29.4487 14.4292L19.9304 4.90864C19.8153 4.79368 19.724 4.65717 19.6617 4.50692C19.5995 4.35667 19.5674 4.19561 19.5674 4.03296C19.5674 3.87031 19.5995 3.70926 19.6617 3.55901C19.724 3.40875 19.8153 3.27225 19.9304 3.15729L21.6601 1.42756C21.8924 1.19574 22.2073 1.06555 22.5355 1.06555C22.8637 1.06555 23.1785 1.19574 23.4109 1.42756L32.9293 10.9508C33.1613 11.1832 33.2916 11.4981 33.2916 11.8265C33.2916 12.1548 33.1613 12.4698 32.9293 12.7022L31.1995 14.4319C31.0845 14.5464 30.948 14.6371 30.7978 14.6988C30.6476 14.7605 30.4868 14.7919 30.3244 14.7913ZM22.5331 2.14864C22.5124 2.14858 22.4919 2.1526 22.4728 2.16049C22.4537 2.16837 22.4363 2.17996 22.4217 2.19458L20.692 3.92431C20.6626 3.9538 20.6461 3.99375 20.6461 4.03539C20.6461 4.07704 20.6626 4.11699 20.692 4.14648L30.2163 13.6649C30.2459 13.6943 30.2859 13.7108 30.3277 13.7108C30.3694 13.7108 30.4094 13.6943 30.439 13.6649L32.1687 11.9351C32.1982 11.9055 32.2147 11.8655 32.2147 11.8238C32.2147 11.782 32.1982 11.742 32.1687 11.7124L22.6444 2.19458C22.6298 2.17999 22.6124 2.16841 22.5933 2.16053C22.5742 2.15265 22.5537 2.14861 22.5331 2.14864Z" fill="#D8AE75"/>
<path d="M17.7426 27.3752C17.58 27.3755 17.4189 27.3437 17.2686 27.2815C17.1184 27.2194 16.9819 27.1281 16.867 27.013L7.34641 17.492C7.23134 17.377 7.14007 17.2405 7.07779 17.0902C7.01551 16.94 6.98346 16.7789 6.98346 16.6163C6.98346 16.4536 7.01551 16.2926 7.07779 16.1423C7.14007 15.9921 7.23134 15.8556 7.34641 15.7406L9.07614 14.0109C9.31198 13.7855 9.62562 13.6598 9.95181 13.6598C10.278 13.6598 10.5916 13.7855 10.8275 14.0109L20.3459 23.5347C20.5776 23.7671 20.7077 24.0819 20.7077 24.4101C20.7077 24.7382 20.5776 25.053 20.3459 25.2855L18.6161 27.0152C18.5013 27.1296 18.3651 27.2203 18.2152 27.2821C18.0653 27.3439 17.9047 27.3755 17.7426 27.3752ZM9.94911 14.732C9.92851 14.7318 9.90808 14.7358 9.88905 14.7437C9.87002 14.7516 9.85276 14.7632 9.8383 14.7779L8.10857 16.5076C8.07916 16.5371 8.06264 16.5771 8.06264 16.6187C8.06264 16.6604 8.07916 16.7003 8.10857 16.7298L17.6313 26.2487C17.6609 26.2782 17.7009 26.2947 17.7426 26.2947C17.7844 26.2947 17.8244 26.2782 17.854 26.2487L19.5837 24.519C19.6132 24.4894 19.6297 24.4494 19.6297 24.4076C19.6297 24.3659 19.6132 24.3259 19.5837 24.2963L10.0605 14.7779C10.0459 14.7632 10.0286 14.7516 10.0094 14.7437C9.99031 14.7358 9.9698 14.7318 9.94911 14.732Z" fill="#D8AE75"/>
<path d="M36.4232 33.0017C36.0955 33.0024 35.7708 32.9383 35.4679 32.8131C35.1651 32.6878 34.8899 32.5039 34.6584 32.272L21.8584 19.472C21.757 19.3706 21.7001 19.2332 21.7001 19.0898C21.7001 18.9465 21.757 18.809 21.8584 18.7077L24.6238 15.9428C24.7251 15.8415 24.8626 15.7845 25.0059 15.7845C25.1493 15.7845 25.2867 15.8415 25.3881 15.9428L38.1876 28.7423C38.5368 29.0912 38.7747 29.5358 38.8711 30.02C38.9675 30.5041 38.9181 31.006 38.7291 31.462C38.5402 31.9181 38.2201 32.3078 37.8096 32.5819C37.399 32.856 36.9163 33.0021 36.4227 33.0017H36.4232ZM23.0054 19.0898L35.4227 31.5077C35.5529 31.644 35.709 31.753 35.8819 31.8282C36.0548 31.9034 36.241 31.9432 36.4295 31.9454C36.618 31.9476 36.8051 31.9121 36.9797 31.8409C37.1543 31.7698 37.3129 31.6645 37.4462 31.5312C37.5795 31.3979 37.6848 31.2392 37.7559 31.0646C37.8271 30.89 37.8626 30.703 37.8604 30.5145C37.8582 30.326 37.8184 30.1398 37.7432 29.9669C37.668 29.794 37.5591 29.6379 37.4227 29.5077L25.0059 17.0893L23.0054 19.0898Z" fill="#D8AE75"/>
</svg>
