<svg width="60" height="60" viewBox="0 0 60 60" fill="none" xmlns="http://www.w3.org/2000/svg">
<path d="M12.6562 60C9.55399 60 7.03125 57.4773 7.03125 54.375C7.03125 51.2727 9.55399 48.75 12.6562 48.75C13.1749 48.75 13.5938 49.1689 13.5938 49.6875C13.5938 50.2061 13.1749 50.625 12.6562 50.625C10.5881 50.625 8.90625 52.3068 8.90625 54.375C8.90625 56.4432 10.5881 58.125 12.6562 58.125C13.1749 58.125 13.5938 58.5439 13.5938 59.0625C13.5938 59.5811 13.1749 60 12.6562 60Z" fill="#D8AE75"/>
<path d="M52.0312 50.625H12.6562C12.1376 50.625 11.7188 50.2061 11.7188 49.6875C11.7188 49.1689 12.1376 48.75 12.6562 48.75H52.0312C52.5499 48.75 52.9688 49.1689 52.9688 49.6875C52.9688 50.2061 52.5499 50.625 52.0312 50.625Z" fill="#D8AE75"/>
<path d="M52.0312 60H12.6562C12.1376 60 11.7188 59.5811 11.7188 59.0625C11.7188 58.5439 12.1376 58.125 12.6562 58.125H52.0312C52.5499 58.125 52.9688 58.5439 52.9688 59.0625C52.9688 59.5811 52.5499 60 52.0312 60Z" fill="#D8AE75"/>
<path d="M7.96875 6.5625C7.4501 6.5625 7.03125 6.14227 7.03125 5.625C7.03125 2.52274 9.55399 0 12.6562 0C13.1749 0 13.5938 0.420227 13.5938 0.9375C13.5938 1.45477 13.1749 1.875 12.6562 1.875C10.5881 1.875 8.90625 3.55682 8.90625 5.625C8.90625 6.14227 8.4874 6.5625 7.96875 6.5625Z" fill="#D8AE75"/>
<path d="M7.96875 55.3125C7.4501 55.3125 7.03125 54.8936 7.03125 54.375V5.625C7.03125 5.10773 7.4501 4.6875 7.96875 4.6875C8.4874 4.6875 8.90625 5.10773 8.90625 5.625V54.375C8.90625 54.8936 8.4874 55.3125 7.96875 55.3125Z" fill="#D8AE75"/>
<path d="M52.0312 1.875H12.6562C12.1376 1.875 11.7188 1.45477 11.7188 0.9375C11.7188 0.420227 12.1376 0 12.6562 0H52.0312C52.5499 0 52.9688 0.420227 52.9688 0.9375C52.9688 1.45477 52.5499 1.875 52.0312 1.875Z" fill="#D8AE75"/>
<path d="M52.0312 50.625C51.5126 50.625 51.0938 50.2061 51.0938 49.6875V0.9375C51.0938 0.420227 51.5126 0 52.0312 0C52.5499 0 52.9688 0.420227 52.9688 0.9375V49.6875C52.9688 50.2061 52.5499 50.625 52.0312 50.625Z" fill="#D8AE75"/>
<path d="M52.0312 60C51.5126 60 51.0938 59.5811 51.0938 59.0625V49.6875C51.0938 49.1689 51.5126 48.75 52.0312 48.75C52.5499 48.75 52.9688 49.1689 52.9688 49.6875V59.0625C52.9688 59.5811 52.5499 60 52.0312 60Z" fill="#D8AE75"/>
<path d="M14.5312 50.625C14.0126 50.625 13.5938 50.2061 13.5938 49.6875V0.9375C13.5938 0.420227 14.0126 0 14.5312 0C15.0499 0 15.4688 0.420227 15.4688 0.9375V49.6875C15.4688 50.2061 15.0499 50.625 14.5312 50.625Z" fill="#D8AE75"/>
<path d="M48.2812 55.3143H12.6562C12.1376 55.3143 11.7188 54.8955 11.7188 54.3768C11.7188 53.8586 12.1376 53.4393 12.6562 53.4393H48.2812C48.7999 53.4393 49.2188 53.8586 49.2188 54.3768C49.2188 54.8955 48.7999 55.3143 48.2812 55.3143Z" fill="#D8AE75"/>
<path d="M48.2812 60C47.7626 60 47.3438 59.5811 47.3438 59.0625V49.6875C47.3438 49.1689 47.7626 48.75 48.2812 48.75C48.7999 48.75 49.2188 49.1689 49.2188 49.6875V59.0625C49.2188 59.5811 48.7999 60 48.2812 60Z" fill="#D8AE75"/>
<path d="M44.5499 40.3276H22.0426C21.5239 40.3276 21.1051 39.9083 21.1051 39.3901C21.1051 38.8715 21.5239 38.4526 22.0426 38.4526H44.5499C45.0685 38.4526 45.4874 38.8715 45.4874 39.3901C45.4874 39.9083 45.0672 40.3276 44.5499 40.3276Z" fill="#D8AE75"/>
<path d="M38.9251 43.1392H27.6696C27.151 43.1392 26.7321 42.7199 26.7321 42.2017C26.7321 41.683 27.151 41.2642 27.6696 41.2642H38.9251C39.4438 41.2642 39.8626 41.683 39.8626 42.2017C39.8626 42.7199 39.4424 43.1392 38.9251 43.1392Z" fill="#D8AE75"/>
<path d="M41.732 13.1392H24.8588C24.3402 13.1392 23.9213 12.719 23.9213 12.2017C23.9213 11.684 24.3402 11.2642 24.8588 11.2642H41.732C42.2502 11.2642 42.6695 11.684 42.6695 12.2017C42.6695 12.719 42.2493 13.1392 41.732 13.1392Z" fill="#D8AE75"/>
<path d="M33.2963 31.8919C32.7777 31.8919 32.3588 31.4726 32.3588 30.9544V9.38919C32.3588 8.87146 32.7777 8.45169 33.2963 8.45169C33.8145 8.45169 34.2338 8.87146 34.2338 9.38919V30.9544C34.2338 31.4717 33.8136 31.8919 33.2963 31.8919Z" fill="#D8AE75"/>
<path d="M40.7963 31.8919H25.7963C25.2777 31.8919 24.8588 31.4726 24.8588 30.9544C24.8588 30.4367 25.2777 30.0169 25.7963 30.0169H40.7963C41.3145 30.0169 41.7338 30.4367 41.7338 30.9544C41.7338 31.4717 41.3136 31.8919 40.7963 31.8919Z" fill="#D8AE75"/>
<path d="M24.8588 24.3901C22.7906 24.3901 21.1088 22.7083 21.1088 20.6401C21.1088 20.1224 21.5277 19.7026 22.0463 19.7026C22.5645 19.7026 22.9838 20.1224 22.9838 20.6401C22.9838 21.6742 23.8247 22.5151 24.8588 22.5151C25.8929 22.5151 26.7338 21.6742 26.7338 20.6401C26.7338 20.1224 27.1527 19.7026 27.6713 19.7026C28.1895 19.7026 28.6088 20.1224 28.6088 20.6401C28.6088 22.7074 26.927 24.3901 24.8588 24.3901Z" fill="#D8AE75"/>
<path d="M27.6713 21.5776H22.0463C21.5277 21.5776 21.1088 21.1574 21.1088 20.6401C21.1088 20.1224 21.5277 19.7026 22.0463 19.7026H27.6713C28.1895 19.7026 28.6088 20.1224 28.6088 20.6401C28.6088 21.1574 28.1886 21.5776 27.6713 21.5776Z" fill="#D8AE75"/>
<path d="M22.0465 21.5776C21.949 21.5776 21.8487 21.5616 21.7503 21.5286C21.2596 21.3648 20.9936 20.8342 21.1575 20.343L23.97 11.9046C24.1343 11.4139 24.6603 11.1452 25.1561 11.3118C25.6463 11.4761 25.9127 12.0067 25.7484 12.4979L22.9359 20.9363C22.8041 21.329 22.4392 21.5776 22.0465 21.5776Z" fill="#D8AE75"/>
<path d="M27.6714 21.5776C27.2787 21.5776 26.9129 21.329 26.7825 20.9363L23.97 12.4979C23.8061 12.0067 24.0711 11.4761 24.5628 11.3118C25.0576 11.1461 25.5845 11.4139 25.7484 11.9046L28.5609 20.343C28.7252 20.8342 28.4597 21.3647 27.9685 21.5286C27.8692 21.5625 27.7689 21.5776 27.6714 21.5776Z" fill="#D8AE75"/>
<path d="M41.7321 24.3901C39.6639 24.3901 37.9821 22.7083 37.9821 20.6401C37.9821 20.1224 38.401 19.7026 38.9196 19.7026C39.4378 19.7026 39.8571 20.1224 39.8571 20.6401C39.8571 21.6742 40.698 22.5151 41.7321 22.5151C42.7662 22.5151 43.6071 21.6742 43.6071 20.6401C43.6071 20.1224 44.026 19.7026 44.5446 19.7026C45.0628 19.7026 45.4821 20.1224 45.4821 20.6401C45.4821 22.7074 43.8003 24.3901 41.7321 24.3901Z" fill="#D8AE75"/>
<path d="M44.5446 21.5776H38.9196C38.401 21.5776 37.9821 21.1574 37.9821 20.6401C37.9821 20.1224 38.401 19.7026 38.9196 19.7026H44.5446C45.0628 19.7026 45.4821 20.1224 45.4821 20.6401C45.4821 21.1574 45.0619 21.5776 44.5446 21.5776Z" fill="#D8AE75"/>
<path d="M38.9194 21.5776C38.8219 21.5776 38.7217 21.5616 38.6232 21.5286C38.1325 21.3648 37.8666 20.8342 38.0304 20.343L40.8429 11.9046C41.0073 11.4139 41.5328 11.1452 42.029 11.3118C42.5193 11.4761 42.7857 12.0067 42.6214 12.4979L39.8089 20.9363C39.6766 21.329 39.3122 21.5776 38.9194 21.5776Z" fill="#D8AE75"/>
<path d="M44.5444 21.5776C44.1516 21.5776 43.7858 21.329 43.6554 20.9363L40.8429 12.4979C40.679 12.0067 40.944 11.4761 41.4357 11.3118C41.9296 11.1461 42.4583 11.4139 42.6213 11.9046L45.4338 20.343C45.5981 20.8342 45.3326 21.3647 44.8414 21.5286C44.7421 21.5625 44.6419 21.5776 44.5444 21.5776Z" fill="#D8AE75"/>
</svg>
