<svg width="60" height="60" viewBox="0 0 60 60" fill="none" xmlns="http://www.w3.org/2000/svg">
<path d="M5.65302 54.8589C5.13483 54.8589 4.71094 54.4396 4.71094 53.9214C4.71094 53.4027 5.12521 52.9839 5.64294 52.9839H5.65302C6.17075 52.9839 6.59052 53.4027 6.59052 53.9214C6.59052 54.4396 6.17075 54.8589 5.65302 54.8589Z" fill="#D8AE75"/>
<path d="M57.1893 44.9822C56.8648 44.9822 56.5498 44.8142 56.3777 44.5143C56.1177 44.0653 56.2715 43.4926 56.7188 43.234C57.5867 42.7323 58.125 41.7984 58.125 40.7964C58.125 39.2455 56.8629 37.9839 55.3125 37.9839C54.7939 37.9839 54.375 37.5646 54.375 37.0464C54.375 36.5277 54.7939 36.1089 55.3125 36.1089C57.897 36.1089 60 38.2114 60 40.7964C60 42.464 59.1028 44.0204 57.6581 44.8558C57.5102 44.9419 57.3486 44.9822 57.1893 44.9822Z" fill="#D8AE75"/>
<path d="M31.8759 58.6088C31.5422 58.6088 31.2186 58.4308 31.0492 58.1158C30.8034 57.6599 30.975 57.0909 31.4305 56.8465L56.743 43.2179C57.1966 42.9721 57.7679 43.1438 58.0124 43.5992C58.2573 44.0552 58.0865 44.6242 57.6311 44.8686L32.3186 58.4972C32.178 58.5731 32.0261 58.6088 31.8759 58.6088Z" fill="#D8AE75"/>
<path d="M31.8759 58.6089C31.8357 58.6089 31.7954 58.6061 31.7542 58.6002L10.1917 55.7877C9.67807 55.7213 9.31506 55.2507 9.38327 54.738C9.4501 54.224 9.91702 53.8564 10.4334 53.9296L31.9959 56.7421C32.5095 56.809 32.8725 57.2795 32.8043 57.7922C32.7429 58.2646 32.3401 58.6089 31.8759 58.6089Z" fill="#D8AE75"/>
<path d="M10.3125 57.6714H0.9375C0.418854 57.6714 0 57.2521 0 56.7339V31.4214C0 30.9027 0.418854 30.4839 0.9375 30.4839H10.3125C10.8311 30.4839 11.25 30.9027 11.25 31.4214V56.7339C11.25 57.2521 10.8311 57.6714 10.3125 57.6714ZM1.875 55.7964H9.375V32.3589H1.875V55.7964Z" fill="#D8AE75"/>
<path d="M36.5616 40.7963C36.1062 40.7963 35.7065 40.4645 35.6365 39.9994C35.5587 39.4876 35.9102 39.0092 36.422 38.9314L54.5316 36.1743C55.0443 36.0965 55.5217 36.448 55.5996 36.9598C55.6774 37.4721 55.3258 37.95 54.8136 38.0278L36.7031 40.7849C36.6564 40.7927 36.6083 40.7963 36.5616 40.7963Z" fill="#D8AE75"/>
<path d="M32.8125 44.5464C32.2939 44.5464 31.875 44.1271 31.875 43.6089C31.875 43.0902 32.2939 42.6714 32.8125 42.6714C34.3629 42.6714 35.625 41.4093 35.625 39.8589C35.625 38.4851 34.6463 37.3201 33.2973 37.0876C32.7873 36.9992 32.4449 36.5149 32.5333 36.0045C32.6212 35.4946 33.1078 35.1563 33.6159 35.2405C35.8667 35.6269 37.5 37.5696 37.5 39.8589C37.5 42.4434 35.397 44.5464 32.8125 44.5464Z" fill="#D8AE75"/>
<path d="M33.4575 37.1008C33.3984 37.1008 33.3375 37.0949 33.2776 37.083L18.5701 34.2151C18.062 34.1167 17.7301 33.6236 17.8294 33.1155C17.9288 32.607 18.419 32.2751 18.929 32.3749L33.6365 35.2423C34.1446 35.3407 34.4765 35.8342 34.3771 36.3423C34.2902 36.7905 33.8974 37.1008 33.4575 37.1008Z" fill="#D8AE75"/>
<path d="M18.75 34.2339H10.3125C9.79385 34.2339 9.375 33.8146 9.375 33.2964C9.375 32.7777 9.79385 32.3589 10.3125 32.3589H18.75C19.2686 32.3589 19.6875 32.7777 19.6875 33.2964C19.6875 33.8146 19.2686 34.2339 18.75 34.2339Z" fill="#D8AE75"/>
<path d="M32.4188 44.5239C32.3954 44.5239 32.3698 44.523 32.3455 44.5207L20.5526 43.6052C20.0363 43.5649 19.6499 43.1145 19.6902 42.5981C19.7305 42.0809 20.1841 41.6936 20.6973 41.7357L32.4897 42.6517C33.0065 42.692 33.3929 43.142 33.3526 43.6583C33.3142 44.1509 32.9045 44.5239 32.4188 44.5239Z" fill="#D8AE75"/>
<path d="M54.6703 38.0361C54.2212 38.0361 53.8239 37.712 53.747 37.2533C53.6614 36.7424 54.0056 36.2586 54.5165 36.1743C54.7783 36.1304 55.0452 36.1089 55.3125 36.1089C55.8312 36.1089 56.25 36.5277 56.25 37.0464C56.25 37.5646 55.8312 37.9839 55.3125 37.9839C55.1468 37.9839 54.9834 37.9976 54.8259 38.0242C54.7742 38.0333 54.722 38.0361 54.6703 38.0361Z" fill="#D8AE75"/>
<path d="M32.8125 44.5463C32.6436 44.5463 32.4779 44.5367 32.315 44.518C31.8 44.4598 31.4306 43.9952 31.4887 43.482C31.5468 42.9675 32.0014 42.5848 32.5246 42.6562C32.6203 42.6668 32.715 42.6723 32.8125 42.6723C33.3312 42.6723 33.75 43.0911 33.75 43.6098C33.75 44.1279 33.3312 44.5463 32.8125 44.5463Z" fill="#D8AE75"/>
<path d="M22.5152 34.9352C22.4776 34.9352 22.4401 34.9333 22.4026 34.9283C21.888 34.8665 21.5223 34.3996 21.5832 33.886C21.753 32.477 22.9528 31.4136 24.3751 31.4136C24.8937 31.4136 25.3126 31.8329 25.3126 32.3511C25.3126 32.8697 24.8937 33.2886 24.3751 33.2886C23.9008 33.2886 23.5003 33.6411 23.4449 34.1089C23.3867 34.5854 22.983 34.9352 22.5152 34.9352Z" fill="#D8AE75"/>
<path d="M43.1259 35.1636C42.6077 35.1636 42.1884 34.7447 42.1884 34.2261C42.1884 33.7088 41.7686 33.2886 41.2509 33.2886C40.7327 33.2886 40.3134 32.8697 40.3134 32.3511C40.3134 31.8329 40.7327 31.4136 41.2509 31.4136C42.8013 31.4136 44.0634 32.6756 44.0634 34.2261C44.0634 34.7447 43.6445 35.1636 43.1259 35.1636Z" fill="#D8AE75"/>
<path d="M43.1259 39.8643C42.6077 39.8643 42.1884 39.4455 42.1884 38.9268V34.2261C42.1884 33.7079 42.6077 33.2886 43.1259 33.2886C43.6445 33.2886 44.0634 33.7079 44.0634 34.2261V38.9268C44.0634 39.4446 43.6445 39.8643 43.1259 39.8643Z" fill="#D8AE75"/>
<path d="M41.2509 33.2886H24.375C23.8564 33.2886 23.4375 32.8697 23.4375 32.3511C23.4375 31.8329 23.8564 31.4136 24.375 31.4136H41.2509C41.7696 31.4136 42.1884 31.8329 42.1884 32.3511C42.1884 32.8697 41.7696 33.2886 41.2509 33.2886Z" fill="#D8AE75"/>
<path d="M31.4071 33.2867C30.8889 33.2867 30.4696 32.8679 30.4696 32.3492V7.96875C30.4696 7.4501 30.8889 7.03125 31.4071 7.03125C31.9258 7.03125 32.3446 7.4501 32.3446 7.96875V32.3492C32.3446 32.8679 31.9258 33.2867 31.4071 33.2867Z" fill="#D8AE75"/>
<path d="M34.2188 33.2867C33.7001 33.2867 33.2812 32.8679 33.2812 32.3492V7.96875C33.2812 7.4501 33.7001 7.03125 34.2188 7.03125C34.7374 7.03125 35.1562 7.4501 35.1562 7.96875V32.3492C35.1562 32.8679 34.7374 33.2867 34.2188 33.2867Z" fill="#D8AE75"/>
<path d="M34.2188 4.6875C33.7001 4.6875 33.2812 4.26865 33.2812 3.75C33.2812 3.49228 33.0702 3.28125 32.8125 3.28125C32.5548 3.28125 32.3438 3.49228 32.3438 3.75C32.3438 4.26865 31.9249 4.6875 31.4062 4.6875C30.8876 4.6875 30.4688 4.26865 30.4688 3.75C30.4688 2.45728 31.5198 1.40625 32.8125 1.40625C34.1052 1.40625 35.1562 2.45728 35.1562 3.75C35.1562 4.26865 34.7374 4.6875 34.2188 4.6875Z" fill="#D8AE75"/>
<path d="M46.4213 8.90625C45.9027 8.90625 45.4838 8.4874 45.4838 7.96875C45.4838 7.4501 45.9027 7.03125 46.4213 7.03125C46.679 7.03125 46.8901 6.82022 46.8901 6.5625C46.8901 6.30478 46.679 6.09375 46.4213 6.09375C45.9027 6.09375 45.4838 5.6749 45.4838 5.15625C45.4838 4.6376 45.9027 4.21875 46.4213 4.21875C47.7141 4.21875 48.7651 5.26978 48.7651 6.5625C48.7651 7.85522 47.7141 8.90625 46.4213 8.90625Z" fill="#D8AE75"/>
<path d="M19.2311 8.90625C17.9379 8.90625 16.8874 7.85522 16.8874 6.5625C16.8874 5.26978 17.9379 4.21875 19.2311 4.21875C19.7493 4.21875 20.1686 4.6376 20.1686 5.15625C20.1686 5.6749 19.7493 6.09375 19.2311 6.09375C18.9729 6.09375 18.7624 6.30478 18.7624 6.5625C18.7624 6.82022 18.9729 7.03125 19.2311 7.03125C19.7493 7.03125 20.1686 7.4501 20.1686 7.96875C20.1686 8.4874 19.7484 8.90625 19.2311 8.90625Z" fill="#D8AE75"/>
<path d="M46.4214 6.09558H19.2939C18.7752 6.09558 18.3564 5.67673 18.3564 5.15808C18.3564 4.63989 18.7752 4.22058 19.2939 4.22058H46.4214C46.9396 4.22058 47.3589 4.63989 47.3589 5.15808C47.3589 5.67673 46.9387 6.09558 46.4214 6.09558Z" fill="#D8AE75"/>
<path d="M46.4214 8.90625H19.2939C18.7752 8.90625 18.3564 8.4874 18.3564 7.96875C18.3564 7.4501 18.7752 7.03125 19.2939 7.03125H46.4214C46.9396 7.03125 47.3589 7.4501 47.3589 7.96875C47.3589 8.4874 46.9387 8.90625 46.4214 8.90625Z" fill="#D8AE75"/>
<path d="M31.4062 6.09558C30.8876 6.09558 30.4688 5.67673 30.4688 5.15808V3.75C30.4688 3.23135 30.8876 2.8125 31.4062 2.8125C31.9249 2.8125 32.3438 3.23135 32.3438 3.75V5.15808C32.3438 5.67673 31.9249 6.09558 31.4062 6.09558Z" fill="#D8AE75"/>
<path d="M34.2188 6.09375C33.7001 6.09375 33.2812 5.6749 33.2812 5.15625V3.75C33.2812 3.23135 33.7001 2.8125 34.2188 2.8125C34.7374 2.8125 35.1562 3.23135 35.1562 3.75V5.15625C35.1562 5.6749 34.7374 6.09375 34.2188 6.09375Z" fill="#D8AE75"/>
<path d="M19.7008 26.7242C16.5985 26.7242 14.0749 24.2015 14.0749 21.0992C14.0749 20.5811 14.4937 20.1617 15.0124 20.1617C15.5305 20.1617 15.9499 20.5811 15.9499 21.0992C15.9499 23.1674 17.6326 24.8492 19.7008 24.8492C21.769 24.8492 23.4517 23.1674 23.4517 21.0992C23.4517 20.5811 23.8705 20.1617 24.3892 20.1617C24.9074 20.1617 25.3267 20.5811 25.3267 21.0992C25.3267 24.2015 22.8017 26.7242 19.7008 26.7242Z" fill="#D8AE75"/>
<path d="M24.3892 22.0367H15.0124C14.4937 22.0367 14.0749 21.6179 14.0749 21.0992C14.0749 20.5811 14.4937 20.1617 15.0124 20.1617H24.3892C24.9074 20.1617 25.3267 20.5811 25.3267 21.0992C25.3267 21.6179 24.9065 22.0367 24.3892 22.0367Z" fill="#D8AE75"/>
<path d="M15.0123 22.0367C14.9079 22.0367 14.8004 22.0189 14.6969 21.9814C14.2085 21.8074 13.9544 21.2709 14.1297 20.7843L18.8195 7.65381C18.9926 7.16538 19.529 6.90766 20.0166 7.08664C20.505 7.26105 20.7591 7.79709 20.5837 8.28369L15.8944 21.4142C15.7584 21.7978 15.3973 22.0367 15.0123 22.0367Z" fill="#D8AE75"/>
<path d="M24.3891 22.0367C24.0037 22.0367 23.643 21.7978 23.507 21.4142L18.8195 8.28369C18.6442 7.79617 18.8992 7.26013 19.3867 7.08664C19.871 6.90948 20.4102 7.16629 20.5837 7.65381L25.2712 20.7843C25.4466 21.2718 25.1916 21.8083 24.7041 21.9814C24.6001 22.0189 24.493 22.0367 24.3891 22.0367Z" fill="#D8AE75"/>
<path d="M45.976 27.6768C42.8665 27.6768 40.3359 25.1477 40.3359 22.0367C40.3359 21.5186 40.7552 21.0992 41.2734 21.0992C41.7921 21.0992 42.2109 21.5186 42.2109 22.0367C42.2109 24.1127 43.9005 25.8018 45.976 25.8018C48.0515 25.8018 49.7411 24.1127 49.7411 22.0367C49.7411 21.5186 50.16 21.0992 50.6786 21.0992C51.1968 21.0992 51.6161 21.5186 51.6161 22.0367C51.6161 25.1468 49.0856 27.6768 45.976 27.6768Z" fill="#D8AE75"/>
<path d="M50.6643 22.9742H41.2875C40.7688 22.9742 40.35 22.5554 40.35 22.0367C40.35 21.5186 40.7688 21.0992 41.2875 21.0992H50.6643C51.183 21.0992 51.6018 21.5186 51.6018 22.0367C51.6018 22.5554 51.183 22.9742 50.6643 22.9742Z" fill="#D8AE75"/>
<path d="M41.2875 22.9742C41.19 22.9742 41.0898 22.9582 40.9913 22.9257C40.5011 22.7623 40.2347 22.2317 40.3985 21.7396L45.0883 7.67165C45.2522 7.18138 45.7773 6.91497 46.2739 7.07885C46.7642 7.24227 47.0306 7.77282 46.8667 8.26491L42.1769 22.3329C42.046 22.7261 41.6803 22.9742 41.2875 22.9742Z" fill="#D8AE75"/>
<path d="M50.6643 22.9743C50.2716 22.9743 49.9058 22.7262 49.7758 22.3329L45.0883 8.26494C44.924 7.77376 45.1895 7.24229 45.6806 7.07887C46.1764 6.91499 46.7024 7.1805 46.8667 7.67168L51.5542 21.7397C51.7181 22.2309 51.4526 22.7623 50.9614 22.9257C50.8621 22.9582 50.7618 22.9743 50.6643 22.9743Z" fill="#D8AE75"/>
</svg>
