<svg width="60" height="60" viewBox="0 0 60 60" fill="none" xmlns="http://www.w3.org/2000/svg">
<path d="M17.4674 45.7174C17.1482 45.7174 16.8377 45.5553 16.6624 45.2627L12.6845 38.6382C12.418 38.1935 12.5614 37.6175 13.006 37.3514C13.4515 37.084 14.0262 37.2287 14.2927 37.6729L18.271 44.2974C18.537 44.7421 18.3937 45.3181 17.9491 45.5842C17.798 45.6744 17.6313 45.7174 17.4674 45.7174Z" fill="#D8AE75"/>
<path d="M30.0617 31.7966C29.9078 31.7966 29.7512 31.7595 29.6079 31.6785L23.6418 28.3637C23.1885 28.1114 23.0255 27.5413 23.2769 27.0893C23.5283 26.6369 24.1002 26.4721 24.5512 26.7244L30.5173 30.0396C30.9706 30.2915 31.1337 30.862 30.8823 31.314C30.7105 31.6226 30.3918 31.7966 30.0617 31.7966Z" fill="#D8AE75"/>
<path d="M12.1615 40.4181C11.9216 40.4181 11.6812 40.326 11.4984 40.1433C11.1317 39.7765 11.1317 39.184 11.4984 38.8172L24.7608 25.5521C25.1276 25.1853 25.7201 25.1853 26.0869 25.5521C26.4532 25.9189 26.4532 26.5114 26.0869 26.8782L12.8245 40.1433C12.6418 40.3269 12.4014 40.4181 12.1615 40.4181Z" fill="#D8AE75"/>
<path d="M25.4235 27.1538C25.1831 27.1538 24.9432 27.0618 24.7605 26.8791L22.7658 24.8844C22.399 24.5177 22.399 23.9251 22.7658 23.5584C23.1322 23.1916 23.7251 23.1916 24.0919 23.5584L26.0866 25.553C26.4529 25.9198 26.4529 26.5123 26.0866 26.8791C25.9025 27.0618 25.6635 27.1538 25.4235 27.1538Z" fill="#D8AE75"/>
<path d="M12.1613 40.418C11.9214 40.418 11.681 40.326 11.4983 40.1433L9.50363 38.1464C9.13684 37.78 9.13684 37.1861 9.50363 36.8207C9.87041 36.4539 10.4629 36.4539 10.8297 36.8207L12.8244 38.8172C13.1911 39.184 13.1911 39.7774 12.8244 40.1433C12.6417 40.3269 12.4013 40.418 12.1613 40.418Z" fill="#D8AE75"/>
<path d="M43.3187 45.0599C43.1648 45.0599 43.0082 45.0223 42.8635 44.9417C42.4115 44.6894 42.2485 44.1193 42.4999 43.6665L45.8138 37.705C46.0652 37.2539 46.6344 37.0886 47.0895 37.3409C47.5415 37.5932 47.7045 38.1633 47.4531 38.6167L44.1392 44.5781C43.9675 44.8854 43.6479 45.0599 43.3187 45.0599Z" fill="#D8AE75"/>
<path d="M30.7241 31.1395C30.3798 31.1395 30.0487 30.9499 29.8839 30.6207C29.6522 30.1577 29.8399 29.594 30.3033 29.3623L35.6045 26.7101C36.067 26.4793 36.6311 26.6662 36.8628 27.1296C37.0945 27.5925 36.9073 28.1562 36.4438 28.3879L31.1422 31.0401C31.0085 31.1074 30.8647 31.1395 30.7241 31.1395Z" fill="#D8AE75"/>
<path d="M47.9597 40.4236C47.7197 40.4236 47.4798 40.3315 47.2966 40.1488L34.0356 26.8865C33.6689 26.5197 33.6689 25.9272 34.0356 25.5604C34.402 25.194 34.995 25.194 35.3613 25.5604L48.6227 38.8227C48.9895 39.1895 48.9895 39.7821 48.6227 40.1488C48.44 40.3325 48.2001 40.4236 47.9597 40.4236Z" fill="#D8AE75"/>
<path d="M34.6982 27.1612C34.4583 27.1612 34.2183 27.0696 34.0356 26.8864C33.6689 26.5196 33.6689 25.9271 34.0356 25.5603L36.0294 23.5657C36.3957 23.1989 36.9887 23.1989 37.355 23.5657C37.7218 23.9325 37.7218 24.525 37.355 24.8918L35.3613 26.8864C35.1786 27.0696 34.9386 27.1612 34.6982 27.1612Z" fill="#D8AE75"/>
<path d="M47.9597 40.4236C47.7198 40.4236 47.4798 40.3316 47.2966 40.1489C46.9303 39.7821 46.9303 39.1895 47.2966 38.8228L49.2922 36.8263C49.659 36.4595 50.252 36.4595 50.6183 36.8263C50.9851 37.1931 50.9851 37.7856 50.6183 38.1524L48.6227 40.1489C48.44 40.3325 48.2001 40.4236 47.9597 40.4236Z" fill="#D8AE75"/>
<path d="M24.7596 37.0992C24.5192 37.0992 24.2792 37.0071 24.0965 36.8244C23.7297 36.4576 23.7297 35.8642 24.0965 35.4983L30.0653 29.535C30.4321 29.1682 31.0246 29.1682 31.3914 29.535C31.7582 29.9013 31.7582 30.4952 31.3914 30.8611L25.4226 36.8244C25.2385 37.008 24.9995 37.0992 24.7596 37.0992Z" fill="#D8AE75"/>
<path d="M27.7456 40.75C27.5052 40.75 27.2653 40.658 27.0826 40.4753C26.7158 40.1085 26.7158 39.516 27.0826 39.1492L31.3915 34.8389C31.7583 34.4721 32.3508 34.4721 32.7176 34.8389C33.0844 35.2057 33.0844 35.7982 32.7176 36.165L28.4087 40.4753C28.2255 40.658 27.9856 40.75 27.7456 40.75Z" fill="#D8AE75"/>
<path d="M34.7079 36.4398C34.4679 36.4398 34.2266 36.3478 34.0439 36.1651C33.8676 35.9878 33.6323 35.8894 33.3818 35.8894C33.1304 35.8894 32.895 35.9869 32.7178 36.1651C32.351 36.5318 31.7585 36.5318 31.3917 36.1651C31.0249 35.7983 31.0249 35.2057 31.3917 34.839C31.9224 34.3082 32.6299 34.0147 33.3809 34.0138H33.3818C34.1341 34.0138 34.8402 34.3073 35.3719 34.839C35.7377 35.2067 35.7377 35.7992 35.3709 36.166C35.1882 36.3487 34.9478 36.4398 34.7079 36.4398Z" fill="#D8AE75"/>
<path d="M43.3251 45.0562C43.0851 45.0562 42.8447 44.9641 42.662 44.7814L34.0456 36.165C33.6788 35.7982 33.6788 35.2057 34.0456 34.8389C34.4124 34.4721 35.0049 34.4721 35.3717 34.8389L43.9881 43.4553C44.3549 43.8221 44.3549 44.4147 43.9881 44.7814C43.8045 44.9641 43.5641 45.0562 43.3251 45.0562Z" fill="#D8AE75"/>
<path d="M26.0887 41.4337C25.2484 41.4337 24.4082 41.1137 23.7676 40.4753C22.4886 39.1959 22.4886 37.1134 23.7676 35.834C24.1344 35.4672 24.7269 35.4672 25.0937 35.834C25.4605 36.2008 25.4605 36.7933 25.0937 37.1601C24.5451 37.7087 24.5451 38.6007 25.0937 39.1492C25.6422 39.6978 26.5352 39.6951 27.0837 39.1483C27.4501 38.7834 28.0431 38.7815 28.4098 39.1501C28.7752 39.5169 28.7752 40.1095 28.4075 40.4762C27.7692 41.1146 26.9281 41.4337 26.0887 41.4337Z" fill="#D8AE75"/>
<path d="M28.7366 59.9991C28.7357 59.9991 28.7357 59.9991 28.7366 59.9991C27.8598 59.9991 27.0364 59.6589 26.4169 59.0389C25.1375 57.7576 25.1384 55.6751 26.4178 54.3975L27.0809 53.7326C28.3213 52.4931 30.4813 52.4931 31.7217 53.7345C33.0011 55.0139 33.0011 57.0946 31.7217 58.374L31.0578 59.038C30.4368 59.658 29.6135 59.9991 28.7366 59.9991ZM29.3997 54.6471C29.0256 54.6471 28.6739 54.7922 28.4074 55.0578L27.7448 55.7227C27.1949 56.2704 27.1949 57.1633 27.7439 57.7128C28.0081 57.9761 28.3607 58.1235 28.7357 58.1235H28.7366C29.1121 58.1235 29.4656 57.9774 29.7326 57.7109L30.3966 57.047C30.9442 56.5002 30.9442 55.6082 30.3966 55.0606C30.1296 54.7945 29.7761 54.6471 29.3997 54.6471Z" fill="#D8AE75"/>
<path d="M25.421 56.6838C24.5441 56.6838 23.7207 56.3427 23.1017 55.7236C21.8223 54.4447 21.8223 52.3616 23.1017 51.0809L23.7656 50.4169C25.0033 49.1787 27.166 49.1778 28.4056 50.4178C29.0256 51.0374 29.3672 51.8616 29.3672 52.7385C29.3672 53.6154 29.0256 54.4387 28.4056 55.0596L27.7425 55.7227C27.1221 56.3427 26.2974 56.6838 25.421 56.6838ZM26.0858 51.3318C25.7103 51.3318 25.3578 51.4774 25.0917 51.7426L24.4278 52.4065C23.8792 52.9551 23.8792 53.848 24.4278 54.3966C24.6929 54.6613 25.0455 54.8073 25.421 54.8073C25.7969 54.8073 26.1504 54.6613 26.4178 54.3948L27.0809 53.7317C27.346 53.4666 27.4925 53.1131 27.4925 52.7367C27.4925 52.3607 27.346 52.0081 27.0809 51.7416C26.8153 51.4756 26.4609 51.3318 26.0858 51.3318Z" fill="#D8AE75"/>
<path d="M22.1076 53.3682C21.2317 53.3682 20.4074 53.0266 19.7874 52.4066C19.1679 51.7898 18.8263 50.9655 18.8254 50.0886C18.8244 49.2108 19.1656 48.3866 19.7865 47.7648L20.4496 47.1017C21.6905 45.8608 23.8536 45.8626 25.0909 47.1017C25.7104 47.7217 26.052 48.5459 26.052 49.4228C26.052 50.2997 25.7104 51.123 25.0909 51.7435L24.4278 52.4066C23.8069 53.0266 22.9827 53.3682 22.1076 53.3682ZM22.7707 48.0161C22.3957 48.0161 22.0422 48.1622 21.7757 48.4278L21.1126 49.0908C20.8475 49.3569 20.7009 49.7104 20.7009 50.0868C20.7009 50.4627 20.8475 50.8144 21.1126 51.0795C21.6451 51.6125 22.571 51.6098 23.1017 51.0809L23.7648 50.4179C24.0299 50.1523 24.1765 49.7988 24.1765 49.4228C24.1765 49.0464 24.0299 48.6938 23.7648 48.4278C23.4992 48.1613 23.1457 48.0161 22.7707 48.0161Z" fill="#D8AE75"/>
<path d="M18.7914 50.0528C17.9136 50.0528 17.0902 49.7112 16.4707 49.0917C15.8507 48.4717 15.5082 47.6475 15.5082 46.7706C15.5082 45.8937 15.8507 45.0704 16.4707 44.4494L17.1333 43.7864C18.3733 42.5468 20.5351 42.5468 21.7746 43.7864C22.3946 44.4064 22.7367 45.2306 22.7358 46.1075C22.7358 46.9844 22.3946 47.8077 21.7746 48.4286L21.1107 49.0926C20.4925 49.7112 19.6683 50.0528 18.7914 50.0528ZM19.4553 44.7008C19.0803 44.7008 18.7268 44.8469 18.4603 45.1125L17.7972 45.7755C17.5312 46.042 17.3847 46.3946 17.3847 46.7706C17.3847 47.1465 17.5312 47.4982 17.7972 47.7656C18.3284 48.2963 19.2548 48.2963 19.7855 47.7656L20.4494 47.1016C20.715 46.837 20.8611 46.4835 20.8611 46.1075C20.8611 45.7316 20.7159 45.379 20.4494 45.1125C20.1843 44.8469 19.8304 44.7008 19.4553 44.7008Z" fill="#D8AE75"/>
<path d="M32.7129 60C31.8727 60 31.0333 59.6804 30.3945 59.0425C30.0278 58.6757 30.0278 58.0832 30.3945 57.7164C30.7613 57.3496 31.3539 57.3496 31.7206 57.7164C32.2665 58.2632 33.1585 58.2622 33.7098 57.7137C34.2574 57.166 34.2584 56.2731 33.7107 55.7245C33.528 55.5418 33.4369 55.3019 33.4369 55.0615C33.4369 54.8215 33.5298 54.5816 33.7125 54.3984C34.0793 54.0339 34.6718 54.0321 35.0386 54.4003C35.3028 54.6649 35.6545 54.811 36.03 54.811H36.0309C36.4059 54.811 36.7594 54.6649 37.0259 54.3993C37.5736 53.8498 37.5745 52.9583 37.0269 52.4106C36.8437 52.2275 36.7521 51.9875 36.7521 51.7476C36.7521 51.5072 36.8437 51.2673 37.0269 51.0846C37.3932 50.7178 37.9862 50.7178 38.353 51.0846C38.9006 51.6322 39.7922 51.6313 40.3416 51.0836C40.8893 50.536 40.8902 49.6431 40.3426 49.0954C40.1599 48.9127 40.0678 48.6723 40.0678 48.4314C40.0678 48.1915 40.1599 47.9511 40.3426 47.7693C40.7093 47.4025 41.3019 47.4025 41.6687 47.7693C42.1994 48.3 43.1243 48.2991 43.656 47.7675C44.2045 47.2189 44.2055 46.3278 43.6578 45.7802C43.291 45.4134 43.291 44.8208 43.6578 44.4541C44.0246 44.0877 44.6171 44.0877 44.9839 44.4541C46.2619 45.7325 46.261 47.8142 44.9821 49.0936C44.3621 49.7145 43.5378 50.0556 42.66 50.0556C42.6486 50.0556 42.6385 50.0556 42.6261 50.0556C42.6358 50.9073 42.3148 51.7613 41.6668 52.4106C41.0262 53.0499 40.186 53.369 39.3448 53.369C39.3338 53.369 39.3223 53.369 39.3104 53.369C39.3196 54.2203 39 55.0747 38.353 55.7245C37.732 56.3454 36.9078 56.6866 36.0309 56.6866C36.0309 56.6847 36.0085 56.6866 35.9961 56.6866C36.0034 57.5383 35.6838 58.3918 35.0359 59.0407C34.3944 59.6804 33.5532 60 32.7129 60Z" fill="#D8AE75"/>
<path d="M31.0587 59.3172C30.8187 59.3172 30.5788 59.2252 30.3956 59.0425L30.0627 58.7096C29.6959 58.3428 29.6959 57.7503 30.0627 57.3835C30.4295 57.0167 31.022 57.0167 31.3888 57.3835L31.7217 57.7164C32.0885 58.0832 32.0885 58.6757 31.7217 59.0425C31.5381 59.2252 31.2977 59.3172 31.0587 59.3172Z" fill="#D8AE75"/>
<path d="M34.3757 56.0001C34.1357 56.0001 33.8953 55.9086 33.7126 55.7254L32.7158 54.7285C32.349 54.3617 32.349 53.7692 32.7158 53.4024C33.0825 53.0361 33.6751 53.0361 34.0419 53.4024L35.0387 54.3993C35.4055 54.7661 35.4055 55.3586 35.0387 55.7254C34.8546 55.9086 34.6156 56.0001 34.3757 56.0001Z" fill="#D8AE75"/>
<path d="M37.6909 52.6845C37.4505 52.6845 37.2105 52.5925 37.0278 52.4098L36.0319 51.4129C35.6651 51.0461 35.6651 50.4522 36.0319 50.0868C36.3987 49.72 36.9912 49.72 37.358 50.0868L38.3539 51.0837C38.7202 51.45 38.7202 52.0439 38.3539 52.4098C38.1708 52.5934 37.9308 52.6845 37.6909 52.6845Z" fill="#D8AE75"/>
<path d="M41.0065 49.3674C40.7666 49.3674 40.5266 49.2754 40.3435 49.0927L39.3475 48.0986C38.9812 47.7327 38.9812 47.1392 39.3475 46.7725C39.7143 46.4057 40.3073 46.4057 40.6736 46.7725L41.6696 47.7675C42.0364 48.1334 42.0364 48.7268 41.6696 49.0936C41.4869 49.2763 41.2469 49.3674 41.0065 49.3674Z" fill="#D8AE75"/>
<path d="M44.3227 46.0521C44.0828 46.0521 43.8429 45.9601 43.6597 45.7774L42.6628 44.7805C42.296 44.4138 42.296 43.8212 42.6628 43.4544C43.0296 43.0877 43.6221 43.0877 43.9889 43.4544L44.9858 44.4513C45.3526 44.8181 45.3526 45.4106 44.9858 45.7774C44.8031 45.961 44.5627 46.0521 44.3227 46.0521Z" fill="#D8AE75"/>
<path d="M9.50921 39.0883C9.26926 39.0883 9.02932 38.9963 8.84616 38.8136L5.53137 35.5002C5.35508 35.3239 5.25663 35.0867 5.25663 34.8371C5.25663 34.5885 5.35508 34.3495 5.53137 34.1741L20.1203 19.5847C20.2966 19.4084 20.5338 19.31 20.7833 19.31C21.0329 19.31 21.271 19.4084 21.4464 19.5847L24.7607 22.9C25.1275 23.2667 25.1275 23.8593 24.7607 24.2261L10.1723 38.8136C9.98955 38.9972 9.74915 39.0883 9.50921 39.0883ZM7.52006 34.8371L9.50921 36.8244L22.7716 23.563L20.7833 21.5739L7.52006 34.8371Z" fill="#D8AE75"/>
<path d="M50.6172 39.0882C50.3773 39.0882 50.1373 38.9962 49.9542 38.8135L35.368 24.2287C35.0012 23.8619 35.0012 23.2694 35.368 22.9026L38.6819 19.5878C39.0335 19.2362 39.6563 19.2362 40.008 19.5878L54.5964 34.174C54.7727 34.3503 54.8712 34.5884 54.8712 34.837C54.8712 35.0866 54.7727 35.3247 54.5964 35.5001L51.2803 38.8135C51.0976 38.9971 50.8576 39.0882 50.6172 39.0882ZM37.3571 23.5657L50.6172 36.8253L52.6073 34.838L39.3449 21.5765L37.3571 23.5657Z" fill="#D8AE75"/>
<path d="M30.0635 20.6314C24.3758 20.6314 19.7478 16.0034 19.7478 10.3157C19.7478 4.62806 24.3758 0 30.0635 0C35.7512 0 40.3792 4.62806 40.3792 10.3157C40.3792 16.0034 35.7512 20.6314 30.0635 20.6314ZM30.0635 1.87559C25.4093 1.87559 21.6234 5.66156 21.6234 10.3157C21.6234 14.9699 25.4093 18.7559 30.0635 18.7559C34.7177 18.7559 38.5036 14.9699 38.5036 10.3157C38.5036 5.66156 34.7177 1.87559 30.0635 1.87559Z" fill="#D8AE75"/>
<path d="M33.8298 15.0038H26.3275C25.8087 15.0038 25.3897 14.5843 25.3897 14.066C25.3897 13.5472 25.8087 13.1282 26.3275 13.1282H33.8298C34.3486 13.1282 34.7676 13.5472 34.7676 14.066C34.7676 14.5843 34.3477 15.0038 33.8298 15.0038Z" fill="#D8AE75"/>
<path d="M30.0789 15.0038C29.5601 15.0038 29.1411 14.5843 29.1411 14.066V5.62677C29.1411 5.10796 29.5601 4.68898 30.0789 4.68898C30.5977 4.68898 31.0167 5.10796 31.0167 5.62677V14.066C31.0167 14.5843 30.5968 15.0038 30.0789 15.0038Z" fill="#D8AE75"/>
<path d="M33.8298 7.50233H26.3275C25.8087 7.50233 25.3897 7.08334 25.3897 6.56453C25.3897 6.04572 25.8087 5.62674 26.3275 5.62674H33.8298C34.3486 5.62674 34.7676 6.04572 34.7676 6.56453C34.7676 7.08334 34.3477 7.50233 33.8298 7.50233Z" fill="#D8AE75"/>
<path d="M34.7677 10.3157H32.8921C32.3733 10.3157 31.9544 9.89676 31.9544 9.37795C31.9544 8.85914 32.3733 8.44016 32.8921 8.44016H34.7677C35.2865 8.44016 35.7055 8.85914 35.7055 9.37795C35.7055 9.89676 35.2856 10.3157 34.7677 10.3157Z" fill="#D8AE75"/>
<path d="M27.2654 10.3157H25.3898C24.871 10.3157 24.452 9.89676 24.452 9.37795C24.452 8.85914 24.871 8.44016 25.3898 8.44016H27.2654C27.7842 8.44016 28.2032 8.85914 28.2032 9.37795C28.2032 9.89676 27.7833 10.3157 27.2654 10.3157Z" fill="#D8AE75"/>
</svg>
