<svg width="40" height="40" viewBox="0 0 40 40" fill="none" xmlns="http://www.w3.org/2000/svg">
<path d="M19.9459 37.2665H1.62156C1.4782 37.2665 1.34072 37.2095 1.23934 37.1082C1.13797 37.0068 1.08102 36.8693 1.08102 36.726V3.27406C1.08102 3.1307 1.13797 2.99321 1.23934 2.89184C1.34072 2.79047 1.4782 2.73352 1.62156 2.73352H19.9459C20.0892 2.73352 20.2267 2.79047 20.3281 2.89184C20.4295 2.99321 20.4864 3.1307 20.4864 3.27406V36.726C20.4864 36.8693 20.4295 37.0068 20.3281 37.1082C20.2267 37.2095 20.0892 37.2665 19.9459 37.2665ZM2.1621 36.1854H19.4053V3.8146H2.1621V36.1854Z" fill="#D8AE75"/>
<path d="M38.3784 37.2666H19.946C19.8026 37.2666 19.6651 37.2096 19.5638 37.1083C19.4624 37.0069 19.4054 36.8694 19.4054 36.726V19.1509C19.4054 19.0075 19.4624 18.87 19.5638 18.7687C19.6651 18.6673 19.8026 18.6104 19.946 18.6104H38.3784C38.5218 18.6104 38.6593 18.6673 38.7607 18.7687C38.862 18.87 38.919 19.0075 38.919 19.1509V36.726C38.919 36.8694 38.862 37.0069 38.7607 37.1083C38.6593 37.2096 38.5218 37.2666 38.3784 37.2666ZM20.4865 36.1855H37.8379V19.6914H20.4865V36.1855Z" fill="#D8AE75"/>
<path d="M34.6805 26.5124H30.9124C30.769 26.5124 30.6316 26.4554 30.5302 26.3541C30.4288 26.2527 30.3719 26.1152 30.3719 25.9718V22.2037C30.3719 22.0604 30.4288 21.9229 30.5302 21.8215C30.6316 21.7202 30.769 21.6632 30.9124 21.6632H34.6805C34.8239 21.6632 34.9614 21.7202 35.0627 21.8215C35.1641 21.9229 35.221 22.0604 35.221 22.2037V25.9718C35.221 26.1152 35.1641 26.2527 35.0627 26.3541C34.9614 26.4554 34.8239 26.5124 34.6805 26.5124ZM31.4529 25.4313H34.14V22.7443H31.4529V25.4313Z" fill="#D8AE75"/>
<path d="M27.413 26.5124H23.6449C23.5015 26.5124 23.364 26.4554 23.2626 26.3541C23.1613 26.2527 23.1043 26.1152 23.1043 25.9718V22.2037C23.1043 22.0604 23.1613 21.9229 23.2626 21.8215C23.364 21.7202 23.5015 21.6632 23.6449 21.6632H27.413C27.5563 21.6632 27.6938 21.7202 27.7952 21.8215C27.8966 21.9229 27.9535 22.0604 27.9535 22.2037V25.9718C27.9535 26.1152 27.8966 26.2527 27.7952 26.3541C27.6938 26.4554 27.5563 26.5124 27.413 26.5124ZM24.1854 25.4313H26.8724V22.7443H24.1854V25.4313Z" fill="#D8AE75"/>
<path d="M16.4784 11.0779H12.7108C12.5675 11.0779 12.43 11.0209 12.3286 10.9196C12.2272 10.8182 12.1703 10.6807 12.1703 10.5373V6.76869C12.1703 6.62533 12.2272 6.48784 12.3286 6.38647C12.43 6.2851 12.5675 6.22815 12.7108 6.22815H16.479C16.6223 6.22815 16.7598 6.2851 16.8612 6.38647C16.9625 6.48784 17.0195 6.62533 17.0195 6.76869V10.5373C17.0195 10.6084 17.0055 10.6787 16.9783 10.7443C16.9511 10.8099 16.9112 10.8696 16.861 10.9198C16.8107 10.97 16.7511 11.0098 16.6854 11.0369C16.6198 11.064 16.5494 11.078 16.4784 11.0779ZM13.2508 9.9968H15.9379V7.30923H13.2514L13.2508 9.9968Z" fill="#D8AE75"/>
<path d="M8.8178 11.0779H5.0497C4.90634 11.0779 4.76885 11.0209 4.66748 10.9196C4.56611 10.8182 4.50916 10.6807 4.50916 10.5373V6.76869C4.50916 6.62533 4.56611 6.48784 4.66748 6.38647C4.76885 6.2851 4.90634 6.22815 5.0497 6.22815H8.81834C8.9617 6.22815 9.09919 6.2851 9.20056 6.38647C9.30194 6.48784 9.35888 6.62533 9.35888 6.76869V10.5373C9.35888 10.6084 9.34489 10.6787 9.31769 10.7443C9.29049 10.8099 9.25063 10.8696 9.20037 10.9198C9.15012 10.97 9.09047 11.0098 9.02483 11.0369C8.95918 11.064 8.88883 11.078 8.8178 11.0779ZM5.5897 9.9968H8.27726V7.30923H5.59024L5.5897 9.9968Z" fill="#D8AE75"/>
<path d="M16.4784 18.6255H12.7108C12.5675 18.6255 12.43 18.5685 12.3286 18.4672C12.2272 18.3658 12.1703 18.2283 12.1703 18.0849V14.3163C12.1703 14.1729 12.2272 14.0354 12.3286 13.9341C12.43 13.8327 12.5675 13.7758 12.7108 13.7758H16.479C16.6223 13.7758 16.7598 13.8327 16.8612 13.9341C16.9625 14.0354 17.0195 14.1729 17.0195 14.3163V18.0849C17.0195 18.156 17.0055 18.2263 16.9783 18.2919C16.9511 18.3575 16.9112 18.4172 16.861 18.4674C16.8107 18.5176 16.7511 18.5574 16.6854 18.5845C16.6198 18.6116 16.5494 18.6256 16.4784 18.6255ZM13.2508 17.5444H15.9379V14.8568H13.2514L13.2508 17.5444Z" fill="#D8AE75"/>
<path d="M8.8178 18.6255H5.0497C4.90634 18.6255 4.76885 18.5685 4.66748 18.4672C4.56611 18.3658 4.50916 18.2283 4.50916 18.0849V14.3163C4.50916 14.1729 4.56611 14.0354 4.66748 13.9341C4.76885 13.8327 4.90634 13.7758 5.0497 13.7758H8.81834C8.9617 13.7758 9.09919 13.8327 9.20056 13.9341C9.30194 14.0354 9.35888 14.1729 9.35888 14.3163V18.0849C9.35888 18.156 9.34489 18.2263 9.31769 18.2919C9.29049 18.3575 9.25063 18.4172 9.20037 18.4674C9.15012 18.5176 9.09047 18.5574 9.02483 18.5845C8.95918 18.6116 8.88883 18.6256 8.8178 18.6255ZM5.5897 17.5444H8.27726V14.8568H5.59024L5.5897 17.5444Z" fill="#D8AE75"/>
<path d="M16.4784 26.1724H12.7108C12.5675 26.1724 12.43 26.1154 12.3286 26.0141C12.2272 25.9127 12.1703 25.7752 12.1703 25.6318V21.8632C12.1703 21.7198 12.2272 21.5823 12.3286 21.481C12.43 21.3796 12.5675 21.3226 12.7108 21.3226H16.479C16.6223 21.3226 16.7598 21.3796 16.8612 21.481C16.9625 21.5823 17.0195 21.7198 17.0195 21.8632V25.6318C17.0195 25.7029 17.0055 25.7732 16.9783 25.8388C16.9511 25.9044 16.9112 25.964 16.861 26.0142C16.8107 26.0644 16.7511 26.1042 16.6854 26.1314C16.6198 26.1585 16.5494 26.1724 16.4784 26.1724ZM13.2508 25.0913H15.9379V22.4037H13.2514L13.2508 25.0913Z" fill="#D8AE75"/>
<path d="M8.8178 26.1724H5.0497C4.90634 26.1724 4.76885 26.1154 4.66748 26.0141C4.56611 25.9127 4.50916 25.7752 4.50916 25.6318V21.8632C4.50916 21.7198 4.56611 21.5823 4.66748 21.481C4.76885 21.3796 4.90634 21.3226 5.0497 21.3226H8.81834C8.9617 21.3226 9.09919 21.3796 9.20056 21.481C9.30194 21.5823 9.35888 21.7198 9.35888 21.8632V25.6318C9.35888 25.7029 9.34489 25.7732 9.31769 25.8388C9.29049 25.9044 9.25063 25.964 9.20037 26.0142C9.15012 26.0644 9.09047 26.1042 9.02483 26.1314C8.95918 26.1585 8.88883 26.1724 8.8178 26.1724ZM5.5897 25.0913H8.27726V22.4037H5.59024L5.5897 25.0913Z" fill="#D8AE75"/>
<path d="M34.6805 34.2655H30.9124C30.769 34.2655 30.6316 34.2086 30.5302 34.1072C30.4288 34.0058 30.3719 33.8683 30.3719 33.725V29.9563C30.3719 29.813 30.4288 29.6755 30.5302 29.5741C30.6316 29.4727 30.769 29.4158 30.9124 29.4158H34.6805C34.8239 29.4158 34.9614 29.4727 35.0627 29.5741C35.1641 29.6755 35.221 29.813 35.221 29.9563V33.725C35.221 33.8683 35.1641 34.0058 35.0627 34.1072C34.9614 34.2086 34.8239 34.2655 34.6805 34.2655ZM31.4529 33.1844H34.14V30.4969H31.4529V33.1844Z" fill="#D8AE75"/>
<path d="M27.413 34.2655H23.6449C23.5015 34.2655 23.364 34.2086 23.2626 34.1072C23.1613 34.0058 23.1043 33.8683 23.1043 33.725V29.9563C23.1043 29.813 23.1613 29.6755 23.2626 29.5741C23.364 29.4727 23.5015 29.4158 23.6449 29.4158H27.413C27.5563 29.4158 27.6938 29.4727 27.7952 29.5741C27.8966 29.6755 27.9535 29.813 27.9535 29.9563V33.725C27.9535 33.8683 27.8966 34.0058 27.7952 34.1072C27.6938 34.2086 27.5563 34.2655 27.413 34.2655ZM24.1854 33.1844H26.8724V30.4969H24.1854V33.1844Z" fill="#D8AE75"/>
<path d="M14.5762 37.2666H6.99293C6.84957 37.2666 6.71208 37.2096 6.61071 37.1083C6.50933 37.0069 6.45238 36.8694 6.45238 36.726V29.1433C6.45238 29 6.50933 28.8625 6.61071 28.7611C6.71208 28.6597 6.84957 28.6028 6.99293 28.6028H14.5762C14.7195 28.6028 14.857 28.6597 14.9584 28.7611C15.0598 28.8625 15.1167 29 15.1167 29.1433V36.726C15.1167 36.8694 15.0598 37.0069 14.9584 37.1083C14.857 37.2096 14.7195 37.2666 14.5762 37.2666ZM7.53347 36.1855H14.0356V29.6839H7.53347V36.1855Z" fill="#D8AE75"/>
</svg>
