<svg width="40" height="40" viewBox="0 0 40 40" fill="none" xmlns="http://www.w3.org/2000/svg">
<path d="M21.2665 37.3049C20.913 37.3049 20.5617 37.2485 20.226 37.1379L8.57676 33.3108C7.75919 33.0452 6.89612 32.9487 6.04007 33.0272C5.18402 33.1058 4.3529 33.3577 3.5973 33.7676L1.97568 35.1779C1.89746 35.2457 1.80142 35.2896 1.69898 35.3044C1.59653 35.3192 1.49199 35.3043 1.39777 35.2614C1.30355 35.2186 1.22362 35.1495 1.16748 35.0626C1.11134 34.9756 1.08136 34.8743 1.08109 34.7708V25.8303C1.08111 25.7198 1.11501 25.6119 1.17822 25.5213C1.24143 25.4306 1.33091 25.3615 1.4346 25.3233L8.51027 22.7179C9.93556 22.1986 11.4617 22.0163 12.9692 22.1854L26.0995 23.6935C26.6661 23.7575 27.1892 24.0282 27.5688 24.4537C27.9484 24.8792 28.1577 25.4298 28.1568 26C28.1576 26.07 28.1547 26.14 28.1481 26.2098C28.1326 26.3834 28.0975 26.5548 28.0432 26.7206L35.1622 22.0357C35.6436 21.7314 36.2153 21.6025 36.7807 21.6708C37.3461 21.739 37.8707 22.0002 38.266 22.4103C38.5005 22.6614 38.679 22.9595 38.7896 23.2849C38.9002 23.6102 38.9403 23.9554 38.9072 24.2974C38.8742 24.6395 38.7688 24.9706 38.5981 25.2688C38.4273 25.567 38.1951 25.8255 37.9168 26.0271L23.2249 36.6703C22.6558 37.0839 21.97 37.3061 21.2665 37.3049ZM6.62703 31.92C7.40386 31.9195 8.17583 32.0425 8.91406 32.2843L20.5638 36.1114C20.9023 36.2229 21.2624 36.2523 21.6145 36.1972C21.9666 36.142 22.3005 36.0038 22.5887 35.7941L37.2832 25.1492C37.4382 25.0386 37.5674 24.8959 37.6621 24.7308C37.7568 24.5656 37.8147 24.382 37.8319 24.1925C37.8501 24.0027 37.8278 23.8112 37.7665 23.6307C37.7052 23.4502 37.6062 23.2848 37.4762 23.1454C37.2568 22.9178 36.9656 22.7729 36.6517 22.7353C36.3378 22.6976 36.0205 22.7696 35.7535 22.9389L23.4292 31.0471C23.3431 31.1038 23.2425 31.1347 23.1393 31.1362C23.0361 31.1376 22.9347 31.1095 22.847 31.0552L18.6849 28.4746L15.3378 28.5471C15.2666 28.5494 15.1957 28.5374 15.1292 28.5119C15.0627 28.4864 15.0019 28.4479 14.9505 28.3986C14.8991 28.3493 14.8581 28.2902 14.8298 28.2248C14.8015 28.1595 14.7866 28.0891 14.786 28.0179C14.7844 27.9469 14.7969 27.8763 14.8227 27.8101C14.8485 27.744 14.8871 27.6835 14.9362 27.6323C14.9854 27.581 15.0441 27.54 15.1091 27.5114C15.1741 27.4829 15.2442 27.4674 15.3151 27.466L18.8157 27.3903H18.8308L25.866 27.2341C26.1718 27.2267 26.4642 27.1069 26.6871 26.8974C26.9101 26.688 27.0481 26.4037 27.0746 26.0989C27.0777 26.0648 27.0787 26.0305 27.0778 25.9962C27.078 25.692 26.9661 25.3984 26.7635 25.1714C26.5609 24.9445 26.2818 24.8001 25.9795 24.766L12.8465 23.2595C11.5064 23.1089 10.1497 23.2707 8.88271 23.7325L2.16217 26.2071V33.5838L2.9319 32.9141C2.96052 32.8891 2.99168 32.8672 3.02487 32.8487C4.12769 32.2394 5.36708 31.9198 6.62703 31.92ZM20.6643 28.4325L23.1216 29.9562L25.6038 28.3243L20.6643 28.4325Z" fill="#D8AE75"/>
<path d="M26.3605 24.8372C26.2354 24.8373 26.1142 24.794 26.0175 24.7147C25.9207 24.6353 25.8545 24.5249 25.8301 24.4022C25.8057 24.2795 25.8245 24.1522 25.8835 24.0418C25.9425 23.9315 26.0379 23.8451 26.1535 23.7972L31.0686 21.7605C31.6277 21.5308 32.2463 21.489 32.8312 21.6412C33.4161 21.7935 33.9358 22.1317 34.3119 22.6048L34.613 22.9832C34.6569 23.0389 34.6895 23.1027 34.7088 23.1711C34.7281 23.2394 34.7338 23.3108 34.7255 23.3813C34.7172 23.4518 34.695 23.52 34.6604 23.5819C34.6257 23.6439 34.5792 23.6984 34.5235 23.7424C34.4678 23.7863 34.4039 23.8189 34.3356 23.8382C34.2673 23.8575 34.1959 23.8632 34.1254 23.8549C34.0549 23.8466 33.9867 23.8245 33.9248 23.7898C33.8628 23.7552 33.8083 23.7086 33.7643 23.6529L33.4638 23.2745C33.234 22.9854 32.9165 22.7788 32.5591 22.6858C32.2017 22.5928 31.8237 22.6184 31.4822 22.7589L26.567 24.7956C26.5016 24.8229 26.4314 24.837 26.3605 24.8372Z" fill="#D8AE75"/>
<path d="M23.2432 19.7654C23.1226 19.7655 23.0054 19.7251 22.9103 19.6508C22.5816 19.393 14.8535 13.2892 14.8535 8.45625C14.8535 5.2795 17.1827 2.69463 20.0454 2.69463C21.2251 2.70029 22.3621 3.1362 23.2432 3.92058C24.1244 3.13613 25.2614 2.70004 26.4411 2.69409C29.3059 2.69409 31.6335 5.27896 31.6335 8.45571C31.6335 13.2887 23.9038 19.3925 23.5762 19.6503C23.4812 19.7248 23.364 19.7653 23.2432 19.7654ZM20.0454 3.77517C17.7789 3.77517 15.9346 5.87463 15.9346 8.45571C15.9346 12.2395 21.7724 17.3103 23.2432 18.5281C24.7151 17.3103 30.5524 12.24 30.5524 8.45571C30.5524 5.87463 28.7081 3.77517 26.4411 3.77517C25.9118 3.78164 25.3895 3.89738 24.9071 4.11513C24.4246 4.33288 23.9923 4.64794 23.6373 5.04058C23.5868 5.09446 23.5257 5.13742 23.458 5.1668C23.3902 5.19618 23.3171 5.21135 23.2432 5.21139C23.1694 5.21142 23.0964 5.19633 23.0286 5.16705C22.9608 5.13776 22.8998 5.09491 22.8492 5.04112C22.4943 4.64833 22.062 4.33313 21.5795 4.11528C21.097 3.89744 20.5748 3.78164 20.0454 3.77517Z" fill="#D8AE75"/>
</svg>
