<svg width="40" height="40" viewBox="0 0 40 40" fill="none" xmlns="http://www.w3.org/2000/svg">
<path d="M27.1265 35.812H12.8735C12.7301 35.812 12.5926 35.755 12.4913 35.6536C12.3899 35.5523 12.3329 35.4148 12.3329 35.2714V33.4552C12.3335 32.858 12.571 32.2854 12.9933 31.8631C13.4156 31.4408 13.9882 31.2033 14.5854 31.2028H25.4146C26.0118 31.2033 26.5844 31.4408 27.0066 31.8631C27.4289 32.2854 27.6664 32.858 27.667 33.4552V35.272C27.6669 35.4152 27.6098 35.5526 27.5085 35.6538C27.4071 35.7551 27.2697 35.812 27.1265 35.812ZM13.4146 34.7309H26.5859V33.4552C26.5856 33.1446 26.4621 32.8468 26.2425 32.6272C26.0229 32.4076 25.7251 32.2841 25.4146 32.2838H14.5854C14.2748 32.2841 13.977 32.4076 13.7574 32.6272C13.5378 32.8468 13.4143 33.1446 13.414 33.4552L13.4146 34.7309Z" fill="#D8AE75"/>
<path d="M21.319 32.2864H18.6865C18.5432 32.2864 18.4057 32.2294 18.3043 32.128C18.2029 32.0267 18.146 31.8892 18.146 31.7458V9.7404C18.146 9.59704 18.2029 9.45955 18.3043 9.35818C18.4057 9.25681 18.5432 9.19986 18.6865 9.19986C18.8299 9.19986 18.9674 9.25681 19.0688 9.35818C19.1701 9.45955 19.2271 9.59704 19.2271 9.7404V31.2053H20.7784V9.735C20.7784 9.59164 20.8354 9.45415 20.9368 9.35278C21.0381 9.25141 21.1756 9.19446 21.319 9.19446C21.4623 9.19446 21.5998 9.25141 21.7012 9.35278C21.8026 9.45415 21.8595 9.59164 21.8595 9.735V31.7458C21.8595 31.8892 21.8026 32.0267 21.7012 32.128C21.5998 32.2294 21.4623 32.2864 21.319 32.2864Z" fill="#D8AE75"/>
<path d="M20 10.6252C19.3634 10.6252 18.7411 10.4365 18.2117 10.0828C17.6824 9.72916 17.2698 9.22649 17.0262 8.63838C16.7825 8.05026 16.7187 7.4031 16.8428 6.77872C16.9669 6.15434 17.2734 5.58078 17.7235 5.13056C18.1735 4.68034 18.747 4.37369 19.3713 4.24936C19.9957 4.12504 20.6428 4.18863 21.231 4.43209C21.8192 4.67556 22.322 5.08797 22.6759 5.61718C23.0297 6.14638 23.2187 6.76862 23.2189 7.40522C23.2182 8.25881 22.8788 9.07725 22.2754 9.68093C21.6719 10.2846 20.8535 10.6242 20 10.6252ZM20 5.269C19.5771 5.269 19.1637 5.39442 18.8121 5.6294C18.4605 5.86438 18.1865 6.19837 18.0247 6.5891C17.8629 6.97983 17.8207 7.40976 17.9033 7.82451C17.9859 8.23925 18.1897 8.62017 18.4889 8.91909C18.788 9.21801 19.1691 9.42149 19.5839 9.5038C19.9987 9.5861 20.4286 9.54353 20.8192 9.38148C21.2098 9.21942 21.5436 8.94516 21.7783 8.59338C22.013 8.2416 22.1381 7.82811 22.1378 7.40522C22.1368 6.83868 21.9112 6.29567 21.5104 5.89522C21.1097 5.49477 20.5665 5.26957 20 5.269Z" fill="#D8AE75"/>
<path d="M30.147 7.94973H22.6789C22.5356 7.94973 22.3981 7.89278 22.2967 7.79141C22.1953 7.69004 22.1384 7.55255 22.1384 7.40919C22.1384 7.26583 22.1953 7.12834 22.2967 7.02697C22.3981 6.9256 22.5356 6.86865 22.6789 6.86865H30.147C30.2904 6.86865 30.4279 6.9256 30.5293 7.02697C30.6306 7.12834 30.6876 7.26583 30.6876 7.40919C30.6876 7.55255 30.6306 7.69004 30.5293 7.79141C30.4279 7.89278 30.2904 7.94973 30.147 7.94973Z" fill="#D8AE75"/>
<path d="M17.3195 7.94973H9.78383C9.64047 7.94973 9.50298 7.89278 9.40161 7.79141C9.30024 7.69004 9.24329 7.55255 9.24329 7.40919C9.24329 7.26583 9.30024 7.12834 9.40161 7.02697C9.50298 6.9256 9.64047 6.86865 9.78383 6.86865H17.3195C17.4629 6.86865 17.6003 6.9256 17.7017 7.02697C17.8031 7.12834 17.86 7.26583 17.86 7.40919C17.86 7.55255 17.8031 7.69004 17.7017 7.79141C17.6003 7.89278 17.4629 7.94973 17.3195 7.94973Z" fill="#D8AE75"/>
<path d="M31.3428 9.14422C30.9996 9.14422 30.6641 9.04246 30.3788 8.8518C30.0934 8.66114 29.871 8.39015 29.7397 8.0731C29.6084 7.75604 29.574 7.40716 29.641 7.07058C29.7079 6.734 29.8732 6.42482 30.1158 6.18216C30.3585 5.9395 30.6677 5.77424 31.0043 5.70729C31.3408 5.64034 31.6897 5.6747 32.0068 5.80603C32.3238 5.93736 32.5948 6.15976 32.7855 6.4451C32.9761 6.73044 33.0779 7.06591 33.0779 7.40909C33.0773 7.8691 32.8943 8.31011 32.5691 8.63538C32.2438 8.96066 31.8028 9.14365 31.3428 9.14422ZM31.3428 6.75449C31.2134 6.75449 31.087 6.79285 30.9794 6.86472C30.8718 6.93659 30.788 7.03874 30.7385 7.15825C30.689 7.27776 30.676 7.40927 30.7013 7.53615C30.7265 7.66302 30.7888 7.77956 30.8803 7.87103C30.9718 7.9625 31.0883 8.0248 31.2152 8.05003C31.342 8.07527 31.4735 8.06232 31.5931 8.01281C31.7126 7.96331 31.8147 7.87948 31.8866 7.77192C31.9585 7.66436 31.9968 7.53791 31.9968 7.40855C31.996 7.23554 31.9267 7.0699 31.8042 6.94777C31.6816 6.82564 31.5158 6.75694 31.3428 6.75665V6.75449Z" fill="#D8AE75"/>
<path d="M37.6627 18.9783H25.0232C24.9261 18.9783 24.8308 18.9522 24.7474 18.9026C24.6639 18.8531 24.5953 18.782 24.5488 18.6968C24.5023 18.6115 24.4796 18.5154 24.483 18.4183C24.4865 18.3213 24.5161 18.227 24.5686 18.1454L30.8881 8.31132C30.9401 8.23932 31.0084 8.18069 31.0875 8.14025C31.1666 8.09982 31.2541 8.07874 31.343 8.07874C31.4318 8.07874 31.5193 8.09982 31.5984 8.14025C31.6775 8.18069 31.7458 8.23932 31.7978 8.31132L38.1178 18.1454C38.1703 18.227 38.1999 18.3213 38.2034 18.4183C38.2069 18.5154 38.1842 18.6115 38.1377 18.6968C38.0912 18.782 38.0226 18.8531 37.9391 18.9026C37.8556 18.9522 37.7603 18.9783 37.6632 18.9783H37.6627ZM26.013 17.8973H36.6724L31.3427 9.60375L26.013 17.8973Z" fill="#D8AE75"/>
<path d="M31.3427 26.035C29.3341 26.0327 27.4084 25.2337 25.9882 23.8134C24.568 22.3931 23.7692 20.4674 23.767 18.4588C23.7662 18.3131 23.8222 18.173 23.9232 18.068C24.0241 17.963 24.162 17.9015 24.3075 17.8966H38.3783C38.5217 17.8966 38.6592 17.9536 38.7606 18.0549C38.8619 18.1563 38.9189 18.2938 38.9189 18.4371C38.9212 20.4492 38.1244 22.3798 36.7037 23.8045C35.283 25.2293 33.3547 26.0316 31.3427 26.035ZM24.8686 18.9782C24.9992 20.6057 25.7379 22.1243 26.9377 23.2316C28.1375 24.339 29.7103 24.9538 31.3429 24.9538C32.9756 24.9538 34.5484 24.339 35.7482 23.2316C36.948 22.1243 37.6867 20.6057 37.8173 18.9782H24.8686Z" fill="#D8AE75"/>
<path d="M8.65732 9.14422C8.31414 9.14422 7.97867 9.04246 7.69333 8.8518C7.40799 8.66114 7.18559 8.39015 7.05426 8.0731C6.92293 7.75604 6.88857 7.40716 6.95552 7.07058C7.02247 6.734 7.18773 6.42482 7.43039 6.18216C7.67305 5.9395 7.98223 5.77424 8.31881 5.70729C8.65539 5.64034 9.00427 5.6747 9.32133 5.80603C9.63838 5.93736 9.90937 6.15976 10.1 6.4451C10.2907 6.73044 10.3925 7.06591 10.3925 7.40909C10.3919 7.8691 10.2089 8.31011 9.88361 8.63538C9.55834 8.96066 9.11733 9.14365 8.65732 9.14422ZM8.65732 6.75449C8.52796 6.75449 8.4015 6.79285 8.29394 6.86472C8.18639 6.93659 8.10255 7.03874 8.05305 7.15825C8.00355 7.27776 7.99059 7.40927 8.01583 7.53615C8.04107 7.66302 8.10336 7.77956 8.19483 7.87103C8.2863 7.9625 8.40284 8.0248 8.52972 8.05003C8.65659 8.07527 8.7881 8.06232 8.90761 8.01281C9.02713 7.96331 9.12928 7.87948 9.20114 7.77192C9.27301 7.66436 9.31137 7.53791 9.31137 7.40855C9.31052 7.23554 9.24126 7.0699 9.11873 6.94777C8.99619 6.82564 8.83032 6.75694 8.65732 6.75665V6.75449Z" fill="#D8AE75"/>
<path d="M14.9767 18.9783H2.33728C2.2402 18.9783 2.1449 18.9522 2.06141 18.9026C1.97793 18.8531 1.90932 18.782 1.86281 18.6968C1.81631 18.6115 1.79361 18.5154 1.7971 18.4183C1.8006 18.3213 1.83016 18.227 1.88269 18.1454L8.20215 8.31132C8.25415 8.23932 8.32249 8.18069 8.40157 8.14025C8.48065 8.09982 8.5682 8.07874 8.65701 8.07874C8.74583 8.07874 8.83337 8.09982 8.91245 8.14025C8.99153 8.18069 9.05988 8.23932 9.11188 8.31132L15.4313 18.1454C15.4839 18.227 15.5134 18.3213 15.5169 18.4183C15.5204 18.5154 15.4977 18.6115 15.4512 18.6968C15.4047 18.782 15.3361 18.8531 15.2526 18.9026C15.1691 18.9522 15.0738 18.9783 14.9767 18.9783ZM3.32701 17.8973H13.9865L8.65674 9.60375L3.32701 17.8973Z" fill="#D8AE75"/>
<path d="M8.65725 26.035C6.64857 26.0328 4.72278 25.2339 3.30242 23.8136C1.88207 22.3932 1.08318 20.4674 1.08103 18.4588C1.08025 18.3131 1.13627 18.173 1.23721 18.068C1.33814 17.963 1.47603 17.9015 1.62157 17.8966H15.6924C15.8357 17.8966 15.9732 17.9536 16.0746 18.0549C16.176 18.1563 16.2329 18.2938 16.2329 18.4371V18.4588C16.2308 20.4674 15.432 22.3931 14.0117 23.8134C12.5915 25.2337 10.6658 26.0327 8.65725 26.035ZM2.18428 18.9782C2.31405 20.6061 3.05234 22.1252 4.25205 23.2331C5.45175 24.341 7.0248 24.9562 8.65779 24.9562C10.2908 24.9562 11.8638 24.341 13.0635 23.2331C14.2632 22.1252 15.0015 20.6061 15.1313 18.9782H2.18428Z" fill="#D8AE75"/>
</svg>
