<svg width="40" height="40" viewBox="0 0 40 40" fill="none" xmlns="http://www.w3.org/2000/svg">
<path d="M27.3065 38.5406C27.1876 38.5406 27.0721 38.5015 26.9778 38.4293L21.5843 34.3011C21.4965 34.2339 21.4315 34.1414 21.3979 34.036C21.3644 33.9307 21.364 33.8176 21.3967 33.712L23.0919 28.239C23.4425 27.1201 24.0477 26.0976 24.86 25.252L31.8329 18.0271C32.1554 17.6927 32.5896 17.4886 33.0528 17.4537C33.5161 17.4188 33.9759 17.5555 34.3448 17.8379C34.3917 17.8729 34.4366 17.9105 34.4794 17.9503C34.5005 17.9698 34.5216 17.9898 34.5416 18.0098L34.9789 11.8752C35.0123 11.4105 35.2091 10.9727 35.5346 10.6393C35.86 10.306 36.293 10.0986 36.7567 10.0541C37.0348 10.0268 37.3155 10.0589 37.5802 10.1484C37.8449 10.2379 38.0876 10.3826 38.2921 10.5731C38.4966 10.7635 38.6582 10.9952 38.7663 11.2529C38.8743 11.5106 38.9264 11.7883 38.9189 12.0676L38.5562 25.8444C38.5459 26.2658 38.4355 26.6788 38.2342 27.0492C38.0329 27.4196 37.7464 27.7368 37.3983 27.9747L29.7113 33.2341C29.6032 33.3062 29.4998 33.3835 29.401 33.466C28.8463 33.9422 28.4126 34.5434 28.1356 35.22C27.8587 35.8967 27.7464 36.6294 27.8081 37.3579L27.8465 37.9644C27.8511 38.0382 27.8406 38.1122 27.8155 38.1817C27.7904 38.2513 27.7514 38.315 27.7007 38.3688C27.65 38.4227 27.5889 38.4656 27.5209 38.4948C27.453 38.5241 27.3799 38.5391 27.3059 38.539L27.3065 38.5406ZM22.5405 33.6703L26.7183 36.8649C26.7279 36.0564 26.9115 35.2594 27.2567 34.5281C27.6018 33.7969 28.1003 33.1485 28.7183 32.6271C28.8412 32.5269 28.9688 32.4314 29.101 32.3406L36.787 27.0811C36.9935 26.9401 37.1636 26.7519 37.283 26.5322C37.4025 26.3124 37.468 26.0674 37.474 25.8174L37.8378 12.0395C37.8411 11.9133 37.8175 11.7878 37.7686 11.6714C37.7197 11.555 37.6465 11.4504 37.554 11.3644C37.4615 11.2785 37.3518 11.2132 37.2321 11.1729C37.1125 11.1327 36.9856 11.1183 36.86 11.1309C36.7382 11.1428 36.6201 11.1796 36.5131 11.239C36.4061 11.2985 36.3124 11.3792 36.2378 11.4763C36.1326 11.6155 36.0697 11.7822 36.0567 11.9563L35.2589 23.1352C35.2516 23.2381 35.2149 23.3367 35.1534 23.4195C35.0918 23.5023 35.0078 23.5657 34.9113 23.6022L31.4697 24.9076L29.9902 26.9292C29.9051 27.0437 29.7782 27.1199 29.6372 27.1411C29.4961 27.1624 29.3524 27.1271 29.2373 27.0429C29.1222 26.9587 29.0451 26.8324 29.0227 26.6915C29.0003 26.5506 29.0345 26.4066 29.1178 26.2909L30.6854 24.1455L30.6951 24.1325L33.8475 19.8184C33.9656 19.6565 34.0198 19.4567 33.9999 19.2573C33.9799 19.0578 33.8872 18.8728 33.7394 18.7374L33.6886 18.6957C33.5305 18.5743 33.3332 18.5154 33.1343 18.5302C32.9355 18.5451 32.7491 18.6327 32.6108 18.7763L25.6378 26.0001C24.9426 26.7246 24.4246 27.6003 24.1243 28.5584L22.5405 33.6703ZM34.3275 20.9952L32.6378 23.3076L34.2054 22.713L34.3275 20.9952Z" fill="#D8AE75"/>
<path d="M32.4097 18.7796C32.3268 18.7796 32.245 18.7606 32.1706 18.724C32.0962 18.6874 32.0313 18.6342 31.9807 18.5684C31.9302 18.5027 31.8955 18.4262 31.8792 18.3449C31.863 18.2636 31.8657 18.1797 31.887 18.0996L32.9276 14.1942C33.0545 13.7234 33.3309 13.3066 33.7152 13.0065C34.0995 12.7064 34.5709 12.5393 35.0584 12.5304L35.427 12.525C35.5704 12.5228 35.7087 12.5777 35.8116 12.6776C35.9145 12.7774 35.9735 12.914 35.9757 13.0574C35.9778 13.2008 35.923 13.3391 35.8231 13.442C35.7233 13.5449 35.5866 13.6039 35.4433 13.606L35.0751 13.6114C34.8229 13.6161 34.5789 13.7026 34.38 13.8579C34.1812 14.0132 34.0381 14.2289 33.9724 14.4725L32.9319 18.3785C32.9012 18.4935 32.8334 18.5952 32.7389 18.6677C32.6445 18.7402 32.5288 18.7795 32.4097 18.7796Z" fill="#D8AE75"/>
<path d="M12.6935 38.5405C12.6196 38.5406 12.5464 38.5256 12.4785 38.4963C12.4106 38.467 12.3494 38.4242 12.2988 38.3703C12.2481 38.3164 12.209 38.2528 12.1839 38.1832C12.1589 38.1136 12.1483 38.0397 12.153 37.9659L12.1914 37.3594C12.253 36.6309 12.1408 35.8981 11.8638 35.2215C11.5869 34.5449 11.1532 33.9437 10.5984 33.4675C10.4986 33.386 10.3952 33.3087 10.2881 33.2356L2.60219 27.9751C2.25387 27.7368 1.96721 27.4192 1.76589 27.0483C1.56457 26.6774 1.45436 26.264 1.44435 25.8421L1.08111 12.068C1.06627 11.5525 1.25391 11.0517 1.60385 10.6729C1.95379 10.294 2.43818 10.0673 2.95324 10.0413C3.46831 10.0153 3.97307 10.1921 4.35939 10.5337C4.74571 10.8754 4.98286 11.3547 5.02003 11.8691L5.45787 18.0096C5.48057 17.9864 5.50435 17.9637 5.52868 17.941C5.56889 17.9045 5.61092 17.87 5.65462 17.8378C6.0238 17.5549 6.48422 17.418 6.94796 17.4531C7.41171 17.4882 7.84627 17.6928 8.16868 18.028L15.1417 25.2513C15.9537 26.0969 16.5589 27.1191 16.9098 28.2378L18.6054 33.7107C18.6382 33.8163 18.6378 33.9294 18.6042 34.0348C18.5707 34.1401 18.5056 34.2327 18.4179 34.2999L13.0222 38.4269C12.9281 38.4999 12.8126 38.5398 12.6935 38.5405ZM3.04976 11.1259C2.93112 11.1261 2.81372 11.1501 2.70449 11.1964C2.59525 11.2427 2.49637 11.3103 2.41367 11.3954C2.33097 11.4805 2.26612 11.5812 2.22293 11.6917C2.17974 11.8022 2.15909 11.9202 2.16219 12.0388L2.52489 25.8161C2.53094 26.0664 2.59645 26.3116 2.71601 26.5316C2.83556 26.7515 3.00573 26.9398 3.21246 27.081L10.9 32.341C11.0319 32.4311 11.1595 32.5266 11.2827 32.6275C11.9008 33.1489 12.3993 33.7973 12.7444 34.5285C13.0895 35.2598 13.2731 36.0568 13.2827 36.8653L17.4595 33.6702L15.8757 28.5588C15.5751 27.6011 15.0571 26.7259 14.3622 26.0015L7.38922 18.7778C7.25113 18.6341 7.06496 18.5462 6.86625 18.5311C6.66754 18.5159 6.4702 18.5745 6.31192 18.6956L6.26814 18.7302C6.11742 18.8651 6.02203 19.0511 6.00037 19.2523C5.9787 19.4534 6.03231 19.6554 6.15084 19.8194L9.30273 24.1329L9.31246 24.1459L10.88 26.2913C10.9634 26.407 10.9976 26.551 10.9752 26.6919C10.9528 26.8328 10.8756 26.9591 10.7605 27.0433C10.6454 27.1275 10.5017 27.1628 10.3607 27.1415C10.2196 27.1203 10.0927 27.0441 10.0076 26.9296L8.52814 24.908L5.08922 23.6021C4.99276 23.5655 4.90878 23.5021 4.84719 23.4194C4.7856 23.3366 4.74898 23.2379 4.74165 23.135L3.94273 11.9502C3.92703 11.7409 3.83796 11.5439 3.6912 11.3939C3.54445 11.2439 3.34945 11.1505 3.14057 11.1302C3.1103 11.1275 3.08111 11.1259 3.04976 11.1259ZM5.79516 22.7134L7.36273 23.308L5.673 20.9956L5.79516 22.7134Z" fill="#D8AE75"/>
<path d="M7.59026 18.7794C7.4712 18.7794 7.35548 18.74 7.26107 18.6675C7.16665 18.595 7.09881 18.4933 7.0681 18.3783L6.02702 14.4718C5.96124 14.2283 5.81816 14.0127 5.61929 13.8575C5.42042 13.7023 5.17653 13.6159 4.92431 13.6113L4.55621 13.6059C4.48522 13.6048 4.41514 13.5898 4.34996 13.5616C4.28478 13.5335 4.22579 13.4928 4.17634 13.4418C4.1269 13.3909 4.08798 13.3307 4.0618 13.2647C4.03562 13.1987 4.0227 13.1282 4.02377 13.0572C4.0321 12.9159 4.09304 12.7829 4.1946 12.6844C4.29616 12.5858 4.43096 12.5289 4.57242 12.5248L4.94053 12.5302C5.42803 12.5392 5.89941 12.7063 6.28372 13.0063C6.66802 13.3064 6.94443 13.7232 7.07134 14.194L8.11188 18.0994C8.13327 18.1795 8.13595 18.2634 8.11971 18.3447C8.10346 18.426 8.06873 18.5025 8.0182 18.5683C7.96767 18.634 7.9027 18.6872 7.8283 18.7238C7.75391 18.7604 7.67209 18.7794 7.58918 18.7794H7.59026Z" fill="#D8AE75"/>
<path d="M20 22.8649C19.884 22.8643 19.7712 22.8264 19.6784 22.7568C13.8378 18.4389 11.4594 14.3784 11.4594 8.75083V5.52218C11.4592 5.44993 11.4734 5.37836 11.5012 5.3117C11.5291 5.24504 11.57 5.18464 11.6216 5.13407C11.674 5.08414 11.7357 5.04503 11.8032 5.01896C11.8708 4.9929 11.9428 4.9804 12.0151 4.98218C13.4518 5.08626 14.8922 4.83787 16.211 4.25861C17.5299 3.67935 18.6873 2.78675 19.5827 1.65839C19.6353 1.59387 19.7024 1.54257 19.7784 1.50859C19.8544 1.47461 19.9373 1.4589 20.0205 1.46272C20.1036 1.46596 20.1848 1.48833 20.2579 1.52808C20.3309 1.56783 20.3938 1.62389 20.4416 1.69191C21.8854 3.74596 24.2957 4.79353 28.027 4.98272C28.1655 4.98979 28.2961 5.04985 28.3915 5.15047C28.487 5.25108 28.5402 5.38455 28.54 5.52326V8.75191C28.5974 11.5551 27.8366 14.3142 26.3508 16.6919C25.0535 18.7497 23.1357 20.6773 20.3205 22.7584C20.2278 22.8272 20.1155 22.8645 20 22.8649ZM12.5405 6.06867V8.75083C12.5405 14.7352 15.5092 18.267 20 21.6481C22.5286 19.7416 24.2616 17.9768 25.4373 16.1141C26.8125 13.9083 27.5151 11.3496 27.4594 8.75083V6.03029C23.9746 5.77461 21.5676 4.75677 19.973 2.85353C19.0312 3.88364 17.882 4.7027 16.601 5.25685C15.32 5.81099 13.9361 6.08766 12.5405 6.06867Z" fill="#D8AE75"/>
<path d="M18.207 15.467C18.0637 15.4669 17.9262 15.41 17.8249 15.3086L15.8822 13.3664C15.7807 13.2648 15.7238 13.127 15.724 12.9834C15.7242 12.8398 15.7813 12.7022 15.883 12.6008C15.9846 12.4993 16.1224 12.4424 16.266 12.4426C16.4096 12.4427 16.5472 12.4999 16.6487 12.6016L18.207 14.1621L23.3514 9.01563C23.4533 8.91716 23.5898 8.86268 23.7316 8.86391C23.8733 8.86514 24.0089 8.92199 24.1091 9.02221C24.2093 9.12243 24.2662 9.25801 24.2674 9.39973C24.2686 9.54146 24.2141 9.678 24.1157 9.77995L18.5892 15.3086C18.4878 15.41 18.3504 15.4669 18.207 15.467Z" fill="#D8AE75"/>
</svg>
