<svg width="40" height="40" viewBox="0 0 40 40" fill="none" xmlns="http://www.w3.org/2000/svg">
<path d="M38.2742 17.1351H1.72609C1.58273 17.1351 1.44524 17.0782 1.34387 16.9768C1.2425 16.8754 1.18555 16.7379 1.18555 16.5946V12.6519C1.18555 12.5588 1.20958 12.4673 1.25532 12.3862C1.30106 12.3052 1.36696 12.2373 1.44663 12.1892L19.7169 1.15889C19.8012 1.10807 19.8977 1.08121 19.9961 1.08121C20.0945 1.08121 20.191 1.10807 20.2753 1.15889L38.5531 12.1892C38.6328 12.2373 38.6987 12.3052 38.7444 12.3862C38.7902 12.4673 38.8142 12.5588 38.8142 12.6519V16.5946C38.8142 16.7378 38.7573 16.8752 38.6561 16.9766C38.5548 17.0779 38.4175 17.135 38.2742 17.1351ZM2.26717 16.054H37.7337V12.9567L19.9969 2.25294L2.26717 12.9556V16.054Z" fill="#D8AE75"/>
<path d="M20.0001 13.1422C19.3606 13.1422 18.7356 12.9525 18.2039 12.5973C17.6723 12.2421 17.2579 11.7371 17.0132 11.1464C16.7685 10.5556 16.7045 9.9056 16.8292 9.27846C16.954 8.65133 17.2619 8.07527 17.714 7.62313C18.1661 7.17099 18.7422 6.86308 19.3693 6.73833C19.9965 6.61359 20.6465 6.67761 21.2373 6.92231C21.828 7.167 22.3329 7.58138 22.6882 8.11304C23.0434 8.6447 23.233 9.26976 23.233 9.90918C23.232 10.7663 22.8911 11.5881 22.285 12.1941C21.6789 12.8002 20.8572 13.1412 20.0001 13.1422ZM20.0001 7.75675C19.5745 7.75675 19.1584 7.88296 18.8045 8.11941C18.4507 8.35586 18.1748 8.69194 18.012 9.08515C17.8491 9.47836 17.8065 9.91103 17.8895 10.3285C17.9726 10.7459 18.1775 11.1293 18.4784 11.4303C18.7794 11.7312 19.1628 11.9362 19.5803 12.0192C19.9977 12.1022 20.4304 12.0596 20.8236 11.8967C21.2168 11.7339 21.5528 11.458 21.7893 11.1042C22.0258 10.7503 22.152 10.3342 22.152 9.90864C22.1512 9.33814 21.9243 8.79122 21.5209 8.38782C21.1175 7.98441 20.5706 7.75747 20.0001 7.75675Z" fill="#D8AE75"/>
<path d="M35.1201 20.5497H29.3682C29.0586 20.5493 28.7618 20.4261 28.5429 20.2071C28.3241 19.9881 28.201 19.6912 28.2007 19.3816V16.5946C28.2007 16.4512 28.2576 16.3137 28.359 16.2123C28.4604 16.111 28.5979 16.054 28.7412 16.054H35.7472C35.8905 16.054 36.028 16.111 36.1294 16.2123C36.2307 16.3137 36.2877 16.4512 36.2877 16.5946V19.3832C36.287 19.6926 36.1637 19.989 35.9449 20.2076C35.726 20.4263 35.4295 20.5493 35.1201 20.5497ZM29.2823 17.1335V19.3816C29.2823 19.4046 29.2914 19.4266 29.3076 19.4429C29.3238 19.4592 29.3458 19.4685 29.3688 19.4686H35.1201C35.1431 19.4685 35.1651 19.4592 35.1813 19.4429C35.1975 19.4266 35.2066 19.4046 35.2066 19.3816V17.1351L29.2823 17.1335Z" fill="#D8AE75"/>
<path d="M34.6292 31.468H29.8584C29.7151 31.468 29.5776 31.411 29.4762 31.3097C29.3748 31.2083 29.3179 31.0708 29.3179 30.9274V20.0085C29.3179 19.8652 29.3748 19.7277 29.4762 19.6263C29.5776 19.5249 29.7151 19.468 29.8584 19.468H34.6292C34.7726 19.468 34.9101 19.5249 35.0115 19.6263C35.1128 19.7277 35.1698 19.8652 35.1698 20.0085V30.9274C35.1698 31.0708 35.1128 31.2083 35.0115 31.3097C34.9101 31.411 34.7726 31.468 34.6292 31.468ZM30.399 30.3869H34.0887V20.5491H30.399V30.3869Z" fill="#D8AE75"/>
<path d="M35.7472 34.8844H28.7412C28.5979 34.8844 28.4604 34.8275 28.359 34.7261C28.2576 34.6247 28.2007 34.4872 28.2007 34.3439V31.5552C28.201 31.2456 28.3241 30.9487 28.5429 30.7298C28.7618 30.5108 29.0586 30.3875 29.3682 30.3871H35.1201C35.4297 30.3875 35.7266 30.5108 35.9454 30.7298C36.1643 30.9487 36.2874 31.2456 36.2877 31.5552V34.3439C36.2877 34.4872 36.2307 34.6247 36.1294 34.7261C36.028 34.8275 35.8905 34.8844 35.7472 34.8844ZM29.2818 33.8033H35.2066V31.5552C35.2066 31.5322 35.1975 31.5102 35.1813 31.4939C35.1651 31.4776 35.1431 31.4683 35.1201 31.4682H29.3682C29.3453 31.4683 29.3233 31.4776 29.3071 31.4939C29.2909 31.5102 29.2818 31.5322 29.2818 31.5552V33.8033Z" fill="#D8AE75"/>
<path d="M22.8757 20.5497H17.1244C16.8147 20.5493 16.5179 20.4261 16.299 20.2071C16.0802 19.9881 15.9571 19.6912 15.9568 19.3816V16.5946C15.9568 16.4512 16.0137 16.3137 16.1151 16.2123C16.2165 16.111 16.354 16.054 16.4973 16.054H23.5027C23.6461 16.054 23.7836 16.111 23.885 16.2123C23.9863 16.3137 24.0433 16.4512 24.0433 16.5946V19.3832C24.0426 19.6926 23.9193 19.989 23.7005 20.2076C23.4816 20.4263 23.1851 20.5493 22.8757 20.5497ZM17.0379 17.1351V19.3832C17.0379 19.4062 17.047 19.4283 17.0632 19.4446C17.0794 19.4609 17.1014 19.4701 17.1244 19.4702H22.8757C22.8987 19.4701 22.9207 19.4609 22.9369 19.4446C22.9531 19.4283 22.9622 19.4062 22.9622 19.3832V17.1351H17.0379Z" fill="#D8AE75"/>
<path d="M22.3784 31.468H17.6216C17.4782 31.468 17.3407 31.411 17.2394 31.3097C17.138 31.2083 17.0811 31.0708 17.0811 30.9274V20.0085C17.0811 19.8652 17.138 19.7277 17.2394 19.6263C17.3407 19.5249 17.4782 19.468 17.6216 19.468H22.3784C22.5217 19.468 22.6592 19.5249 22.7606 19.6263C22.8619 19.7277 22.9189 19.8652 22.9189 20.0085V30.9274C22.9189 31.0708 22.8619 31.2083 22.7606 31.3097C22.6592 31.411 22.5217 31.468 22.3784 31.468ZM18.1621 30.3869H21.8378V20.5491H18.1621V30.3869Z" fill="#D8AE75"/>
<path d="M23.5027 34.8844H16.4973C16.354 34.8844 16.2165 34.8275 16.1151 34.7261C16.0137 34.6247 15.9568 34.4872 15.9568 34.3439V31.5552C15.9571 31.2456 16.0802 30.9487 16.299 30.7298C16.5179 30.5108 16.8147 30.3875 17.1244 30.3871H22.8757C23.1853 30.3875 23.4821 30.5108 23.701 30.7298C23.9199 30.9487 24.043 31.2456 24.0433 31.5552V34.3439C24.0433 34.4872 23.9863 34.6247 23.885 34.7261C23.7836 34.8275 23.6461 34.8844 23.5027 34.8844ZM17.0373 33.8033H22.9622V31.5552C22.9622 31.5322 22.9531 31.5102 22.9369 31.4939C22.9207 31.4776 22.8987 31.4683 22.8757 31.4682H17.1244C17.1014 31.4683 17.0794 31.4776 17.0632 31.4939C17.047 31.5102 17.0379 31.5322 17.0379 31.5552L17.0373 33.8033Z" fill="#D8AE75"/>
<path d="M11.1724 20.5497H5.4205C5.11088 20.5493 4.81407 20.4261 4.59519 20.2071C4.3763 19.9881 4.25322 19.6912 4.25293 19.3816V16.5946C4.25293 16.4512 4.30988 16.3137 4.41125 16.2123C4.51262 16.111 4.65011 16.054 4.79347 16.054H11.7994C11.9428 16.054 12.0803 16.111 12.1816 16.2123C12.283 16.3137 12.34 16.4512 12.34 16.5946V19.3832C12.3392 19.6926 12.216 19.989 11.9971 20.2076C11.7783 20.4263 11.4817 20.5493 11.1724 20.5497ZM5.33401 17.1351V19.3832C5.33401 19.4062 5.34311 19.4283 5.35931 19.4446C5.37551 19.4609 5.39751 19.4701 5.4205 19.4702H11.1724C11.1954 19.4701 11.2174 19.4609 11.2336 19.4446C11.2498 19.4283 11.2589 19.4062 11.2589 19.3832V17.1351H5.33401Z" fill="#D8AE75"/>
<path d="M10.7027 31.468H5.89186C5.7485 31.468 5.61101 31.411 5.50964 31.3097C5.40827 31.2083 5.35132 31.0708 5.35132 30.9274V20.0085C5.35132 19.8652 5.40827 19.7277 5.50964 19.6263C5.61101 19.5249 5.7485 19.468 5.89186 19.468H10.7027C10.846 19.468 10.9835 19.5249 11.0849 19.6263C11.1863 19.7277 11.2432 19.8652 11.2432 20.0085V30.9274C11.2432 31.0708 11.1863 31.2083 11.0849 31.3097C10.9835 31.411 10.846 31.468 10.7027 31.468ZM6.4324 30.3869H10.1621V20.5491H6.4324V30.3869Z" fill="#D8AE75"/>
<path d="M11.7994 34.8844H4.79347C4.65011 34.8844 4.51262 34.8275 4.41125 34.7261C4.30988 34.6247 4.25293 34.4872 4.25293 34.3439V31.5552C4.25322 31.2456 4.3763 30.9487 4.59519 30.7298C4.81407 30.5108 5.11088 30.3875 5.4205 30.3871H11.1724C11.482 30.3875 11.7788 30.5108 11.9977 30.7298C12.2166 30.9487 12.3397 31.2456 12.34 31.5552V34.3439C12.34 34.4872 12.283 34.6247 12.1816 34.7261C12.0803 34.8275 11.9428 34.8844 11.7994 34.8844ZM5.33401 33.8033H11.2589V31.5552C11.2589 31.5322 11.2498 31.5102 11.2336 31.4939C11.2174 31.4776 11.1954 31.4683 11.1724 31.4682H5.4205C5.39751 31.4683 5.37551 31.4776 5.35931 31.4939C5.34311 31.5102 5.33401 31.5322 5.33401 31.5552V33.8033Z" fill="#D8AE75"/>
<path d="M38.3783 38.9188H1.6216C1.47823 38.9188 1.34075 38.8619 1.23938 38.7605C1.138 38.6591 1.08105 38.5216 1.08105 38.3783V34.3437C1.08105 34.2003 1.138 34.0628 1.23938 33.9615C1.34075 33.8601 1.47823 33.8031 1.6216 33.8031H38.3783C38.5217 33.8031 38.6592 33.8601 38.7606 33.9615C38.8619 34.0628 38.9189 34.2003 38.9189 34.3437V38.3783C38.9189 38.5216 38.8619 38.6591 38.7606 38.7605C38.6592 38.8619 38.5217 38.9188 38.3783 38.9188ZM2.16214 37.8377H37.8378V34.8842H2.16214V37.8377Z" fill="#D8AE75"/>
</svg>
