<svg width="40" height="40" viewBox="0 0 40 40" fill="none" xmlns="http://www.w3.org/2000/svg">
<path d="M22.494 38.9324H1.6216C1.47823 38.9324 1.34075 38.8755 1.23938 38.7741C1.138 38.6727 1.08105 38.5352 1.08105 38.3919V35.9367C1.08177 35.3052 1.33298 34.6997 1.77956 34.2531C2.22615 33.8065 2.83165 33.5553 3.46322 33.5546H20.6524C21.284 33.5553 21.8895 33.8065 22.3361 34.2531C22.7826 34.6997 23.0339 35.3052 23.0346 35.9367V38.3919C23.0346 38.5352 22.9776 38.6727 22.8762 38.7741C22.7749 38.8755 22.6374 38.9324 22.494 38.9324ZM2.16214 37.8513H21.9535V35.9367C21.9531 35.5918 21.8158 35.2611 21.5719 35.0172C21.328 34.7733 20.9973 34.6361 20.6524 34.6356H3.46322C3.11828 34.6361 2.78759 34.7733 2.54369 35.0172C2.29978 35.2611 2.16256 35.5918 2.16214 35.9367V37.8513Z" fill="#D8AE75"/>
<path d="M19.099 34.6358H5.01735C4.87399 34.6358 4.7365 34.5788 4.63513 34.4775C4.53376 34.3761 4.47681 34.2386 4.47681 34.0952V32.6628C4.47752 32.0312 4.72873 31.4257 5.17532 30.9791C5.6219 30.5326 6.2274 30.2814 6.85897 30.2806H17.2568C17.8884 30.2814 18.4939 30.5326 18.9405 30.9791C19.387 31.4257 19.6383 32.0312 19.639 32.6628V34.0952C19.639 34.2385 19.5821 34.3759 19.4808 34.4773C19.3796 34.5786 19.2422 34.6356 19.099 34.6358ZM5.55789 33.5547H18.5584V32.6628C18.558 32.3179 18.4208 31.9872 18.1769 31.7433C17.933 31.4994 17.6023 31.3622 17.2573 31.3617H6.85897C6.51403 31.3622 6.18335 31.4994 5.93944 31.7433C5.69553 31.9872 5.55832 32.3179 5.55789 32.6628V33.5547Z" fill="#D8AE75"/>
<path d="M18.6885 23.1827C18.5452 23.1827 18.4077 23.1257 18.3064 23.0243L11.335 16.0541C11.2337 15.9527 11.1768 15.8152 11.1768 15.6719C11.1768 15.5286 11.2337 15.3911 11.335 15.2897L21.2048 5.41892C21.308 5.32126 21.4448 5.26685 21.5869 5.26685C21.7291 5.26685 21.8658 5.32126 21.9691 5.41892L28.9421 12.3919C29.0434 12.4933 29.1003 12.6307 29.1003 12.7741C29.1003 12.9174 29.0434 13.0549 28.9421 13.1562L19.0707 23.0243C18.9694 23.1257 18.8319 23.1827 18.6885 23.1827ZM12.4815 15.6692L18.6885 21.8779L27.7934 12.7724L21.5869 6.56541L12.4815 15.6692Z" fill="#D8AE75"/>
<path d="M30.3244 14.7913C30.1618 14.7917 30.0007 14.7598 29.8504 14.6977C29.7001 14.6355 29.5636 14.5443 29.4487 14.4292L19.9303 4.90864C19.8153 4.79368 19.724 4.65717 19.6617 4.50692C19.5994 4.35667 19.5674 4.19561 19.5674 4.03296C19.5674 3.87031 19.5994 3.70926 19.6617 3.55901C19.724 3.40875 19.8153 3.27225 19.9303 3.15729L21.6601 1.42756C21.8924 1.19574 22.2072 1.06555 22.5355 1.06555C22.8637 1.06555 23.1785 1.19574 23.4109 1.42756L32.9292 10.9508C33.1612 11.1832 33.2915 11.4981 33.2915 11.8265C33.2915 12.1548 33.1612 12.4698 32.9292 12.7022L31.1995 14.4319C31.0845 14.5464 30.9479 14.6371 30.7978 14.6988C30.6476 14.7605 30.4867 14.7919 30.3244 14.7913ZM22.533 2.14864C22.5124 2.14858 22.4919 2.1526 22.4728 2.16049C22.4537 2.16837 22.4363 2.17996 22.4217 2.19458L20.6919 3.92431C20.6625 3.9538 20.646 3.99375 20.646 4.03539C20.646 4.07704 20.6625 4.11699 20.6919 4.14648L30.2163 13.6649C30.2459 13.6943 30.2859 13.7108 30.3276 13.7108C30.3694 13.7108 30.4094 13.6943 30.439 13.6649L32.1687 11.9351C32.1982 11.9055 32.2147 11.8655 32.2147 11.8238C32.2147 11.782 32.1982 11.742 32.1687 11.7124L22.6444 2.19458C22.6297 2.17999 22.6124 2.16841 22.5933 2.16053C22.5742 2.15265 22.5537 2.14861 22.533 2.14864Z" fill="#D8AE75"/>
<path d="M17.7426 27.3752C17.5799 27.3755 17.4189 27.3437 17.2686 27.2815C17.1183 27.2194 16.9818 27.1281 16.8669 27.013L7.34635 17.492C7.23128 17.377 7.14001 17.2405 7.07773 17.0902C7.01545 16.94 6.9834 16.7789 6.9834 16.6163C6.9834 16.4536 7.01545 16.2926 7.07773 16.1423C7.14001 15.9921 7.23128 15.8556 7.34635 15.7406L9.07608 14.0109C9.31192 13.7855 9.62556 13.6598 9.95175 13.6598C10.2779 13.6598 10.5916 13.7855 10.8274 14.0109L20.3458 23.5347C20.5775 23.7671 20.7076 24.0819 20.7076 24.4101C20.7076 24.7382 20.5775 25.053 20.3458 25.2855L18.6161 27.0152C18.5013 27.1296 18.365 27.2203 18.2151 27.2821C18.0653 27.3439 17.9047 27.3755 17.7426 27.3752ZM9.94905 14.732C9.92845 14.7318 9.90802 14.7358 9.88899 14.7437C9.86996 14.7516 9.8527 14.7632 9.83824 14.7779L8.10851 16.5076C8.0791 16.5371 8.06258 16.5771 8.06258 16.6187C8.06258 16.6604 8.0791 16.7003 8.10851 16.7298L17.6312 26.2487C17.6608 26.2782 17.7008 26.2947 17.7426 26.2947C17.7843 26.2947 17.8243 26.2782 17.8539 26.2487L19.5837 24.519C19.6131 24.4894 19.6296 24.4494 19.6296 24.4076C19.6296 24.3659 19.6131 24.3259 19.5837 24.2963L10.0604 14.7779C10.0458 14.7632 10.0285 14.7516 10.0094 14.7437C9.99025 14.7358 9.96974 14.7318 9.94905 14.732Z" fill="#D8AE75"/>
<path d="M36.4233 33.0017C36.0956 33.0024 35.7709 32.9383 35.468 32.8131C35.1652 32.6878 34.89 32.5039 34.6585 32.272L21.8585 19.472C21.7571 19.3706 21.7002 19.2332 21.7002 19.0898C21.7002 18.9465 21.7571 18.809 21.8585 18.7077L24.6239 15.9428C24.7252 15.8415 24.8627 15.7845 25.006 15.7845C25.1494 15.7845 25.2868 15.8415 25.3882 15.9428L38.1877 28.7423C38.5369 29.0912 38.7748 29.5358 38.8712 30.02C38.9676 30.5041 38.9182 31.006 38.7292 31.462C38.5403 31.9181 38.2202 32.3078 37.8097 32.5819C37.3991 32.856 36.9164 33.0021 36.4228 33.0017H36.4233ZM23.0055 19.0898L35.4228 31.5077C35.553 31.644 35.7091 31.753 35.882 31.8282C36.0549 31.9034 36.2411 31.9432 36.4296 31.9454C36.6181 31.9476 36.8052 31.9121 36.9797 31.8409C37.1543 31.7698 37.313 31.6645 37.4463 31.5312C37.5796 31.3979 37.6849 31.2392 37.756 31.0646C37.8272 30.89 37.8627 30.703 37.8605 30.5145C37.8583 30.326 37.8185 30.1398 37.7433 29.9669C37.6681 29.794 37.5592 29.6379 37.4228 29.5077L25.006 17.0893L23.0055 19.0898Z" fill="#D8AE75"/>
</svg>
