<svg width="40" height="40" viewBox="0 0 40 40" fill="none" xmlns="http://www.w3.org/2000/svg">
<path d="M19.9459 37.2665H1.62159C1.47823 37.2665 1.34075 37.2095 1.23938 37.1082C1.138 37.0068 1.08105 36.8693 1.08105 36.726V3.27406C1.08105 3.1307 1.138 2.99321 1.23938 2.89184C1.34075 2.79047 1.47823 2.73352 1.62159 2.73352H19.9459C20.0893 2.73352 20.2268 2.79047 20.3281 2.89184C20.4295 2.99321 20.4864 3.1307 20.4864 3.27406V36.726C20.4864 36.8693 20.4295 37.0068 20.3281 37.1082C20.2268 37.2095 20.0893 37.2665 19.9459 37.2665ZM2.16214 36.1854H19.4054V3.8146H2.16214V36.1854Z" fill="#D8AE75"/>
<path d="M38.3785 37.2666H19.9461C19.8027 37.2666 19.6652 37.2096 19.5638 37.1083C19.4625 37.0069 19.4055 36.8694 19.4055 36.726V19.1509C19.4055 19.0075 19.4625 18.87 19.5638 18.7687C19.6652 18.6673 19.8027 18.6104 19.9461 18.6104H38.3785C38.5219 18.6104 38.6594 18.6673 38.7607 18.7687C38.8621 18.87 38.919 19.0075 38.919 19.1509V36.726C38.919 36.8694 38.8621 37.0069 38.7607 37.1083C38.6594 37.2096 38.5219 37.2666 38.3785 37.2666ZM20.4866 36.1855H37.838V19.6914H20.4866V36.1855Z" fill="#D8AE75"/>
<path d="M34.6805 26.5124H30.9124C30.769 26.5124 30.6315 26.4554 30.5301 26.3541C30.4288 26.2527 30.3718 26.1152 30.3718 25.9718V22.2037C30.3718 22.0604 30.4288 21.9229 30.5301 21.8215C30.6315 21.7202 30.769 21.6632 30.9124 21.6632H34.6805C34.8238 21.6632 34.9613 21.7202 35.0627 21.8215C35.1641 21.9229 35.221 22.0604 35.221 22.2037V25.9718C35.221 26.1152 35.1641 26.2527 35.0627 26.3541C34.9613 26.4554 34.8238 26.5124 34.6805 26.5124ZM31.4529 25.4313H34.1399V22.7443H31.4529V25.4313Z" fill="#D8AE75"/>
<path d="M27.4129 26.5124H23.6448C23.5014 26.5124 23.3639 26.4554 23.2626 26.3541C23.1612 26.2527 23.1042 26.1152 23.1042 25.9718V22.2037C23.1042 22.0604 23.1612 21.9229 23.2626 21.8215C23.3639 21.7202 23.5014 21.6632 23.6448 21.6632H27.4129C27.5562 21.6632 27.6937 21.7202 27.7951 21.8215C27.8965 21.9229 27.9534 22.0604 27.9534 22.2037V25.9718C27.9534 26.1152 27.8965 26.2527 27.7951 26.3541C27.6937 26.4554 27.5562 26.5124 27.4129 26.5124ZM24.1853 25.4313H26.8723V22.7443H24.1853V25.4313Z" fill="#D8AE75"/>
<path d="M16.4785 11.0779H12.711C12.5676 11.0779 12.4301 11.0209 12.3287 10.9196C12.2274 10.8182 12.1704 10.6807 12.1704 10.5373V6.76869C12.1704 6.62533 12.2274 6.48784 12.3287 6.38647C12.4301 6.2851 12.5676 6.22815 12.711 6.22815H16.4791C16.6224 6.22815 16.7599 6.2851 16.8613 6.38647C16.9627 6.48784 17.0196 6.62533 17.0196 6.76869V10.5373C17.0196 10.6084 17.0056 10.6787 16.9784 10.7443C16.9512 10.8099 16.9113 10.8696 16.8611 10.9198C16.8108 10.97 16.7512 11.0098 16.6855 11.0369C16.6199 11.064 16.5496 11.078 16.4785 11.0779ZM13.251 9.9968H15.938V7.30923H13.2515L13.251 9.9968Z" fill="#D8AE75"/>
<path d="M8.81793 11.0779H5.04982C4.90646 11.0779 4.76897 11.0209 4.6676 10.9196C4.56623 10.8182 4.50928 10.6807 4.50928 10.5373V6.76869C4.50928 6.62533 4.56623 6.48784 4.6676 6.38647C4.76897 6.2851 4.90646 6.22815 5.04982 6.22815H8.81847C8.96183 6.22815 9.09932 6.2851 9.20069 6.38647C9.30206 6.48784 9.35901 6.62533 9.35901 6.76869V10.5373C9.35901 10.6084 9.34501 10.6787 9.31781 10.7443C9.29061 10.8099 9.25075 10.8696 9.2005 10.9198C9.15024 10.97 9.09059 11.0098 9.02495 11.0369C8.9593 11.064 8.88896 11.078 8.81793 11.0779ZM5.58982 9.9968H8.27739V7.30923H5.59036L5.58982 9.9968Z" fill="#D8AE75"/>
<path d="M16.4785 18.6255H12.711C12.5676 18.6255 12.4301 18.5685 12.3287 18.4672C12.2274 18.3658 12.1704 18.2283 12.1704 18.0849V14.3163C12.1704 14.1729 12.2274 14.0354 12.3287 13.9341C12.4301 13.8327 12.5676 13.7758 12.711 13.7758H16.4791C16.6224 13.7758 16.7599 13.8327 16.8613 13.9341C16.9627 14.0354 17.0196 14.1729 17.0196 14.3163V18.0849C17.0196 18.156 17.0056 18.2263 16.9784 18.2919C16.9512 18.3575 16.9113 18.4172 16.8611 18.4674C16.8108 18.5176 16.7512 18.5574 16.6855 18.5845C16.6199 18.6116 16.5496 18.6256 16.4785 18.6255ZM13.251 17.5444H15.938V14.8568H13.2515L13.251 17.5444Z" fill="#D8AE75"/>
<path d="M8.81793 18.6255H5.04982C4.90646 18.6255 4.76897 18.5685 4.6676 18.4672C4.56623 18.3658 4.50928 18.2283 4.50928 18.0849V14.3163C4.50928 14.1729 4.56623 14.0354 4.6676 13.9341C4.76897 13.8327 4.90646 13.7758 5.04982 13.7758H8.81847C8.96183 13.7758 9.09932 13.8327 9.20069 13.9341C9.30206 14.0354 9.35901 14.1729 9.35901 14.3163V18.0849C9.35901 18.156 9.34501 18.2263 9.31781 18.2919C9.29061 18.3575 9.25075 18.4172 9.2005 18.4674C9.15024 18.5176 9.09059 18.5574 9.02495 18.5845C8.9593 18.6116 8.88896 18.6256 8.81793 18.6255ZM5.58982 17.5444H8.27739V14.8568H5.59036L5.58982 17.5444Z" fill="#D8AE75"/>
<path d="M16.4785 26.1724H12.711C12.5676 26.1724 12.4301 26.1154 12.3287 26.0141C12.2274 25.9127 12.1704 25.7752 12.1704 25.6318V21.8632C12.1704 21.7198 12.2274 21.5823 12.3287 21.481C12.4301 21.3796 12.5676 21.3226 12.711 21.3226H16.4791C16.6224 21.3226 16.7599 21.3796 16.8613 21.481C16.9627 21.5823 17.0196 21.7198 17.0196 21.8632V25.6318C17.0196 25.7029 17.0056 25.7732 16.9784 25.8388C16.9512 25.9044 16.9113 25.964 16.8611 26.0142C16.8108 26.0644 16.7512 26.1042 16.6855 26.1314C16.6199 26.1585 16.5496 26.1724 16.4785 26.1724ZM13.251 25.0913H15.938V22.4037H13.2515L13.251 25.0913Z" fill="#D8AE75"/>
<path d="M8.81793 26.1724H5.04982C4.90646 26.1724 4.76897 26.1154 4.6676 26.0141C4.56623 25.9127 4.50928 25.7752 4.50928 25.6318V21.8632C4.50928 21.7198 4.56623 21.5823 4.6676 21.481C4.76897 21.3796 4.90646 21.3226 5.04982 21.3226H8.81847C8.96183 21.3226 9.09932 21.3796 9.20069 21.481C9.30206 21.5823 9.35901 21.7198 9.35901 21.8632V25.6318C9.35901 25.7029 9.34501 25.7732 9.31781 25.8388C9.29061 25.9044 9.25075 25.964 9.2005 26.0142C9.15024 26.0644 9.09059 26.1042 9.02495 26.1314C8.9593 26.1585 8.88896 26.1724 8.81793 26.1724ZM5.58982 25.0913H8.27739V22.4037H5.59036L5.58982 25.0913Z" fill="#D8AE75"/>
<path d="M34.6805 34.2655H30.9124C30.769 34.2655 30.6315 34.2086 30.5301 34.1072C30.4288 34.0058 30.3718 33.8683 30.3718 33.725V29.9563C30.3718 29.813 30.4288 29.6755 30.5301 29.5741C30.6315 29.4727 30.769 29.4158 30.9124 29.4158H34.6805C34.8238 29.4158 34.9613 29.4727 35.0627 29.5741C35.1641 29.6755 35.221 29.813 35.221 29.9563V33.725C35.221 33.8683 35.1641 34.0058 35.0627 34.1072C34.9613 34.2086 34.8238 34.2655 34.6805 34.2655ZM31.4529 33.1844H34.1399V30.4969H31.4529V33.1844Z" fill="#D8AE75"/>
<path d="M27.4129 34.2655H23.6448C23.5014 34.2655 23.3639 34.2086 23.2626 34.1072C23.1612 34.0058 23.1042 33.8683 23.1042 33.725V29.9563C23.1042 29.813 23.1612 29.6755 23.2626 29.5741C23.3639 29.4727 23.5014 29.4158 23.6448 29.4158H27.4129C27.5562 29.4158 27.6937 29.4727 27.7951 29.5741C27.8965 29.6755 27.9534 29.813 27.9534 29.9563V33.725C27.9534 33.8683 27.8965 34.0058 27.7951 34.1072C27.6937 34.2086 27.5562 34.2655 27.4129 34.2655ZM24.1853 33.1844H26.8723V30.4969H24.1853V33.1844Z" fill="#D8AE75"/>
<path d="M14.5762 37.2666H6.99293C6.84957 37.2666 6.71208 37.2096 6.61071 37.1083C6.50934 37.0069 6.45239 36.8694 6.45239 36.726V29.1433C6.45239 29 6.50934 28.8625 6.61071 28.7611C6.71208 28.6597 6.84957 28.6028 6.99293 28.6028H14.5762C14.7195 28.6028 14.857 28.6597 14.9584 28.7611C15.0598 28.8625 15.1167 29 15.1167 29.1433V36.726C15.1167 36.8694 15.0598 37.0069 14.9584 37.1083C14.857 37.2096 14.7195 37.2666 14.5762 37.2666ZM7.53347 36.1855H14.0356V29.6839H7.53347V36.1855Z" fill="#D8AE75"/>
</svg>
