<svg width="40" height="40" viewBox="0 0 40 40" fill="none" xmlns="http://www.w3.org/2000/svg">
<path d="M21.2665 37.3049C20.9129 37.3049 20.5617 37.2486 20.2259 37.1379L8.57673 33.3109C7.75916 33.0453 6.89609 32.9488 6.04004 33.0273C5.18399 33.1058 4.35287 33.3577 3.59727 33.7677L1.97565 35.1779C1.89743 35.2457 1.80139 35.2896 1.69895 35.3045C1.5965 35.3193 1.49196 35.3044 1.39774 35.2615C1.30352 35.2186 1.22359 35.1496 1.16745 35.0626C1.11131 34.9757 1.08133 34.8744 1.08105 34.7709V25.8304C1.08108 25.7198 1.11498 25.612 1.17819 25.5213C1.2414 25.4307 1.33088 25.3616 1.43457 25.3233L8.51024 22.7179C9.93553 22.1986 11.4617 22.0164 12.9692 22.1855L26.0994 23.6936C26.6661 23.7576 27.1892 24.0282 27.5688 24.4538C27.9483 24.8793 28.1577 25.4299 28.1567 26.0001C28.1575 26.0701 28.1547 26.1401 28.1481 26.2098C28.1326 26.3835 28.0974 26.5549 28.0432 26.7206L35.1621 22.0358C35.6436 21.7315 36.2152 21.6026 36.7807 21.6708C37.3461 21.7391 37.8707 22.0003 38.2659 22.4104C38.5005 22.6615 38.679 22.9596 38.7896 23.2849C38.9001 23.6103 38.9402 23.9555 38.9072 24.2975C38.8742 24.6395 38.7688 24.9707 38.598 25.2689C38.4273 25.5671 38.195 25.8255 37.9167 26.0271L23.2248 36.6704C22.6557 37.084 21.97 37.3062 21.2665 37.3049ZM6.627 31.9201C7.40383 31.9196 8.1758 32.0426 8.91403 32.2844L20.5638 36.1114C20.9022 36.223 21.2624 36.2524 21.6145 36.1972C21.9666 36.1421 22.3005 36.0039 22.5886 35.7941L37.2832 25.1493C37.4381 25.0387 37.5674 24.896 37.6621 24.7308C37.7568 24.5657 37.8147 24.3821 37.8319 24.1925C37.8501 24.0028 37.8278 23.8113 37.7665 23.6308C37.7052 23.4503 37.6062 23.2849 37.4762 23.1455C37.2568 22.9178 36.9655 22.773 36.6516 22.7353C36.3377 22.6977 36.0205 22.7697 35.7535 22.939L23.4292 31.0471C23.343 31.1039 23.2424 31.1348 23.1393 31.1362C23.0361 31.1377 22.9347 31.1096 22.847 31.0552L18.6848 28.4747L15.3378 28.5471C15.2666 28.5494 15.1957 28.5375 15.1292 28.512C15.0627 28.4865 15.0019 28.448 14.9505 28.3987C14.8991 28.3494 14.858 28.2903 14.8298 28.2249C14.8015 28.1595 14.7866 28.0891 14.7859 28.0179C14.7844 27.9469 14.7969 27.8763 14.8227 27.8102C14.8485 27.744 14.887 27.6836 14.9362 27.6323C14.9853 27.5811 15.0441 27.54 15.1091 27.5115C15.1741 27.483 15.2441 27.4675 15.3151 27.466L18.8156 27.3904H18.8308L25.8659 27.2341C26.1718 27.2268 26.4641 27.1069 26.6871 26.8975C26.9101 26.6881 27.0481 26.4038 27.0746 26.099C27.0776 26.0649 27.0787 26.0306 27.0778 25.9963C27.078 25.6921 26.9661 25.3984 26.7635 25.1715C26.5609 24.9445 26.2817 24.8002 25.9794 24.766L12.8465 23.2595C11.5064 23.1089 10.1497 23.2708 8.88268 23.7325L2.16214 26.2071V33.5839L2.93187 32.9141C2.96049 32.8891 2.99165 32.8672 3.02484 32.8487C4.12766 32.2394 5.36705 31.9199 6.627 31.9201ZM20.6643 28.4325L23.1216 29.9563L25.6038 28.3244L20.6643 28.4325Z" fill="#D8AE75"/>
<path d="M26.3604 24.8373C26.2353 24.8374 26.1141 24.7941 26.0174 24.7147C25.9206 24.6354 25.8544 24.525 25.83 24.4023C25.8056 24.2796 25.8244 24.1522 25.8834 24.0419C25.9424 23.9316 26.0378 23.8451 26.1534 23.7973L31.0686 21.7605C31.6276 21.5309 32.2462 21.489 32.8311 21.6413C33.416 21.7936 33.9357 22.1317 34.3118 22.6049L34.6129 22.9832C34.6568 23.039 34.6894 23.1028 34.7087 23.1711C34.728 23.2394 34.7337 23.3109 34.7254 23.3814C34.7171 23.4519 34.695 23.52 34.6603 23.582C34.6257 23.6439 34.5791 23.6985 34.5234 23.7424C34.4677 23.7864 34.4039 23.819 34.3355 23.8383C34.2672 23.8576 34.1958 23.8632 34.1253 23.8549C34.0548 23.8466 33.9866 23.8245 33.9247 23.7899C33.8627 23.7552 33.8082 23.7087 33.7642 23.653L33.4637 23.2746C33.2339 22.9855 32.9164 22.7789 32.559 22.6859C32.2016 22.5929 31.8236 22.6185 31.4821 22.7589L26.5669 24.7957C26.5015 24.823 26.4313 24.8371 26.3604 24.8373Z" fill="#D8AE75"/>
<path d="M23.2432 19.7654C23.1226 19.7654 23.0054 19.7251 22.9103 19.6508C22.5816 19.393 14.8535 13.2892 14.8535 8.45619C14.8535 5.27944 17.1827 2.69457 20.0454 2.69457C21.2251 2.70023 22.3621 3.13614 23.2432 3.92052C24.1244 3.13607 25.2614 2.69998 26.4411 2.69403C29.3059 2.69403 31.6335 5.2789 31.6335 8.45565C31.6335 13.2886 23.9038 19.3924 23.5762 19.6502C23.4812 19.7247 23.364 19.7653 23.2432 19.7654ZM20.0454 3.77511C17.7789 3.77511 15.9346 5.87457 15.9346 8.45565C15.9346 12.2394 21.7724 17.3102 23.2432 18.5281C24.7151 17.3102 30.5524 12.24 30.5524 8.45565C30.5524 5.87457 28.7081 3.77511 26.4411 3.77511C25.9118 3.78158 25.3895 3.89732 24.9071 4.11507C24.4246 4.33281 23.9923 4.64788 23.6373 5.04052C23.5868 5.0944 23.5257 5.13736 23.458 5.16674C23.3902 5.19612 23.3171 5.21129 23.2432 5.21133C23.1694 5.21136 23.0964 5.19627 23.0286 5.16699C22.9608 5.1377 22.8998 5.09485 22.8492 5.04106C22.4943 4.64827 22.062 4.33307 21.5795 4.11522C21.097 3.89738 20.5748 3.78158 20.0454 3.77511Z" fill="#D8AE75"/>
</svg>
