<svg width="40" height="40" viewBox="0 0 40 40" fill="none" xmlns="http://www.w3.org/2000/svg">
<path d="M27.1265 35.812H12.8735C12.7302 35.812 12.5927 35.755 12.4913 35.6536C12.39 35.5523 12.333 35.4148 12.333 35.2714V33.4552C12.3336 32.858 12.5711 32.2854 12.9934 31.8631C13.4157 31.4408 13.9882 31.2033 14.5854 31.2028H25.4146C26.0118 31.2033 26.5844 31.4408 27.0067 31.8631C27.429 32.2854 27.6665 32.858 27.6671 33.4552V35.272C27.6669 35.4152 27.6099 35.5526 27.5086 35.6538C27.4072 35.7551 27.2698 35.812 27.1265 35.812ZM13.4146 34.7309H26.586V33.4552C26.5857 33.1446 26.4622 32.8468 26.2426 32.6272C26.023 32.4076 25.7252 32.2841 25.4146 32.2838H14.5854C14.2749 32.2841 13.9771 32.4076 13.7575 32.6272C13.5379 32.8468 13.4144 33.1446 13.4141 33.4552L13.4146 34.7309Z" fill="#D8AE75"/>
<path d="M21.319 32.2864H18.6865C18.5432 32.2864 18.4057 32.2295 18.3043 32.1281C18.2029 32.0267 18.146 31.8892 18.146 31.7459V9.74047C18.146 9.5971 18.2029 9.45962 18.3043 9.35824C18.4057 9.25687 18.5432 9.19992 18.6865 9.19992C18.8299 9.19992 18.9674 9.25687 19.0688 9.35824C19.1701 9.45962 19.2271 9.5971 19.2271 9.74047V31.2053H20.7784V9.73506C20.7784 9.5917 20.8354 9.45421 20.9368 9.35284C21.0381 9.25147 21.1756 9.19452 21.319 9.19452C21.4623 9.19452 21.5998 9.25147 21.7012 9.35284C21.8026 9.45421 21.8595 9.5917 21.8595 9.73506V31.7459C21.8595 31.8892 21.8026 32.0267 21.7012 32.1281C21.5998 32.2295 21.4623 32.2864 21.319 32.2864Z" fill="#D8AE75"/>
<path d="M19.9999 10.6252C19.3633 10.6252 18.741 10.4365 18.2117 10.0828C17.6824 9.72916 17.2698 9.22649 17.0261 8.63838C16.7825 8.05026 16.7187 7.4031 16.8428 6.77872C16.9669 6.15434 17.2734 5.58078 17.7234 5.13056C18.1735 4.68034 18.7469 4.37369 19.3713 4.24936C19.9956 4.12504 20.6428 4.18863 21.231 4.43209C21.8192 4.67556 22.322 5.08797 22.6758 5.61718C23.0297 6.14638 23.2186 6.76862 23.2188 7.40522C23.2181 8.25881 22.8788 9.07725 22.2753 9.68093C21.6718 10.2846 20.8535 10.6242 19.9999 10.6252ZM19.9999 5.269C19.577 5.269 19.1636 5.39442 18.812 5.6294C18.4604 5.86438 18.1864 6.19837 18.0247 6.5891C17.8629 6.97983 17.8207 7.40976 17.9033 7.82451C17.9859 8.23925 18.1897 8.62017 18.4888 8.91909C18.788 9.21801 19.169 9.42149 19.5838 9.5038C19.9987 9.5861 20.4286 9.54353 20.8192 9.38148C21.2098 9.21942 21.5435 8.94516 21.7783 8.59338C22.013 8.2416 22.1381 7.82811 22.1378 7.40522C22.1368 6.83868 21.9112 6.29567 21.5104 5.89522C21.1096 5.49477 20.5665 5.26957 19.9999 5.269Z" fill="#D8AE75"/>
<path d="M30.1471 7.94973H22.679C22.5356 7.94973 22.3981 7.89278 22.2967 7.79141C22.1954 7.69004 22.1384 7.55255 22.1384 7.40919C22.1384 7.26583 22.1954 7.12834 22.2967 7.02697C22.3981 6.9256 22.5356 6.86865 22.679 6.86865H30.1471C30.2904 6.86865 30.4279 6.9256 30.5293 7.02697C30.6307 7.12834 30.6876 7.26583 30.6876 7.40919C30.6876 7.55255 30.6307 7.69004 30.5293 7.79141C30.4279 7.89278 30.2904 7.94973 30.1471 7.94973Z" fill="#D8AE75"/>
<path d="M17.3194 7.94973H9.7837C9.64034 7.94973 9.50286 7.89278 9.40148 7.79141C9.30011 7.69004 9.24316 7.55255 9.24316 7.40919C9.24316 7.26583 9.30011 7.12834 9.40148 7.02697C9.50286 6.9256 9.64034 6.86865 9.7837 6.86865H17.3194C17.4627 6.86865 17.6002 6.9256 17.7016 7.02697C17.803 7.12834 17.8599 7.26583 17.8599 7.40919C17.8599 7.55255 17.803 7.69004 17.7016 7.79141C17.6002 7.89278 17.4627 7.94973 17.3194 7.94973Z" fill="#D8AE75"/>
<path d="M31.3428 9.14429C30.9996 9.14429 30.6641 9.04252 30.3788 8.85186C30.0935 8.6612 29.8711 8.39021 29.7397 8.07316C29.6084 7.7561 29.5741 7.40722 29.641 7.07064C29.708 6.73406 29.8732 6.42488 30.1159 6.18222C30.3585 5.93956 30.6677 5.7743 31.0043 5.70735C31.3409 5.6404 31.6897 5.67476 32.0068 5.80609C32.3239 5.93742 32.5948 6.15982 32.7855 6.44516C32.9762 6.7305 33.0779 7.06597 33.0779 7.40915C33.0774 7.86916 32.8944 8.31017 32.5691 8.63544C32.2438 8.96072 31.8028 9.14371 31.3428 9.14429ZM31.3428 6.75455C31.2134 6.75455 31.087 6.79291 30.9794 6.86478C30.8719 6.93665 30.788 7.0388 30.7385 7.15831C30.689 7.27783 30.6761 7.40933 30.7013 7.53621C30.7265 7.66308 30.7888 7.77962 30.8803 7.87109C30.9718 7.96257 31.0883 8.02486 31.2152 8.0501C31.3421 8.07533 31.4736 8.06238 31.5931 8.01288C31.7126 7.96337 31.8148 7.87954 31.8866 7.77198C31.9585 7.66442 31.9968 7.53797 31.9968 7.40861C31.996 7.23561 31.9267 7.06996 31.8042 6.94783C31.6817 6.8257 31.5158 6.757 31.3428 6.75672V6.75455Z" fill="#D8AE75"/>
<path d="M37.6627 18.9784H25.0232C24.9261 18.9784 24.8308 18.9523 24.7473 18.9027C24.6638 18.8532 24.5952 18.782 24.5487 18.6968C24.5022 18.6116 24.4795 18.5154 24.483 18.4184C24.4865 18.3214 24.5161 18.2271 24.5686 18.1454L30.8881 8.31138C30.9401 8.23938 31.0084 8.18075 31.0875 8.14032C31.1666 8.09988 31.2541 8.0788 31.3429 8.0788C31.4317 8.0788 31.5193 8.09988 31.5984 8.14032C31.6774 8.18075 31.7458 8.23938 31.7978 8.31138L38.1178 18.1454C38.1703 18.2271 38.1999 18.3214 38.2034 18.4184C38.2069 18.5154 38.1842 18.6116 38.1377 18.6968C38.0912 18.782 38.0226 18.8532 37.9391 18.9027C37.8556 18.9523 37.7603 18.9784 37.6632 18.9784H37.6627ZM26.0129 17.8973H36.6724L31.3427 9.60381L26.0129 17.8973Z" fill="#D8AE75"/>
<path d="M31.3428 26.0351C29.3342 26.0328 27.4085 25.2338 25.9883 23.8135C24.5681 22.3931 23.7692 20.4674 23.7671 18.4588C23.7663 18.3132 23.8223 18.173 23.9233 18.068C24.0242 17.9631 24.1621 17.9016 24.3076 17.8967H38.3784C38.5218 17.8967 38.6593 17.9536 38.7607 18.055C38.862 18.1564 38.919 18.2938 38.919 18.4372C38.9213 20.4492 38.1245 22.3798 36.7038 23.8046C35.2831 25.2293 33.3548 26.0316 31.3428 26.0351ZM24.8687 18.9783C24.9993 20.6057 25.738 22.1243 26.9378 23.2317C28.1376 24.339 29.7104 24.9539 31.343 24.9539C32.9757 24.9539 34.5485 24.339 35.7483 23.2317C36.948 22.1243 37.6868 20.6057 37.8174 18.9783H24.8687Z" fill="#D8AE75"/>
<path d="M8.65726 9.14429C8.31408 9.14429 7.97861 9.04252 7.69327 8.85186C7.40792 8.6612 7.18553 8.39021 7.0542 8.07316C6.92287 7.7561 6.88851 7.40722 6.95546 7.07064C7.02241 6.73406 7.18767 6.42488 7.43033 6.18222C7.67299 5.93956 7.98216 5.7743 8.31875 5.70735C8.65533 5.6404 9.00421 5.67476 9.32126 5.80609C9.63832 5.93742 9.90931 6.15982 10.1 6.44516C10.2906 6.7305 10.3924 7.06597 10.3924 7.40915C10.3918 7.86916 10.2088 8.31017 9.88355 8.63544C9.55827 8.96072 9.11727 9.14371 8.65726 9.14429ZM8.65726 6.75455C8.5279 6.75455 8.40144 6.79291 8.29388 6.86478C8.18632 6.93665 8.10249 7.0388 8.05299 7.15831C8.00348 7.27783 7.99053 7.40933 8.01577 7.53621C8.04101 7.66308 8.1033 7.77962 8.19477 7.87109C8.28624 7.96257 8.40278 8.02486 8.52966 8.0501C8.65653 8.07533 8.78804 8.06238 8.90755 8.01288C9.02707 7.96337 9.12921 7.87954 9.20108 7.77198C9.27295 7.66442 9.31131 7.53797 9.31131 7.40861C9.31045 7.23561 9.2412 7.06996 9.11867 6.94783C8.99613 6.8257 8.83026 6.757 8.65726 6.75672V6.75455Z" fill="#D8AE75"/>
<path d="M14.9766 18.9784H2.33716C2.24007 18.9784 2.14478 18.9523 2.06129 18.9027C1.9778 18.8532 1.9092 18.782 1.86269 18.6968C1.81618 18.6116 1.79348 18.5154 1.79698 18.4184C1.80048 18.3214 1.83004 18.2271 1.88256 18.1454L8.20202 8.31138C8.25402 8.23938 8.32237 8.18075 8.40145 8.14032C8.48053 8.09988 8.56807 8.0788 8.65689 8.0788C8.7457 8.0788 8.83325 8.09988 8.91233 8.14032C8.99141 8.18075 9.05976 8.23938 9.11175 8.31138L15.4312 18.1454C15.4837 18.2271 15.5133 18.3214 15.5168 18.4184C15.5203 18.5154 15.4976 18.6116 15.4511 18.6968C15.4046 18.782 15.336 18.8532 15.2525 18.9027C15.169 18.9523 15.0737 18.9784 14.9766 18.9784ZM3.32689 17.8973H13.9863L8.65662 9.60381L3.32689 17.8973Z" fill="#D8AE75"/>
<path d="M8.65728 26.0351C6.6486 26.0329 4.72281 25.234 3.30246 23.8137C1.8821 22.3933 1.08321 20.4675 1.08106 18.4588C1.08028 18.3132 1.1363 18.173 1.23724 18.068C1.33817 17.9631 1.47606 17.9016 1.6216 17.8967H15.6924C15.8358 17.8967 15.9733 17.9536 16.0746 18.055C16.176 18.1564 16.233 18.2938 16.233 18.4372V18.4588C16.2308 20.4674 15.432 22.3931 14.0118 23.8135C12.5915 25.2338 10.6659 26.0328 8.65728 26.0351ZM2.18431 18.9783C2.31408 20.6061 3.05237 22.1253 4.25208 23.2332C5.45178 24.341 7.02483 24.9562 8.65782 24.9562C10.2908 24.9562 11.8639 24.341 13.0636 23.2332C14.2633 22.1253 15.0016 20.6061 15.1313 18.9783H2.18431Z" fill="#D8AE75"/>
</svg>
