<svg width="40" height="40" viewBox="0 0 40 40" fill="none" xmlns="http://www.w3.org/2000/svg">
<path d="M27.3065 38.5406C27.1877 38.5406 27.0722 38.5015 26.9779 38.4293L21.5844 34.3011C21.4966 34.2339 21.4316 34.1414 21.398 34.036C21.3645 33.9307 21.3641 33.8176 21.3968 33.712L23.0919 28.239C23.4426 27.1201 24.0478 26.0976 24.8601 25.252L31.833 18.0271C32.1555 17.6927 32.5897 17.4886 33.0529 17.4537C33.5162 17.4188 33.976 17.5555 34.3449 17.8379C34.3918 17.8729 34.4367 17.9105 34.4795 17.9503C34.5006 17.9698 34.5217 17.9898 34.5417 18.0098L34.979 11.8752C35.0124 11.4105 35.2092 10.9727 35.5347 10.6393C35.8601 10.306 36.2931 10.0986 36.7568 10.0541C37.0349 10.0268 37.3156 10.0589 37.5803 10.1484C37.845 10.2379 38.0877 10.3826 38.2922 10.5731C38.4966 10.7635 38.6583 10.9952 38.7664 11.2529C38.8744 11.5106 38.9265 11.7883 38.919 12.0676L38.5563 25.8444C38.546 26.2658 38.4356 26.6788 38.2343 27.0492C38.033 27.4196 37.7465 27.7368 37.3984 27.9747L29.7114 33.2341C29.6033 33.3062 29.4999 33.3835 29.4011 33.466C28.8464 33.9422 28.4127 34.5434 28.1357 35.22C27.8588 35.8967 27.7465 36.6294 27.8082 37.3579L27.8465 37.9644C27.8512 38.0382 27.8407 38.1122 27.8156 38.1817C27.7905 38.2513 27.7515 38.315 27.7008 38.3688C27.6501 38.4227 27.5889 38.4656 27.521 38.4948C27.4531 38.5241 27.3799 38.5391 27.306 38.539L27.3065 38.5406ZM22.5406 33.6703L26.7184 36.8649C26.728 36.0564 26.9116 35.2594 27.2567 34.5281C27.6019 33.7969 28.1004 33.1485 28.7184 32.6271C28.8413 32.5269 28.9689 32.4314 29.1011 32.3406L36.7871 27.0811C36.9936 26.9401 37.1637 26.7519 37.2831 26.5322C37.4026 26.3124 37.4681 26.0674 37.4741 25.8174L37.8379 12.0395C37.8412 11.9133 37.8176 11.7878 37.7687 11.6714C37.7198 11.555 37.6466 11.4504 37.5541 11.3644C37.4616 11.2785 37.3519 11.2132 37.2322 11.1729C37.1126 11.1327 36.9857 11.1183 36.8601 11.1309C36.7382 11.1428 36.6202 11.1796 36.5132 11.239C36.4061 11.2985 36.3125 11.3792 36.2379 11.4763C36.1327 11.6155 36.0698 11.7822 36.0568 11.9563L35.259 23.1352C35.2516 23.2381 35.215 23.3367 35.1534 23.4195C35.0919 23.5023 35.0079 23.5657 34.9114 23.6022L31.4698 24.9076L29.9903 26.9292C29.9052 27.0437 29.7783 27.1199 29.6373 27.1411C29.4962 27.1624 29.3525 27.1271 29.2374 27.0429C29.1223 26.9587 29.0451 26.8324 29.0228 26.6915C29.0004 26.5506 29.0346 26.4066 29.1179 26.2909L30.6855 24.1455L30.6952 24.1325L33.8476 19.8184C33.9657 19.6565 34.0199 19.4567 33.9999 19.2573C33.98 19.0578 33.8873 18.8728 33.7395 18.7374L33.6887 18.6957C33.5306 18.5743 33.3332 18.5154 33.1344 18.5302C32.9356 18.5451 32.7492 18.6327 32.6109 18.7763L25.6379 26.0001C24.9427 26.7246 24.4247 27.6003 24.1244 28.5584L22.5406 33.6703ZM34.3276 20.9952L32.6379 23.3076L34.2055 22.713L34.3276 20.9952Z" fill="#D8AE75"/>
<path d="M32.4097 18.7796C32.3267 18.7796 32.2449 18.7606 32.1705 18.724C32.0961 18.6874 32.0312 18.6342 31.9806 18.5684C31.9301 18.5027 31.8954 18.4262 31.8791 18.3449C31.8629 18.2636 31.8656 18.1797 31.887 18.0996L32.9275 14.1942C33.0544 13.7234 33.3308 13.3066 33.7151 13.0065C34.0994 12.7064 34.5708 12.5393 35.0583 12.5304L35.4269 12.525C35.5703 12.5228 35.7087 12.5777 35.8115 12.6776C35.9144 12.7774 35.9734 12.914 35.9756 13.0574C35.9777 13.2008 35.9229 13.3391 35.823 13.442C35.7232 13.5449 35.5865 13.6039 35.4432 13.606L35.0751 13.6114C34.8228 13.6161 34.5788 13.7026 34.38 13.8579C34.1811 14.0132 34.038 14.2289 33.9724 14.4725L32.9318 18.3785C32.9011 18.4935 32.8333 18.5952 32.7388 18.6677C32.6444 18.7402 32.5287 18.7795 32.4097 18.7796Z" fill="#D8AE75"/>
<path d="M12.6936 38.5405C12.6196 38.5406 12.5464 38.5256 12.4785 38.4963C12.4106 38.467 12.3495 38.4242 12.2988 38.3703C12.2481 38.3164 12.209 38.2528 12.184 38.1832C12.1589 38.1136 12.1484 38.0397 12.153 37.9659L12.1914 37.3594C12.2531 36.6309 12.1408 35.8981 11.8638 35.2215C11.5869 34.5449 11.1532 33.9437 10.5984 33.4675C10.4986 33.386 10.3952 33.3087 10.2882 33.2356L2.60222 27.9751C2.2539 27.7368 1.96725 27.4192 1.76592 27.0483C1.5646 26.6774 1.45439 26.264 1.44438 25.8421L1.08114 12.068C1.0663 11.5525 1.25395 11.0517 1.60388 10.6729C1.95382 10.294 2.43821 10.0673 2.95327 10.0413C3.46834 10.0153 3.9731 10.1921 4.35942 10.5337C4.74574 10.8754 4.98289 11.3547 5.02006 11.8691L5.4579 18.0096C5.4806 17.9864 5.50438 17.9637 5.52871 17.941C5.56892 17.9045 5.61095 17.87 5.65465 17.8378C6.02383 17.5549 6.48425 17.418 6.948 17.4531C7.41174 17.4882 7.8463 17.6928 8.16871 18.028L15.1417 25.2513C15.9537 26.0969 16.5589 27.1191 16.9098 28.2378L18.6055 33.7107C18.6382 33.8163 18.6378 33.9294 18.6042 34.0348C18.5707 34.1401 18.5057 34.2327 18.4179 34.2999L13.0222 38.4269C12.9282 38.4999 12.8126 38.5398 12.6936 38.5405ZM3.04979 11.1259C2.93115 11.1261 2.81376 11.1501 2.70452 11.1964C2.59528 11.2427 2.4964 11.3103 2.4137 11.3954C2.331 11.4805 2.26615 11.5812 2.22296 11.6917C2.17977 11.8022 2.15912 11.9202 2.16222 12.0388L2.52492 25.8161C2.53097 26.0664 2.59648 26.3116 2.71604 26.5316C2.83559 26.7515 3.00576 26.9398 3.21249 27.081L10.9001 32.341C11.032 32.4311 11.1595 32.5266 11.2828 32.6275C11.9008 33.1489 12.3993 33.7973 12.7445 34.5285C13.0896 35.2598 13.2732 36.0568 13.2828 36.8653L17.4595 33.6702L15.8757 28.5588C15.5752 27.6011 15.0572 26.7259 14.3622 26.0015L7.38925 18.7778C7.25116 18.6341 7.06499 18.5462 6.86628 18.5311C6.66757 18.5159 6.47023 18.5745 6.31195 18.6956L6.26817 18.7302C6.11745 18.8651 6.02206 19.0511 6.0004 19.2523C5.97873 19.4534 6.03234 19.6554 6.15087 19.8194L9.30276 24.1329L9.31249 24.1459L10.8801 26.2913C10.9634 26.407 10.9976 26.551 10.9752 26.6919C10.9528 26.8328 10.8757 26.9591 10.7606 27.0433C10.6454 27.1275 10.5017 27.1628 10.3607 27.1415C10.2197 27.1203 10.0927 27.0441 10.0076 26.9296L8.52817 24.908L5.08925 23.6021C4.99279 23.5655 4.90881 23.5021 4.84722 23.4194C4.78563 23.3366 4.74901 23.2379 4.74168 23.135L3.94276 11.9502C3.92706 11.7409 3.83799 11.5439 3.69123 11.3939C3.54448 11.2439 3.34948 11.1505 3.1406 11.1302C3.11033 11.1275 3.08114 11.1259 3.04979 11.1259ZM5.79519 22.7134L7.36276 23.308L5.67303 20.9956L5.79519 22.7134Z" fill="#D8AE75"/>
<path d="M7.59023 18.7794C7.47117 18.7794 7.35545 18.74 7.26104 18.6675C7.16662 18.595 7.09878 18.4933 7.06807 18.3783L6.02699 14.4718C5.96121 14.2283 5.81813 14.0127 5.61926 13.8575C5.42039 13.7023 5.1765 13.6159 4.92428 13.6113L4.55618 13.6059C4.48519 13.6048 4.41511 13.5898 4.34993 13.5616C4.28475 13.5335 4.22576 13.4928 4.17631 13.4418C4.12687 13.3909 4.08795 13.3307 4.06177 13.2647C4.03559 13.1987 4.02267 13.1282 4.02374 13.0572C4.03206 12.9159 4.09301 12.7829 4.19457 12.6844C4.29613 12.5858 4.43093 12.5289 4.57239 12.5248L4.9405 12.5302C5.428 12.5392 5.89938 12.7063 6.28368 13.0063C6.66799 13.3064 6.9444 13.7232 7.07131 14.194L8.11185 18.0994C8.13324 18.1795 8.13592 18.2634 8.11968 18.3447C8.10343 18.426 8.0687 18.5025 8.01817 18.5683C7.96764 18.634 7.90267 18.6872 7.82827 18.7238C7.75388 18.7604 7.67206 18.7794 7.58915 18.7794H7.59023Z" fill="#D8AE75"/>
<path d="M20 22.8649C19.884 22.8644 19.7712 22.8265 19.6784 22.7568C13.8379 18.439 11.4595 14.3785 11.4595 8.75089V5.52224C11.4592 5.44999 11.4734 5.37843 11.5013 5.31176C11.5291 5.2451 11.57 5.1847 11.6216 5.13413C11.674 5.0842 11.7358 5.04509 11.8033 5.01902C11.8708 4.99296 11.9428 4.98046 12.0152 4.98224C13.4518 5.08632 14.8922 4.83793 16.2111 4.25867C17.5299 3.67942 18.6873 2.78681 19.5827 1.65846C19.6354 1.59393 19.7024 1.54263 19.7784 1.50865C19.8544 1.47467 19.9374 1.45896 20.0206 1.46278C20.1036 1.46602 20.1849 1.48839 20.2579 1.52814C20.3309 1.56789 20.3938 1.62395 20.4416 1.69197C21.8854 3.74602 24.2957 4.79359 28.027 4.98278C28.1656 4.98985 28.2961 5.04991 28.3916 5.15053C28.487 5.25114 28.5402 5.38461 28.54 5.52332V8.75197C28.5974 11.5551 27.8367 14.3143 26.3508 16.692C25.0535 18.7498 23.1357 20.6774 20.3206 22.7585C20.2278 22.8273 20.1155 22.8646 20 22.8649ZM12.5406 6.06873V8.75089C12.5406 14.7352 15.5092 18.2671 20 21.6482C22.5287 19.7417 24.2616 17.9768 25.4373 16.1141C26.8125 13.9083 27.5152 11.3496 27.4595 8.75089V6.03035C23.9746 5.77467 21.5676 4.75683 19.973 2.85359C19.0312 3.8837 17.882 4.70276 16.601 5.25691C15.32 5.81105 13.9362 6.08773 12.5406 6.06873Z" fill="#D8AE75"/>
<path d="M18.2069 15.467C18.0636 15.4669 17.9261 15.41 17.8248 15.3086L15.882 13.3664C15.7806 13.2648 15.7237 13.127 15.7239 12.9834C15.724 12.8398 15.7812 12.7022 15.8829 12.6008C15.9845 12.4993 16.1223 12.4424 16.2659 12.4426C16.4095 12.4427 16.5471 12.4999 16.6485 12.6016L18.2069 14.1621L23.3512 9.01563C23.4532 8.91716 23.5897 8.86268 23.7315 8.86391C23.8732 8.86514 24.0088 8.92199 24.109 9.02221C24.2092 9.12243 24.266 9.25801 24.2673 9.39973C24.2685 9.54146 24.214 9.678 24.1156 9.77995L18.5891 15.3086C18.4877 15.41 18.3503 15.4669 18.2069 15.467Z" fill="#D8AE75"/>
</svg>
