<svg width="221" height="40" viewBox="0 0 221 40" fill="none" xmlns="http://www.w3.org/2000/svg">
<g clip-path="url(#clip0_2_70)">
<path d="M35.6551 12.2732C35.9686 12.4524 36.2822 12.4972 36.5957 12.4076C36.8645 12.3628 37.178 12.1836 37.402 11.9149C37.626 11.6013 37.7155 11.2878 37.626 10.9742C37.3124 11.019 36.9989 11.1982 36.8197 11.467C36.6405 11.6909 36.5509 11.9597 36.5509 12.1837C36.4613 11.9597 36.2822 11.7805 36.0582 11.6461C35.7447 11.467 35.3863 11.4222 35.1176 11.5118C35.1176 11.8253 35.3415 12.0941 35.6551 12.2732Z" fill="#DEC291"/>
<path d="M2.68759 12.2732C2.37404 12.4524 2.06049 12.4972 1.74694 12.4076C1.47818 12.3628 1.16463 12.1836 0.940667 11.9149C0.716703 11.6013 0.627117 11.2878 0.716703 10.9742C1.03025 11.019 1.3438 11.1982 1.56777 11.5118C1.74694 11.7357 1.83652 12.0045 1.83652 12.2284C1.92611 12.0045 2.10528 11.8253 2.32924 11.6909C2.64279 11.5118 3.00114 11.467 3.26989 11.5565C3.2251 11.8253 3.00114 12.0941 2.68759 12.2732Z" fill="#DEC291"/>
<path d="M37.0437 13.3931C36.8645 13.617 36.7749 13.8858 36.7749 14.1097C36.6853 13.8858 36.5062 13.7066 36.2822 13.5722C35.9687 13.3931 35.6103 13.3483 35.3416 13.4378C35.3863 13.7514 35.6103 14.0202 35.9239 14.1993C36.2374 14.3785 36.551 14.4233 36.8645 14.3337C37.1333 14.2889 37.4468 14.1097 37.6708 13.841C37.8947 13.5274 37.9843 13.2139 37.8947 12.9003C37.5812 12.9451 37.2676 13.1243 37.0437 13.3931Z" fill="#DEC291"/>
<path d="M1.29897 13.3931C1.47815 13.617 1.56773 13.8858 1.56773 14.1097C1.65732 13.8858 1.83649 13.7066 2.06045 13.5722C2.374 13.3931 2.73235 13.3483 3.0011 13.4378C2.95631 13.7514 2.73235 14.0202 2.4188 14.1993C2.15004 14.3785 1.7917 14.4233 1.52294 14.3337C1.25418 14.2889 0.940632 14.1097 0.716668 13.841C0.492704 13.5274 0.403118 13.2139 0.492704 12.9003C0.761461 12.9451 1.07501 13.1243 1.29897 13.3931Z" fill="#DEC291"/>
<path d="M37.2677 15.2296C37.0885 15.4535 36.9989 15.7223 36.9989 15.991C36.9093 15.7671 36.7301 15.5431 36.4614 15.4087C36.1478 15.2296 35.7447 15.1848 35.4312 15.2744C35.4759 15.5879 35.6999 15.9015 36.0583 16.0806C36.3718 16.2598 36.7301 16.3046 37.0437 16.215C37.3572 16.1702 37.6708 15.991 37.8948 15.6775C38.1187 15.3639 38.2083 15.0056 38.1635 14.692C37.85 14.7368 37.4916 14.916 37.2677 15.2296Z" fill="#DEC291"/>
<path d="M1.07502 15.2296C1.25419 15.4535 1.34378 15.7223 1.34378 15.991C1.43337 15.7671 1.61254 15.5431 1.88129 15.4087C2.23964 15.1848 2.59798 15.14 2.91153 15.2296C2.86674 15.5431 2.64277 15.8567 2.28443 16.0358C1.97088 16.215 1.61254 16.2598 1.29899 16.1702C0.985438 16.1702 0.671888 15.991 0.447924 15.6775C0.22396 15.3639 0.134374 15.0056 0.179167 14.692C0.492717 14.7368 0.851059 14.916 1.07502 15.2296Z" fill="#DEC291"/>
<path d="M36.9988 18.0515C36.9093 17.7828 36.7749 17.5588 36.5061 17.3796C36.1926 17.1109 35.8342 17.0213 35.4759 17.1109C35.5207 17.4244 35.6999 17.7828 36.0134 18.0067C36.327 18.2307 36.6853 18.3203 36.9988 18.3203C37.3124 18.3203 37.6707 18.1859 37.9395 17.9171C38.2083 17.6484 38.3426 17.29 38.3426 16.9317C38.0291 16.9317 37.6707 17.0661 37.3572 17.3348C37.1332 17.5588 37.0436 17.8276 36.9988 18.0515Z" fill="#DEC291"/>
<path d="M1.34379 18.0515C1.43337 17.7828 1.56775 17.5588 1.83651 17.3796C2.15006 17.1109 2.5084 17.0213 2.86674 17.1109C2.82195 17.4244 2.64278 17.7828 2.32923 18.0067C2.01568 18.2755 1.65733 18.3651 1.34379 18.3203C1.03024 18.3203 0.671893 18.1859 0.403136 17.9171C0.134378 17.6036 0 17.2453 0 16.9317C0.31355 16.9317 0.671893 17.0661 0.985442 17.3348C1.20941 17.5588 1.34379 17.8276 1.34379 18.0515Z" fill="#DEC291"/>
<path d="M37.3125 19.5297C37.0885 19.7089 36.9093 19.9776 36.8197 20.2016C36.7749 19.9328 36.6406 19.6641 36.4166 19.4849C36.1478 19.2161 35.7895 19.037 35.4312 19.0817C35.4312 19.3953 35.5655 19.7536 35.8343 20.0672C36.103 20.336 36.4614 20.4703 36.7749 20.4703C37.0885 20.5151 37.4468 20.4255 37.7604 20.1568C38.0739 19.888 38.2531 19.5745 38.2979 19.2161C38.0291 19.1713 37.626 19.2609 37.3125 19.5297Z" fill="#DEC291"/>
<path d="M1.03024 19.5297C1.2542 19.7089 1.43337 19.9776 1.52296 20.2016C1.56775 19.9328 1.70213 19.6641 1.92609 19.4849C2.19485 19.2161 2.55319 19.037 2.91153 19.0817C2.91153 19.3953 2.77716 19.7536 2.5084 20.0672C2.23964 20.336 1.8813 20.4703 1.56775 20.4703C1.2542 20.5151 0.895857 20.4255 0.582307 20.1568C0.179171 19.888 0 19.5745 0 19.2161C0.31355 19.1713 0.716685 19.2609 1.03024 19.5297Z" fill="#DEC291"/>
<path d="M36.8645 21.9933C36.5509 22.1724 36.3718 22.3964 36.2374 22.6652C36.2374 22.3964 36.1478 22.0829 35.9238 21.7693C35.6551 21.411 35.2967 21.187 34.9384 21.1422C34.8488 21.5006 34.9384 21.9485 35.2071 22.3068C35.4759 22.6652 35.8342 22.8891 36.1926 22.9339C36.5509 23.0235 36.9541 22.9787 37.3124 22.7995C37.7155 22.5756 37.9395 22.2172 38.0291 21.8589C37.7155 21.7245 37.2676 21.7693 36.8645 21.9933Z" fill="#DEC291"/>
<path d="M1.47815 21.9933C1.7917 22.1724 1.97087 22.3964 2.10525 22.6652C2.10525 22.3964 2.19484 22.0829 2.4188 21.7693C2.68756 21.411 3.0459 21.187 3.40424 21.1422C3.49383 21.5006 3.40424 21.9485 3.13549 22.3068C2.86673 22.6652 2.50839 22.8891 2.15004 22.9339C1.7917 23.0235 1.38857 22.9787 1.03022 22.7995C0.627087 22.5756 0.403123 22.2172 0.313538 21.8589C0.67188 21.7245 1.07502 21.7693 1.47815 21.9933Z" fill="#DEC291"/>
<path d="M35.8791 24.4121C35.5207 24.5465 35.252 24.7704 35.0728 25.0392C35.1176 24.7256 35.0728 24.3673 34.8936 24.0537C34.6697 23.6058 34.3113 23.2923 33.9082 23.2027C33.7738 23.561 33.7738 24.0537 33.9978 24.5017C34.2217 24.9496 34.5353 25.2183 34.9384 25.3527C35.2968 25.5319 35.7447 25.5767 36.1926 25.3975C36.6405 25.2183 36.9989 24.9048 37.1333 24.5465C36.8197 24.2777 36.3718 24.2329 35.8791 24.4121Z" fill="#DEC291"/>
<path d="M2.46361 24.4121C2.82195 24.5465 3.09071 24.7704 3.26988 25.0392C3.22509 24.7256 3.26988 24.3673 3.44905 24.0537C3.67302 23.6058 4.03136 23.2923 4.4345 23.2027C4.56887 23.561 4.56887 24.0537 4.34491 24.5017C4.12095 24.9496 3.8074 25.2183 3.40426 25.3527C3.04592 25.5319 2.59799 25.5767 2.15006 25.3975C1.70213 25.2183 1.34379 24.9048 1.20941 24.5465C1.52296 24.2777 1.97089 24.2329 2.46361 24.4121Z" fill="#DEC291"/>
<path d="M34.7144 26.383C34.3561 26.5174 34.0873 26.7413 33.9082 27.0101C33.953 26.6965 33.9082 26.3382 33.729 26.0246C33.505 25.5767 33.1467 25.2632 32.7436 25.1736C32.6092 25.5319 32.654 25.9799 32.8779 26.4278C33.1019 26.8757 33.4154 27.1445 33.8186 27.2788C34.1769 27.458 34.6249 27.5028 35.0728 27.3236C35.5207 27.1445 35.8791 26.8309 36.0134 26.4726C35.6551 26.2486 35.1624 26.2486 34.7144 26.383Z" fill="#DEC291"/>
<path d="M3.62822 26.383C3.98657 26.5174 4.25532 26.7413 4.43449 27.0101C4.3897 26.6965 4.43449 26.3382 4.61367 26.0246C4.83763 25.5767 5.19597 25.2632 5.59911 25.1736C5.73349 25.5319 5.73349 26.0246 5.50952 26.4726C5.28556 26.9205 4.97201 27.1893 4.56887 27.3236C4.21053 27.5028 3.7626 27.5476 3.31467 27.3684C2.86674 27.1893 2.5084 26.8757 2.37402 26.5174C2.68757 26.2486 3.18029 26.2486 3.62822 26.383Z" fill="#DEC291"/>
<path d="M33.505 28.4882C33.1467 28.5778 32.8331 28.757 32.6092 28.9809C32.6988 28.6674 32.6988 28.3091 32.5644 27.9507C32.3852 27.5028 32.0717 27.1444 31.7133 26.9653C31.5341 27.3236 31.4893 27.7715 31.6237 28.2643C31.7581 28.7122 32.0717 29.0705 32.43 29.2049C32.7435 29.4289 33.1915 29.5185 33.6842 29.3841C34.1769 29.2945 34.5353 28.981 34.7592 28.6226C34.4457 28.4882 33.9977 28.3986 33.505 28.4882Z" fill="#DEC291"/>
<path d="M4.83763 28.4882C5.19598 28.5778 5.50953 28.757 5.73349 28.9809C5.64391 28.6674 5.6439 28.3091 5.77828 27.9507C5.95745 27.5028 6.271 27.1444 6.62935 26.9653C6.80852 27.3236 6.85331 27.7715 6.71893 28.2643C6.58455 28.7122 6.271 29.0705 5.91266 29.2049C5.59911 29.4289 5.15118 29.5185 4.65846 29.3841C4.16574 29.2945 3.8074 28.981 3.58344 28.6226C3.89698 28.4882 4.38971 28.3986 4.83763 28.4882Z" fill="#DEC291"/>
<path d="M31.9373 30.2799C31.579 30.3247 31.2206 30.4591 30.9967 30.6831C31.131 30.3695 31.1758 30.056 31.0862 29.6528C30.9967 29.1601 30.6831 28.8018 30.3696 28.5778C30.1456 28.8914 30.056 29.3841 30.1456 29.8768C30.2352 30.3247 30.5039 30.7279 30.8623 30.907C31.1758 31.1758 31.6238 31.3102 32.0717 31.2654C32.5644 31.2206 32.9675 30.9518 33.1915 30.6383C32.878 30.3695 32.43 30.2352 31.9373 30.2799Z" fill="#DEC291"/>
<path d="M6.40538 30.2799C6.76373 30.3247 7.12207 30.4591 7.34603 30.6831C7.21165 30.3695 7.16686 30.056 7.25645 29.6528C7.34603 29.1601 7.65958 28.8018 7.97313 28.5778C8.1971 28.8914 8.28668 29.3841 8.1971 29.8768C8.10751 30.3247 7.83875 30.7279 7.48041 30.907C7.16686 31.1758 6.71893 31.3102 6.271 31.2654C5.77828 31.2206 5.37515 30.9518 5.15118 30.6383C5.46473 30.3695 5.91266 30.2352 6.40538 30.2799Z" fill="#DEC291"/>
<path d="M30.3248 32.2508C29.9216 32.2508 29.5633 32.43 29.2945 32.654C29.4289 32.3404 29.5185 31.9373 29.4289 31.5341C29.3393 30.9966 29.0706 30.5487 28.6674 30.3247C28.3987 30.6831 28.2643 31.1758 28.3539 31.7133C28.4435 32.2508 28.7122 32.654 29.0706 32.9227C29.3841 33.2363 29.8768 33.4154 30.3696 33.3707C30.9071 33.3259 31.3998 33.1019 31.6685 32.7436C31.355 32.43 30.8623 32.206 30.3248 32.2508Z" fill="#DEC291"/>
<path d="M8.01792 32.2508C8.42105 32.2508 8.7794 32.43 9.04815 32.654C8.91378 32.3404 8.82419 31.9373 8.91378 31.5341C9.00336 30.9966 9.27212 30.5487 9.67525 30.3247C9.94401 30.6831 10.0784 31.1758 9.9888 31.7133C9.89922 32.2508 9.63046 32.654 9.27212 32.9227C8.95857 33.2363 8.46585 33.4154 7.97313 33.3707C7.43561 33.3259 6.94289 33.1019 6.67413 32.7436C6.98768 32.43 7.4804 32.206 8.01792 32.2508Z" fill="#DEC291"/>
<path d="M28.3987 33.8634C27.9955 33.8634 27.5924 33.953 27.3236 34.1321C27.5028 33.8186 27.5924 33.4602 27.5476 33.0571C27.5028 32.5196 27.2788 32.0717 26.9205 31.7581C26.6069 32.0717 26.4278 32.5644 26.4726 33.1019C26.5174 33.6394 26.7413 34.0873 27.0997 34.3561C27.3684 34.6696 27.8611 34.8936 28.3539 34.8936C28.8914 34.8936 29.3841 34.7144 29.6977 34.4009C29.3841 34.1321 28.9362 33.8634 28.3987 33.8634Z" fill="#DEC291"/>
<path d="M9.98881 33.8634C10.3919 33.8634 10.7951 33.953 11.0638 34.1321C10.8847 33.8186 10.7951 33.4602 10.8399 33.0571C10.8847 32.5196 11.1086 32.0717 11.467 31.7581C11.7805 32.0717 11.9597 32.5644 11.9149 33.1019C11.8701 33.6394 11.6461 34.0873 11.2878 34.3561C11.019 34.6696 10.5263 34.8936 10.0336 34.8936C9.49609 34.8936 9.00337 34.7144 8.68982 34.4009C8.95858 34.1321 9.4065 33.8634 9.98881 33.8634Z" fill="#DEC291"/>
<path d="M25.9798 35.4311C25.5767 35.3863 25.1736 35.4311 24.86 35.5655C25.084 35.2968 25.2184 34.9384 25.2184 34.5353C25.2632 33.9978 25.0392 33.505 24.7256 33.1915C24.3673 33.4603 24.1433 33.953 24.0985 34.4905C24.0538 35.028 24.2329 35.4759 24.5465 35.7895C24.8152 36.1478 25.2184 36.4166 25.7559 36.5062C26.2934 36.5958 26.7861 36.4614 27.1445 36.1926C26.9653 35.8343 26.5174 35.5207 25.9798 35.4311Z" fill="#DEC291"/>
<path d="M12.3629 35.4311C12.766 35.3863 13.1691 35.4311 13.4827 35.5655C13.2587 35.2968 13.1243 34.9384 13.1243 34.5353C13.0795 33.9978 13.3035 33.505 13.6171 33.1915C13.9754 33.4603 14.1994 33.953 14.2442 34.4905C14.2889 35.028 14.1098 35.4759 13.7962 35.7895C13.5275 36.1478 13.1243 36.4166 12.5868 36.5062C12.0493 36.5958 11.5566 36.4614 11.1982 36.1926C11.3774 35.8343 11.8253 35.5207 12.3629 35.4311Z" fill="#DEC291"/>
<path d="M36.3718 11.0638C36.551 10.7951 36.6405 10.3919 36.551 10.0336C36.4614 9.67525 36.2374 9.4065 35.9238 9.22733C35.7447 9.49608 35.6551 9.89922 35.7447 10.2576C35.8343 10.6159 36.103 10.9295 36.3718 11.0638Z" fill="#DEC291"/>
<path d="M1.97091 11.0638C1.79174 10.7951 1.70215 10.4367 1.79174 10.0784C1.88132 9.72005 2.10529 9.4513 2.41884 9.27213C2.59801 9.54088 2.68759 9.94402 2.59801 10.3024C2.50842 10.6159 2.28446 10.9295 1.97091 11.0638Z" fill="#DEC291"/>
<path d="M32.8332 13.3931C31.355 7.21165 32.1165 4.61366 32.1165 4.61366C32.1165 4.61366 23.3819 2.77716 19.2162 0C19.2162 0 19.2162 0 19.1714 0C19.1714 0 19.1714 0 19.1266 0C14.9608 2.77716 6.22623 4.61366 6.22623 4.61366C6.22623 4.61366 6.98771 7.21165 5.50955 13.3931C4.70328 16.8869 4.65848 26.9205 19.1714 33.1467C33.6842 26.9205 33.6842 16.8421 32.8332 13.3931ZM15.6327 18.1411L12.0493 21.2766L8.46587 18.0963L10.8847 10.2128H11.3774L9.00339 17.8275H15.0504L12.6764 10.2128H13.1691L15.6327 18.1411ZM22.486 26.9653H15.9015V25.2632H18.3651V9.54087H10.0784V8.7346H18.3651V7.61478H20.0672V8.7346H28.3539V9.54087H20.0224V25.2632H22.486V26.9653ZM26.2934 21.2766L22.71 18.0963L25.1288 10.2576H25.6215L23.2475 17.8723H29.2945L26.9205 10.2576H27.4132L29.8321 18.1411L26.2934 21.2766Z" fill="#D8AE75"/>
<path d="M24.1881 36.6853C23.785 36.6405 23.3819 36.6853 23.0683 36.8197C23.2923 36.5509 23.4267 36.1926 23.4267 35.7895C23.4714 35.2519 23.2475 34.7592 22.9339 34.4457C22.5756 34.7144 22.3516 35.2072 22.3068 35.7447C22.3068 36.1478 22.4412 36.5957 22.6204 36.9093C22.3964 37.0885 21.8589 37.3572 21.187 37.5364C21.2766 37.626 21.3214 37.8051 21.3662 37.8947C21.8589 37.7603 22.3964 37.5364 22.8443 37.178C23.1131 37.4916 23.5162 37.7156 23.9642 37.8051C24.5017 37.8947 24.9944 37.7603 25.3527 37.4916C25.1288 37.0437 24.7256 36.7749 24.1881 36.6853Z" fill="#DEC291"/>
<path d="M17.1109 37.4468C16.439 37.2676 15.9014 36.9989 15.6775 36.8645C15.8567 36.551 16.0358 36.1478 15.991 35.6999C15.9462 35.1624 15.7223 34.6697 15.3639 34.4009C15.0504 34.7145 14.8712 35.2072 14.8712 35.7447C14.8712 36.1478 15.0504 36.5062 15.2296 36.7749C14.916 36.6405 14.5129 36.551 14.1097 36.6405C13.5722 36.7301 13.1243 36.9989 12.9003 37.402C13.2587 37.6708 13.7514 37.8052 14.2889 37.7156C14.7816 37.626 15.14 37.402 15.4087 37.0885C15.8567 37.4468 16.3942 37.6708 16.8869 37.8052C16.9765 37.7156 17.0213 37.5812 17.1109 37.4468Z" fill="#DEC291"/>
<path d="M21.1422 37.8947C21.0974 37.7156 21.0526 37.626 20.9182 37.4916C20.8287 37.402 20.7391 37.3572 20.5599 37.3124C20.2016 37.2229 19.888 37.3572 19.664 37.4916C19.7088 37.3124 19.7536 37.1333 19.7088 36.9093C19.664 36.1478 19.2609 35.6551 19.1265 35.5655C18.9922 35.6551 18.5442 36.1478 18.5442 36.9093C18.5442 37.0885 18.5442 37.3124 18.589 37.4916C18.3651 37.3572 18.0515 37.2229 17.6932 37.3124C17.5588 37.3572 17.4244 37.402 17.3348 37.4916C17.2452 37.5812 17.2004 37.7156 17.1556 37.8947C17.1109 38.1635 17.2452 38.4771 17.514 38.5666C18.0515 38.701 17.4244 38.3875 17.9619 38.1187C18.3203 37.9395 18.6786 38.0291 18.6786 38.5218C18.6786 38.8354 18.4994 39.2385 18.0963 39.1042C17.9171 39.0594 18.1411 39.5073 18.4546 39.5073C18.5442 39.5073 18.8578 39.4625 18.9026 39.2385C18.9026 39.5073 18.9922 39.8656 19.0817 39.9552C19.1713 39.8656 19.2609 39.5073 19.2609 39.2385C19.3057 39.4625 19.6193 39.5073 19.7088 39.5073C20.0224 39.5073 20.2464 39.0146 20.0672 39.1042C19.664 39.2385 19.5297 38.8354 19.4849 38.5218C19.4401 38.0291 19.8432 37.9395 20.2016 38.1187C20.6943 38.3875 20.0672 38.701 20.6495 38.5666C21.0526 38.5218 21.187 38.2083 21.1422 37.8947Z" fill="#DEC291"/>
</g>
<path d="M64.3787 8.1421H65.075L64.7908 11.7373H64.2224C64.0234 10.8657 63.635 10.1789 63.0571 9.6768C62.4887 9.17471 61.7972 8.92366 60.9825 8.92366C60.4235 8.92366 59.9262 9.03734 59.4904 9.2647C59.0546 9.48259 58.6852 9.79995 58.382 10.2168C58.0883 10.6241 57.861 11.1262 57.6999 11.7231C57.5484 12.3104 57.4726 12.9735 57.4726 13.7125C57.4726 15.1809 57.771 16.3129 58.3678 17.1087C58.9741 17.895 59.8646 18.2881 61.0393 18.2881C61.9867 18.2881 62.7682 18.0324 63.384 17.5208C64.0092 17.0092 64.4545 16.2466 64.7197 15.233H65.345V19.0839H64.6771L64.4782 17.9613C63.4361 18.8044 62.1714 19.226 60.6841 19.226C59.822 19.226 59.0404 19.0981 58.3394 18.8423C57.6383 18.5866 57.0415 18.2266 56.5489 17.7624C56.0563 17.2887 55.6726 16.7156 55.3979 16.0429C55.1326 15.3703 55 14.6219 55 13.7977C55 12.9357 55.1421 12.1494 55.4263 11.4389C55.7105 10.7283 56.1084 10.1173 56.62 9.60575C57.141 9.09418 57.7568 8.70103 58.4673 8.4263C59.1873 8.1421 59.983 8 60.8546 8C61.4325 8 61.9724 8.08052 62.4745 8.24157C62.9766 8.40262 63.5213 8.66314 64.1087 9.02313L64.3787 8.1421Z" fill="white"/>
<path d="M74.1445 15.7729H70.123C69.6778 16.7771 69.4552 17.4734 69.4552 17.8618C69.4552 18.146 69.5594 18.326 69.7678 18.4018C69.9857 18.4776 70.3078 18.5155 70.7341 18.5155V19.0839H66.8405V18.5155C67.0679 18.4871 67.2621 18.4492 67.4231 18.4018C67.5936 18.3545 67.7405 18.2881 67.8636 18.2029C67.9962 18.1176 68.1099 18.0087 68.2047 17.876C68.2994 17.7339 68.3894 17.5634 68.4747 17.3645L72.2119 8H73.2635L76.6597 16.2987C76.8586 16.7819 77.0244 17.1608 77.1571 17.4355C77.2992 17.7103 77.446 17.9234 77.5976 18.075C77.7586 18.2171 77.9386 18.3166 78.1376 18.3734C78.346 18.4302 78.6112 18.4729 78.9333 18.5013V19.0839H73.5619V18.5013C74.0166 18.4823 74.3434 18.435 74.5424 18.3592C74.7413 18.2834 74.8408 18.1318 74.8408 17.9045C74.8408 17.7718 74.8076 17.6013 74.7413 17.3929C74.675 17.1845 74.585 16.9287 74.4713 16.6256L74.1445 15.7729ZM70.4499 14.9203H73.8319L72.1977 10.6147H72.1409L70.4499 14.9203Z" fill="white"/>
<path d="M89.3862 10.8847C89.3862 11.671 89.1588 12.3294 88.7041 12.8599C88.2494 13.3904 87.5247 13.7456 86.53 13.9256L89.8267 17.7055C90.0541 17.9708 90.3241 18.1745 90.6367 18.3166C90.9493 18.4492 91.2667 18.5155 91.5888 18.5155V19.0839H88.221L84.6969 14.764C84.46 14.4798 84.2516 14.2904 84.0716 14.1956C83.9011 14.0914 83.74 14.0393 83.5885 14.0393V16.8245C83.5885 17.175 83.6122 17.464 83.6595 17.6913C83.7069 17.9092 83.8016 18.0797 83.9437 18.2029C84.0858 18.326 84.2895 18.4113 84.5548 18.4587C84.8295 18.4966 85.1942 18.5155 85.6489 18.5155V19.0839H80.0075V18.5155C80.3201 18.5155 80.5712 18.4966 80.7607 18.4587C80.9596 18.4113 81.1112 18.3308 81.2154 18.2171C81.3291 18.0939 81.4048 17.9282 81.4427 17.7197C81.4806 17.5018 81.4996 17.2271 81.4996 16.8955V10.3305C81.4996 9.99889 81.4854 9.73364 81.457 9.5347C81.4285 9.32628 81.367 9.16523 81.2722 9.05155C81.1775 8.9284 81.0401 8.84787 80.8601 8.80998C80.6896 8.76261 80.4575 8.72945 80.1638 8.71051V8.1421H85.0805C86.4542 8.1421 87.5152 8.38367 88.2636 8.86682C89.012 9.34996 89.3862 10.0226 89.3862 10.8847ZM83.5885 13.1867H84.5121C85.4026 13.1867 86.0658 13.0162 86.5016 12.6751C86.9468 12.3246 87.1694 11.7515 87.1694 10.9557C87.1694 10.3494 86.9847 9.86153 86.6152 9.49207C86.2458 9.1226 85.7342 8.93787 85.0805 8.93787H83.8443C83.6737 8.93787 83.5885 9.01839 83.5885 9.17944V13.1867Z" fill="white"/>
<path d="M102.38 19.0839H92.5896V18.5155C92.9022 18.506 93.158 18.4776 93.3569 18.4302C93.5559 18.3829 93.7075 18.3024 93.8117 18.1887C93.9159 18.075 93.9869 17.9139 94.0248 17.7055C94.0627 17.4971 94.0817 17.2271 94.0817 16.8955V10.3305C94.0817 9.99889 94.0627 9.73364 94.0248 9.5347C93.9964 9.32628 93.9348 9.16523 93.8401 9.05155C93.7453 8.9284 93.608 8.84787 93.428 8.80998C93.2575 8.76261 93.0301 8.72945 92.7459 8.71051V8.1421H97.6484V8.71051C97.3263 8.71998 97.0658 8.7484 96.8668 8.79577C96.6774 8.84313 96.5305 8.9284 96.4263 9.05155C96.3221 9.17471 96.2511 9.34523 96.2132 9.56312C96.1848 9.781 96.1706 10.0699 96.1706 10.4299V16.384C96.1706 16.7819 96.2084 17.1087 96.2842 17.3645C96.3695 17.6108 96.5116 17.805 96.7105 17.9471C96.9095 18.0797 97.1747 18.1745 97.5063 18.2313C97.8379 18.2787 98.25 18.3024 98.7426 18.3024C99.292 18.3024 99.7515 18.2692 100.121 18.2029C100.49 18.1366 100.798 18.0134 101.045 17.8334C101.3 17.6439 101.504 17.3929 101.656 17.0803C101.807 16.7677 101.935 16.3603 102.039 15.8582H102.608L102.38 19.0839Z" fill="white"/>
<path d="M110.521 8C111.374 8 112.17 8.14684 112.908 8.44051C113.647 8.73419 114.287 9.13681 114.827 9.64838C115.376 10.1599 115.807 10.7615 116.12 11.4531C116.433 12.1446 116.589 12.893 116.589 13.6983C116.589 14.4656 116.428 15.1856 116.106 15.8582C115.793 16.5308 115.362 17.1182 114.813 17.6203C114.273 18.1129 113.633 18.506 112.894 18.7997C112.155 19.0839 111.364 19.226 110.521 19.226C109.678 19.226 108.887 19.0839 108.148 18.7997C107.409 18.506 106.765 18.1129 106.215 17.6203C105.666 17.1182 105.235 16.5308 104.922 15.8582C104.61 15.1856 104.453 14.4656 104.453 13.6983C104.453 12.893 104.61 12.1446 104.922 11.4531C105.235 10.7615 105.661 10.1599 106.201 9.64838C106.751 9.13681 107.395 8.73419 108.134 8.44051C108.873 8.14684 109.669 8 110.521 8ZM110.521 18.3024C111.071 18.3024 111.568 18.1981 112.013 17.9897C112.458 17.7718 112.837 17.4687 113.15 17.0803C113.463 16.6824 113.699 16.204 113.861 15.6451C114.031 15.0767 114.116 14.4419 114.116 13.7409C114.116 13.002 114.031 12.3388 113.861 11.7515C113.699 11.1547 113.463 10.6478 113.15 10.231C112.837 9.80469 112.458 9.48259 112.013 9.2647C111.568 9.03734 111.071 8.92366 110.521 8.92366C109.962 8.92366 109.46 9.03734 109.015 9.2647C108.579 9.48259 108.205 9.80469 107.892 10.231C107.58 10.6478 107.338 11.1547 107.168 11.7515C107.006 12.3388 106.926 13.002 106.926 13.7409C106.926 14.4419 107.006 15.0767 107.168 15.6451C107.338 16.204 107.58 16.6824 107.892 17.0803C108.205 17.4687 108.579 17.7718 109.015 17.9897C109.46 18.1981 109.962 18.3024 110.521 18.3024Z" fill="white"/>
<path d="M118.981 15.4603H119.535C119.668 16.3603 120.028 17.0708 120.615 17.5918C121.203 18.1034 121.928 18.3592 122.79 18.3592C123.14 18.3592 123.462 18.3166 123.756 18.2313C124.05 18.146 124.301 18.0276 124.509 17.876C124.717 17.715 124.878 17.5303 124.992 17.3219C125.106 17.104 125.163 16.8624 125.163 16.5971C125.163 16.3698 125.125 16.1756 125.049 16.0145C124.983 15.844 124.85 15.683 124.651 15.5314C124.452 15.3703 124.177 15.2093 123.827 15.0482C123.486 14.8872 123.041 14.7024 122.491 14.494C121.383 14.0677 120.563 13.5751 120.033 13.0162C119.502 12.4478 119.237 11.7799 119.237 11.0125C119.237 10.5673 119.322 10.1599 119.493 9.79048C119.663 9.42101 119.9 9.10365 120.203 8.8384C120.516 8.57314 120.885 8.36946 121.312 8.22736C121.748 8.07579 122.226 8 122.747 8C123.23 8 123.685 8.07579 124.111 8.22736C124.537 8.37894 124.959 8.6063 125.376 8.90945L125.632 8.19894H125.973L126.129 11.2683H125.575C125.347 10.4915 124.992 9.89942 124.509 9.49207C124.026 9.07523 123.467 8.86682 122.832 8.86682C122.245 8.86682 121.766 9.01366 121.397 9.30733C121.037 9.59154 120.857 9.961 120.857 10.4157C120.857 10.6147 120.89 10.7947 120.956 10.9557C121.023 11.1073 121.146 11.2541 121.326 11.3962C121.506 11.5383 121.752 11.6852 122.065 11.8367C122.377 11.9788 122.78 12.1399 123.273 12.3199C123.936 12.5757 124.5 12.8362 124.964 13.1014C125.437 13.3572 125.821 13.6367 126.115 13.9398C126.418 14.2335 126.641 14.5461 126.783 14.8777C126.925 15.2093 126.996 15.574 126.996 15.9719C126.996 16.455 126.892 16.8955 126.683 17.2934C126.475 17.6913 126.181 18.0324 125.802 18.3166C125.433 18.6008 124.987 18.8234 124.466 18.9844C123.955 19.1455 123.386 19.226 122.761 19.226C122.193 19.226 121.681 19.1502 121.226 18.9987C120.772 18.8376 120.303 18.5818 119.82 18.2313L119.535 19.0839H119.194L118.981 15.4603Z" fill="white"/>
<path d="M139.951 15.7729H135.929C135.484 16.7771 135.261 17.4734 135.261 17.8618C135.261 18.146 135.366 18.326 135.574 18.4018C135.792 18.4776 136.114 18.5155 136.54 18.5155V19.0839H132.647V18.5155C132.874 18.4871 133.068 18.4492 133.229 18.4018C133.4 18.3545 133.547 18.2881 133.67 18.2029C133.803 18.1176 133.916 18.0087 134.011 17.876C134.106 17.7339 134.196 17.5634 134.281 17.3645L138.018 8H139.07L142.466 16.2987C142.665 16.7819 142.831 17.1608 142.963 17.4355C143.105 17.7103 143.252 17.9234 143.404 18.075C143.565 18.2171 143.745 18.3166 143.944 18.3734C144.152 18.4302 144.417 18.4729 144.74 18.5013V19.0839H139.368V18.5013C139.823 18.4823 140.15 18.435 140.349 18.3592C140.548 18.2834 140.647 18.1318 140.647 17.9045C140.647 17.7718 140.614 17.6013 140.548 17.3929C140.481 17.1845 140.391 16.9287 140.278 16.6256L139.951 15.7729ZM136.256 14.9203H139.638L138.004 10.6147H137.947L136.256 14.9203Z" fill="white"/>
<path d="M155.56 14.6788C155.56 15.484 155.47 16.1756 155.29 16.7534C155.12 17.3219 154.85 17.7908 154.48 18.1603C154.111 18.5297 153.632 18.7997 153.045 18.9702C152.467 19.1407 151.771 19.226 150.956 19.226C149.431 19.226 148.313 18.9087 147.602 18.2739C146.901 17.6297 146.551 16.6066 146.551 15.2045V11.311C146.551 10.9415 146.546 10.6336 146.537 10.3873C146.527 10.1315 146.513 9.91837 146.494 9.74785C146.475 9.57733 146.447 9.43996 146.409 9.33575C146.38 9.22207 146.342 9.12734 146.295 9.05155C146.21 8.91892 146.087 8.82892 145.926 8.78156C145.765 8.73419 145.518 8.71051 145.187 8.71051V8.1421H150.288V8.71051C149.89 8.71051 149.597 8.73419 149.407 8.78156C149.218 8.81945 149.071 8.89998 148.967 9.02313C148.9 9.09892 148.843 9.19365 148.796 9.30733C148.758 9.41154 148.725 9.55364 148.697 9.73364C148.678 9.90416 148.663 10.1173 148.654 10.3731C148.644 10.6289 148.64 10.9415 148.64 11.311V15.034C148.64 16.114 148.867 16.9145 149.322 17.4355C149.786 17.9471 150.497 18.2029 151.453 18.2029C153.405 18.2029 154.381 17.1182 154.381 14.9488V11.6662C154.381 11.2683 154.371 10.9273 154.352 10.6431C154.343 10.3589 154.319 10.1173 154.281 9.91837C154.253 9.71943 154.21 9.55364 154.153 9.42101C154.106 9.28839 154.044 9.17944 153.969 9.09418C153.836 8.96155 153.665 8.86682 153.457 8.80998C153.249 8.74366 152.96 8.71051 152.59 8.71051V8.1421H157.194V8.71051C156.844 8.71051 156.574 8.73893 156.384 8.79577C156.195 8.84313 156.048 8.93313 155.944 9.06576C155.868 9.15102 155.806 9.2647 155.759 9.4068C155.712 9.53943 155.674 9.70995 155.645 9.91837C155.617 10.1173 155.593 10.3589 155.574 10.6431C155.565 10.9273 155.56 11.2683 155.56 11.6662V14.6788Z" fill="white"/>
<path d="M164.414 19.226C163.561 19.226 162.789 19.1029 162.098 18.8565C161.416 18.6008 160.833 18.2408 160.35 17.7766C159.876 17.3029 159.507 16.7345 159.241 16.0714C158.986 15.3987 158.858 14.6456 158.858 13.8119C158.858 12.9499 158.995 12.1636 159.27 11.4531C159.554 10.7331 159.947 10.1173 160.449 9.60575C160.951 9.09418 161.553 8.70103 162.254 8.4263C162.955 8.1421 163.732 8 164.584 8C165.172 8 165.731 8.08052 166.261 8.24157C166.792 8.40262 167.365 8.66314 167.981 9.02313L168.251 8.1421H168.762V11.7373H168.052C167.862 10.8468 167.479 10.1552 166.901 9.66259C166.332 9.16997 165.617 8.92366 164.755 8.92366C163.666 8.92366 162.818 9.34523 162.211 10.1884C161.615 11.022 161.316 12.192 161.316 13.6983C161.316 15.1761 161.61 16.3082 162.197 17.0945C162.785 17.8808 163.637 18.2739 164.755 18.2739C165.56 18.2739 166.186 18.0703 166.631 17.6629C167.085 17.2461 167.313 16.6729 167.313 15.9435C167.313 15.5077 167.199 15.1903 166.972 14.9914C166.744 14.783 166.361 14.6551 165.821 14.6077V14.0393H170.425V14.6077C169.961 14.6077 169.639 14.7119 169.459 14.9203C169.279 15.1193 169.189 15.484 169.189 16.0145V17.9045C168.98 17.9045 168.805 17.9139 168.663 17.9329C168.521 17.9424 168.379 17.9708 168.237 18.0181C168.104 18.056 167.952 18.1224 167.782 18.2171C167.611 18.3118 167.398 18.435 167.142 18.5866C166.413 19.0129 165.503 19.226 164.414 19.226Z" fill="white"/>
<path d="M182.389 14.6788C182.389 15.484 182.299 16.1756 182.119 16.7534C181.949 17.3219 181.679 17.7908 181.309 18.1603C180.94 18.5297 180.462 18.7997 179.874 18.9702C179.296 19.1407 178.6 19.226 177.785 19.226C176.26 19.226 175.142 18.9087 174.432 18.2739C173.731 17.6297 173.38 16.6066 173.38 15.2045V11.311C173.38 10.9415 173.376 10.6336 173.366 10.3873C173.357 10.1315 173.342 9.91837 173.323 9.74785C173.304 9.57733 173.276 9.43996 173.238 9.33575C173.21 9.22207 173.172 9.12734 173.124 9.05155C173.039 8.91892 172.916 8.82892 172.755 8.78156C172.594 8.73419 172.348 8.71051 172.016 8.71051V8.1421H177.118V8.71051C176.72 8.71051 176.426 8.73419 176.236 8.78156C176.047 8.81945 175.9 8.89998 175.796 9.02313C175.73 9.09892 175.673 9.19365 175.625 9.30733C175.588 9.41154 175.554 9.55364 175.526 9.73364C175.507 9.90416 175.493 10.1173 175.483 10.3731C175.474 10.6289 175.469 10.9415 175.469 11.311V15.034C175.469 16.114 175.696 16.9145 176.151 17.4355C176.615 17.9471 177.326 18.2029 178.283 18.2029C180.234 18.2029 181.21 17.1182 181.21 14.9488V11.6662C181.21 11.2683 181.201 10.9273 181.182 10.6431C181.172 10.3589 181.148 10.1173 181.111 9.91837C181.082 9.71943 181.04 9.55364 180.983 9.42101C180.935 9.28839 180.874 9.17944 180.798 9.09418C180.665 8.96155 180.495 8.86682 180.286 8.80998C180.078 8.74366 179.789 8.71051 179.42 8.71051V8.1421H184.024V8.71051C183.673 8.71051 183.403 8.73893 183.214 8.79577C183.024 8.84313 182.877 8.93313 182.773 9.06576C182.697 9.15102 182.636 9.2647 182.588 9.4068C182.541 9.53943 182.503 9.70995 182.475 9.91837C182.446 10.1173 182.423 10.3589 182.404 10.6431C182.394 10.9273 182.389 11.2683 182.389 11.6662V14.6788Z" fill="white"/>
<path d="M185.898 15.4603H186.452C186.585 16.3603 186.945 17.0708 187.532 17.5918C188.119 18.1034 188.844 18.3592 189.706 18.3592C190.057 18.3592 190.379 18.3166 190.672 18.2313C190.966 18.146 191.217 18.0276 191.425 17.876C191.634 17.715 191.795 17.5303 191.909 17.3219C192.022 17.104 192.079 16.8624 192.079 16.5971C192.079 16.3698 192.041 16.1756 191.965 16.0145C191.899 15.844 191.766 15.683 191.568 15.5314C191.369 15.3703 191.094 15.2093 190.743 15.0482C190.402 14.8872 189.957 14.7024 189.408 14.494C188.299 14.0677 187.48 13.5751 186.949 13.0162C186.419 12.4478 186.153 11.7799 186.153 11.0125C186.153 10.5673 186.239 10.1599 186.409 9.79048C186.58 9.42101 186.817 9.10365 187.12 8.8384C187.432 8.57314 187.802 8.36946 188.228 8.22736C188.664 8.07579 189.142 8 189.663 8C190.147 8 190.601 8.07579 191.028 8.22736C191.454 8.37894 191.875 8.6063 192.292 8.90945L192.548 8.19894H192.889L193.045 11.2683H192.491C192.264 10.4915 191.909 9.89942 191.425 9.49207C190.942 9.07523 190.383 8.86682 189.749 8.86682C189.161 8.86682 188.683 9.01366 188.313 9.30733C187.953 9.59154 187.773 9.961 187.773 10.4157C187.773 10.6147 187.807 10.7947 187.873 10.9557C187.939 11.1073 188.062 11.2541 188.242 11.3962C188.422 11.5383 188.669 11.6852 188.981 11.8367C189.294 11.9788 189.697 12.1399 190.189 12.3199C190.852 12.5757 191.416 12.8362 191.88 13.1014C192.354 13.3572 192.738 13.6367 193.031 13.9398C193.334 14.2335 193.557 14.5461 193.699 14.8777C193.841 15.2093 193.912 15.574 193.912 15.9719C193.912 16.455 193.808 16.8955 193.6 17.2934C193.391 17.6913 193.098 18.0324 192.719 18.3166C192.349 18.6008 191.904 18.8234 191.383 18.9844C190.871 19.1455 190.303 19.226 189.678 19.226C189.109 19.226 188.598 19.1502 188.143 18.9987C187.688 18.8376 187.219 18.5818 186.736 18.2313L186.452 19.0839H186.111L185.898 15.4603Z" fill="white"/>
<path d="M207.018 11.2683H206.407C206.378 10.8041 206.307 10.4205 206.194 10.1173C206.089 9.80469 205.938 9.55838 205.739 9.37838C205.54 9.18892 205.298 9.06102 205.014 8.99471C204.73 8.91892 204.398 8.88103 204.02 8.88103C203.65 8.88103 203.352 8.8905 203.124 8.90945C202.906 8.91892 202.736 8.94261 202.613 8.9805C202.499 9.00892 202.423 9.05155 202.385 9.10839C202.347 9.16523 202.329 9.23628 202.329 9.32154V16.7677C202.329 17.0708 202.347 17.3313 202.385 17.5492C202.433 17.7671 202.523 17.9471 202.655 18.0892C202.788 18.2218 202.982 18.326 203.238 18.4018C203.494 18.4681 203.83 18.506 204.247 18.5155V19.0839H198.293V18.5155C198.719 18.506 199.06 18.4681 199.316 18.4018C199.572 18.326 199.766 18.2218 199.899 18.0892C200.041 17.9471 200.131 17.7671 200.169 17.5492C200.216 17.3313 200.24 17.0708 200.24 16.7677V9.32154C200.24 9.23628 200.221 9.16523 200.183 9.10839C200.154 9.05155 200.088 9.00892 199.984 8.9805C199.88 8.94261 199.728 8.91892 199.529 8.90945C199.34 8.8905 199.089 8.88103 198.776 8.88103C198.435 8.88103 198.108 8.89998 197.795 8.93787C197.483 8.96629 197.208 9.06102 196.971 9.22207C196.734 9.37365 196.54 9.61048 196.389 9.93258C196.247 10.2452 196.171 10.6905 196.161 11.2683H195.607L195.749 8.1421H206.876L207.018 11.2683Z" fill="white"/>
<path d="M214.823 8C215.676 8 216.471 8.14684 217.21 8.44051C217.949 8.73419 218.589 9.13681 219.129 9.64838C219.678 10.1599 220.109 10.7615 220.422 11.4531C220.734 12.1446 220.891 12.893 220.891 13.6983C220.891 14.4656 220.73 15.1856 220.408 15.8582C220.095 16.5308 219.664 17.1182 219.114 17.6203C218.574 18.1129 217.935 18.506 217.196 18.7997C216.457 19.0839 215.666 19.226 214.823 19.226C213.98 19.226 213.189 19.0839 212.45 18.7997C211.711 18.506 211.067 18.1129 210.517 17.6203C209.968 17.1182 209.537 16.5308 209.224 15.8582C208.912 15.1856 208.755 14.4656 208.755 13.6983C208.755 12.893 208.912 12.1446 209.224 11.4531C209.537 10.7615 209.963 10.1599 210.503 9.64838C211.053 9.13681 211.697 8.73419 212.436 8.44051C213.175 8.14684 213.97 8 214.823 8ZM214.823 18.3024C215.372 18.3024 215.87 18.1981 216.315 17.9897C216.76 17.7718 217.139 17.4687 217.452 17.0803C217.765 16.6824 218.001 16.204 218.162 15.6451C218.333 15.0767 218.418 14.4419 218.418 13.7409C218.418 13.002 218.333 12.3388 218.162 11.7515C218.001 11.1547 217.765 10.6478 217.452 10.231C217.139 9.80469 216.76 9.48259 216.315 9.2647C215.87 9.03734 215.372 8.92366 214.823 8.92366C214.264 8.92366 213.762 9.03734 213.317 9.2647C212.881 9.48259 212.507 9.80469 212.194 10.231C211.882 10.6478 211.64 11.1547 211.469 11.7515C211.308 12.3388 211.228 13.002 211.228 13.7409C211.228 14.4419 211.308 15.0767 211.469 15.6451C211.64 16.204 211.882 16.6824 212.194 17.0803C212.507 17.4687 212.881 17.7718 213.317 17.9897C213.762 18.1981 214.264 18.3024 214.823 18.3024Z" fill="white"/>
<path fill-rule="evenodd" clip-rule="evenodd" d="M128.239 25.6206C129.865 25.6206 131.088 26.8014 131.088 28.8057C131.088 30.8101 129.865 31.9909 128.239 31.9909C126.61 31.9909 125.39 30.8071 125.39 28.8057C125.39 26.8014 126.61 25.6206 128.239 25.6206ZM128.239 30.9827C129.25 30.9827 129.959 30.2167 129.959 28.8057C129.959 27.3948 129.25 26.6288 128.239 26.6288C127.231 26.6288 126.519 27.3948 126.519 28.8057C126.519 30.2167 127.231 30.9827 128.239 30.9827ZM98.7727 30.3771L98.261 31.9061H97.062L99.245 25.7054H100.632L102.818 31.9061H101.619L101.104 30.3771H98.7727ZM99.9141 26.977L99.0754 29.4749H100.801L99.9626 26.977H99.9141ZM112.156 28.7997C112.156 30.7374 111.035 31.9061 109.146 31.9061H107.045V25.7054H109.188C111.035 25.7054 112.156 26.868 112.156 28.7997ZM108.168 26.6773V30.9342H109.092C110.384 30.9342 111.041 30.2258 111.041 28.7997C111.041 27.3797 110.384 26.6773 109.125 26.6773H108.168ZM117.13 25.7054H115.898L118.081 31.9061H119.467L121.653 25.7054H120.418L118.807 30.5861H118.744L117.13 25.7054ZM139.715 27.6855H140.859C140.668 26.4683 139.615 25.6206 138.243 25.6206C136.62 25.6206 135.403 26.8135 135.403 28.8118C135.403 30.7738 136.566 31.9909 138.276 31.9909C139.812 31.9909 140.911 31.0039 140.911 29.4052V28.6604H138.395V29.5385H139.824C139.805 30.4226 139.215 30.9827 138.283 30.9827C137.244 30.9827 136.533 30.2046 136.533 28.7997C136.533 27.4039 137.256 26.6288 138.258 26.6288C139.006 26.6288 139.515 27.0285 139.715 27.6855ZM146.524 30.3771L146.012 31.9061H144.813L146.996 25.7054H148.383L150.569 31.9061H149.37L148.855 30.3771H146.524ZM147.665 26.977L146.826 29.4749H148.552L147.714 26.977H147.665ZM156.897 31.9061C158.786 31.9061 159.907 30.7374 159.907 28.7997C159.907 26.868 158.786 25.7054 156.94 25.7054H154.796V31.9061H156.897ZM155.919 26.6773H156.876C158.136 26.6773 158.793 27.3797 158.793 28.7997C158.793 30.2258 158.136 30.9342 156.843 30.9342H155.919V26.6773ZM167.076 25.6206C168.702 25.6206 169.925 26.8014 169.925 28.8057C169.925 30.8101 168.702 31.9909 167.076 31.9909C165.447 31.9909 164.227 30.8071 164.227 28.8057C164.227 26.8014 165.447 25.6206 167.076 25.6206ZM167.076 30.9827C168.087 30.9827 168.796 30.2167 168.796 28.8057C168.796 27.3948 168.087 26.6288 167.076 26.6288C166.068 26.6288 165.356 27.3948 165.356 28.8057C165.356 30.2167 166.068 30.9827 167.076 30.9827ZM177.767 27.41H178.848C178.827 26.3624 177.934 25.6206 176.614 25.6206C175.312 25.6206 174.334 26.3533 174.337 27.4493C174.337 28.3395 174.97 28.8512 175.99 29.1146L176.696 29.2962C177.365 29.4658 177.807 29.6747 177.81 30.1561C177.807 30.686 177.304 31.0402 176.572 31.0402C175.869 31.0402 175.324 30.7253 175.279 30.0744H174.174C174.219 31.3066 175.136 32 176.581 32C178.067 32 178.93 31.2582 178.933 30.1652C178.93 29.0904 178.043 28.5999 177.11 28.3788L176.529 28.2335C176.02 28.1124 175.469 27.8974 175.475 27.3797C175.479 26.9134 175.896 26.5713 176.599 26.5713C177.268 26.5713 177.71 26.8831 177.767 27.41ZM72.6205 26.6548H93.0831V27.4048H72.6205V26.6548ZM203.07 26.6548H182.607V27.4048H203.07V26.6548ZM72.6205 30.2704H93.0831V31.0204H72.6205V30.2704ZM203.07 30.2704H182.607V31.0204H203.07V30.2704Z" fill="#D8AE75"/>
<defs>
<clipPath id="clip0_2_70">
<rect width="38.3427" height="40" fill="white"/>
</clipPath>
</defs>
</svg>
